<svg xmlns="http://www.w3.org/2000/svg" xmlns:xlink="http://www.w3.org/1999/xlink" width="113" height="113" viewBox="0 0 113 113">
  <defs>
    <filter id="Path_982547" x="0" y="0" width="113" height="113" filterUnits="userSpaceOnUse">
      <feOffset dy="3" input="SourceAlpha"/>
      <feGaussianBlur stdDeviation="3" result="blur"/>
      <feFlood flood-opacity="0.161"/>
      <feComposite operator="in" in2="blur"/>
      <feComposite in="SourceGraphic"/>
    </filter>
  </defs>
  <g id="Group_1220094" data-name="Group 1220094" transform="translate(-585.425 -943.269)">
    <g id="Group_1220003" data-name="Group 1220003">
      <g id="Group_1219624" data-name="Group 1219624" transform="translate(0 -5515.518)">
        <g id="Group_1203673" data-name="Group 1203673" transform="translate(-0.575 557.5)">
          <g id="Group_1202433" data-name="Group 1202433" transform="translate(-0.56 1255.773)">
            <g id="Group_1202054" data-name="Group 1202054" transform="translate(0 3240.511)">
              <g id="Group_1177897" data-name="Group 1177897" transform="translate(595.561 1411.003)">
                <g id="Group_1172010" data-name="Group 1172010" transform="translate(0)">
                  <g id="Group_1171046" data-name="Group 1171046">
                    <g id="Group_1148525" data-name="Group 1148525">
                      <g transform="matrix(1, 0, 0, 1, -9, -6)" filter="url(#Path_982547)">
                        <g id="Path_982547-2" data-name="Path 982547" transform="translate(9 6)" fill="#ead9e0">
                          <path d="M 47.5 93.5 C 41.28937149047852 93.5 35.26533508300781 92.28397369384766 29.59518623352051 89.88570404052734 C 24.11771965026855 87.56893157958984 19.19813346862793 84.25196075439453 14.97309303283691 80.02691650390625 C 10.74804019927979 75.80186462402344 7.431066513061523 70.88229370117188 5.114293098449707 65.40481567382812 C 2.716026782989502 59.73468017578125 1.5 53.71062850952148 1.5 47.5 C 1.5 41.28937149047852 2.716026782989502 35.26533508300781 5.114293098449707 29.59518623352051 C 7.431066513061523 24.11771965026855 10.74804019927979 19.19813346862793 14.97309303283691 14.97309303283691 C 19.19813346862793 10.74804019927979 24.11771965026855 7.431066513061523 29.59518623352051 5.114293098449707 C 35.26533508300781 2.716026782989502 41.28937149047852 1.5 47.5 1.5 C 53.71062850952148 1.5 59.73468017578125 2.716026782989502 65.40481567382812 5.114293098449707 C 70.88229370117188 7.431066513061523 75.80186462402344 10.74804019927979 80.02691650390625 14.97309303283691 C 84.25196075439453 19.19813346862793 87.56893157958984 24.11771965026855 89.88570404052734 29.59518623352051 C 92.28397369384766 35.26533508300781 93.5 41.28937149047852 93.5 47.5 C 93.5 53.71062850952148 92.28397369384766 59.73468017578125 89.88570404052734 65.40481567382812 C 87.56893157958984 70.88229370117188 84.25196075439453 75.80186462402344 80.02691650390625 80.02691650390625 C 75.80186462402344 84.25196075439453 70.88229370117188 87.56893157958984 65.40481567382812 89.88570404052734 C 59.73468017578125 92.28397369384766 53.71062850952148 93.5 47.5 93.5 Z" stroke="none"/>
                          <path d="M 47.5 3 C 41.49121475219727 3 35.66376876831055 4.176155090332031 30.17950439453125 6.495796203613281 C 24.88084411621094 8.736953735351562 20.12152099609375 11.94598388671875 16.03375244140625 16.03375244140625 C 11.94598388671875 20.12152099609375 8.736953735351562 24.88084411621094 6.495796203613281 30.17950439453125 C 4.176155090332031 35.66376876831055 3 41.49121475219727 3 47.5 C 3 53.50878524780273 4.176155090332031 59.33623123168945 6.495796203613281 64.82049560546875 C 8.736953735351562 70.11915588378906 11.94598388671875 74.87847900390625 16.03375244140625 78.96624755859375 C 20.12152099609375 83.05401611328125 24.88084411621094 86.26304626464844 30.17950439453125 88.50419616699219 C 35.66376876831055 90.82384490966797 41.49121475219727 92 47.5 92 C 53.50878524780273 92 59.33623123168945 90.82384490966797 64.82049560546875 88.50419616699219 C 70.11915588378906 86.26304626464844 74.87847900390625 83.05401611328125 78.96624755859375 78.96624755859375 C 83.05401611328125 74.87847900390625 86.26304626464844 70.11915588378906 88.50419616699219 64.82049560546875 C 90.82384490966797 59.33623123168945 92 53.50878524780273 92 47.5 C 92 41.49121475219727 90.82384490966797 35.66376876831055 88.50419616699219 30.17950439453125 C 86.26304626464844 24.88084411621094 83.05401611328125 20.12152099609375 78.96624755859375 16.03375244140625 C 74.87847900390625 11.94598388671875 70.11915588378906 8.736953735351562 64.82049560546875 6.495796203613281 C 59.33623123168945 4.176155090332031 53.50878524780273 3 47.5 3 M 47.5 0 C 73.7335205078125 0 95 21.2664794921875 95 47.5 C 95 73.7335205078125 73.7335205078125 95 47.5 95 C 21.2664794921875 95 0 73.7335205078125 0 47.5 C 0 21.2664794921875 21.2664794921875 0 47.5 0 Z" stroke="none" fill="#9b4467"/>
                        </g>
                      </g>
                    </g>
                  </g>
                </g>
              </g>
            </g>
          </g>
        </g>
      </g>
      <g id="mercadeo-social" transform="translate(594.185 949.03)">
        <path id="Path_1160512" data-name="Path 1160512" d="M155.972,217.985H120a17.9,17.9,0,0,1,3.542-10.719,17.983,17.983,0,0,1,32.43,10.719Z" transform="translate(-90.246 -159.665)" fill="#0093b9"/>
        <g id="Group_1220002" data-name="Group 1220002" transform="translate(29.754 40.334)">
          <path id="Path_1160513" data-name="Path 1160513" d="M128.464,262.495v3.174H120a17.9,17.9,0,0,1,3.542-10.719l3.864,3.313Z" transform="translate(-120 -247.683)" fill="#85bb40"/>
          <path id="Path_1160514" data-name="Path 1160514" d="M211.205,204.245l-6.319,3.159-2.116,3.174H199.6l-3.174-3.174-4.232-1.058L191,202.181A18,18,0,0,1,211.205,204.245Z" transform="translate(-181.61 -199.999)" fill="#85bb40"/>
          <path id="Path_1160515" data-name="Path 1160515" d="M329.522,279.77H320V276.6l2.116-4.232,5.238-1.164A17.919,17.919,0,0,1,329.522,279.77Z" transform="translate(-293.55 -261.784)" fill="#85bb40"/>
        </g>
        <path id="Path_1160516" data-name="Path 1160516" d="M88,312h44.436v23.276H88Z" transform="translate(-62.478 -256.854)" fill="#e8ae48"/>
        <path id="Path_1160517" data-name="Path 1160517" d="M88,312h12.7v23.276H88Z" transform="translate(-62.478 -256.854)" fill="#ce882a"/>
        <path id="Path_1160518" data-name="Path 1160518" d="M72.928,312,68.7,318.348H56L60.232,312Z" transform="translate(-34.71 -256.854)" fill="#b0792c"/>
        <path id="Path_1160519" data-name="Path 1160519" d="M184,312l4.232,6.348h31.74L215.74,312Z" transform="translate(-145.782 -256.854)" fill="#d7a148"/>
        <path id="Path_1160520" data-name="Path 1160520" d="M38.812,124.7H35.638v3.174L31.406,124.7h-5.29A2.116,2.116,0,0,1,24,122.58v-8.464A2.116,2.116,0,0,1,26.116,112h12.7a2.116,2.116,0,0,1,2.116,2.116v8.464A2.116,2.116,0,0,1,38.812,124.7Z" transform="translate(-6.942 -83.304)" fill="#85bb40"/>
        <path id="Path_1160521" data-name="Path 1160521" d="M206.812,46.812H202.58l-2.116,3.174-2.116-3.174h-4.232A2.116,2.116,0,0,1,192,44.7V34.116A2.116,2.116,0,0,1,194.116,32h12.7a2.116,2.116,0,0,1,2.116,2.116V44.7A2.116,2.116,0,0,1,206.812,46.812Z" transform="translate(-152.724 -13.884)" fill="#eb5849"/>
        <path id="Path_1160522" data-name="Path 1160522" d="M232,64v6.348l7.406-3.174Z" transform="translate(-187.434 -41.652)" fill="#e3e4e2"/>
        <path id="Path_1160523" data-name="Path 1160523" d="M376.928,116.7H370.58l-4.232,3.174V116.7H360V104h16.928Z" transform="translate(-298.506 -76.362)" fill="#e3e4e2"/>
        <path id="Path_1160524" data-name="Path 1160524" d="M360,104l8.464,7.406L376.928,104Z" transform="translate(-298.506 -76.362)" fill="#c9c9c7"/>
        <path id="Path_1160525" data-name="Path 1160525" d="M98.784,215.275h3.174a1.058,1.058,0,0,0,.88-1.645l-4.232-6.348a1.058,1.058,0,0,0-.88-.471H94.08a19.049,19.049,0,0,0-37.144,0H53.29a1.058,1.058,0,0,0-.88.471l-4.232,6.348a1.058,1.058,0,0,0,.88,1.645h3.174v14.812H48V232.2h55.016v-2.116H98.784Zm1.2-2.116h-29.2l-2.821-4.232h29.2Zm-14.3-6.348,1.125-2.25,3.954-.879a16.861,16.861,0,0,1,1.139,3.129Zm-.546-9.7-4.813,2.407a1.058,1.058,0,0,0-.407.359l-1.8,2.7h-2.17l-2.864-2.864a1.057,1.057,0,0,0-.492-.278l-3.639-.91-.785-2.746a16.992,16.992,0,0,1,16.972,1.328Zm-18.868-.263.815,2.849a1.058,1.058,0,0,0,.761.736l3.948.987,2.967,2.967a1.058,1.058,0,0,0,.748.31h3.174a1.058,1.058,0,0,0,.88-.471l1.96-2.94,5.439-2.72a16.883,16.883,0,0,1,2.713,3.193l-3.817.848a1.058,1.058,0,0,0-.717.56l-1.824,3.647H66.812l-.858-3.431a1.058,1.058,0,0,0-.338-.547l-3.1-2.658a16.93,16.93,0,0,1,3.756-3.329Zm-5.013,5.038,2.726,2.336.648,2.59H59.113A16.835,16.835,0,0,1,61.257,201.884Zm-7.4,7.043H64.009l-2.821,4.232H51.035Zm.492,6.348h7.406a1.058,1.058,0,0,0,.88-.471l3.352-5.028,3.352,5.028a1.058,1.058,0,0,0,.88.471h26.45v14.812H67.044v-15.87H64.928v15.87H54.348Z" transform="translate(-27.768 -152.723)"/>
        <path id="Path_1160526" data-name="Path 1160526" d="M28.061,121.774a1.058,1.058,0,0,0,1.693-.846v-2.116H31.87a3.178,3.178,0,0,0,3.174-3.174v-8.464A3.178,3.178,0,0,0,31.87,104h-12.7A3.178,3.178,0,0,0,16,107.174v8.464a3.178,3.178,0,0,0,3.174,3.174h4.937Zm-9.945-6.136v-8.464a1.059,1.059,0,0,1,1.058-1.058h12.7a1.059,1.059,0,0,1,1.058,1.058v8.464A1.059,1.059,0,0,1,31.87,116.7H28.7a1.058,1.058,0,0,0-1.058,1.058v1.058l-2.539-1.9a1.058,1.058,0,0,0-.635-.212h-5.29A1.059,1.059,0,0,1,18.116,115.638Z" transform="translate(0 -76.362)"/>
        <path id="Path_1160527" data-name="Path 1160527" d="M48,136h2.116v2.116H48Z" transform="translate(-27.768 -104.13)"/>
        <path id="Path_1160528" data-name="Path 1160528" d="M80,136h6.348v2.116H80Z" transform="translate(-55.536 -104.13)"/>
        <path id="Path_1160529" data-name="Path 1160529" d="M48,168H58.58v2.116H48Z" transform="translate(-27.768 -131.898)"/>
        <path id="Path_1160530" data-name="Path 1160530" d="M187.174,40.928h3.666l1.8,2.7a1.058,1.058,0,0,0,1.761,0l1.8-2.7h3.666a3.178,3.178,0,0,0,3.174-3.174V27.174A3.178,3.178,0,0,0,199.87,24h-12.7A3.178,3.178,0,0,0,184,27.174v10.58A3.178,3.178,0,0,0,187.174,40.928Zm-1.058-13.754a1.059,1.059,0,0,1,1.058-1.058h12.7a1.059,1.059,0,0,1,1.058,1.058v10.58a1.059,1.059,0,0,1-1.058,1.058h-4.232a1.058,1.058,0,0,0-.88.471l-1.236,1.854-1.236-1.854a1.058,1.058,0,0,0-.88-.471h-4.232a1.059,1.059,0,0,1-1.058-1.058Z" transform="translate(-145.782 -6.942)"/>
        <path id="Path_1160531" data-name="Path 1160531" d="M224.476,64.288a1.058,1.058,0,0,0,1,.089l7.406-3.174a1.058,1.058,0,0,0,0-1.945l-7.406-3.174a1.058,1.058,0,0,0-1.475.972V63.4A1.058,1.058,0,0,0,224.476,64.288Zm1.64-5.627,3.662,1.57-3.662,1.57Z" transform="translate(-180.492 -34.709)"/>
        <path id="Path_1160532" data-name="Path 1160532" d="M369.986,96H353.058A1.058,1.058,0,0,0,352,97.058v12.7a1.058,1.058,0,0,0,1.058,1.058h5.29v2.116a1.058,1.058,0,0,0,1.693.846l3.95-2.962h6a1.058,1.058,0,0,0,1.058-1.058v-12.7A1.058,1.058,0,0,0,369.986,96Zm-2.816,2.116-5.648,4.942-5.648-4.942Zm-3.532,10.58a1.058,1.058,0,0,0-.635.212l-2.539,1.9v-1.058a1.058,1.058,0,0,0-1.058-1.058h-5.29V99.39l6.709,5.871a1.058,1.058,0,0,0,1.393,0l6.709-5.871V108.7Z" transform="translate(-291.564 -69.42)"/>
        <path id="Path_1160533" data-name="Path 1160533" d="M88,264h2.116v2.116H88Z" transform="translate(-62.478 -215.202)"/>
        <path id="Path_1160534" data-name="Path 1160534" d="M16,304h2.116v2.116H16Z" transform="translate(0 -249.912)"/>
        <path id="Path_1160535" data-name="Path 1160535" d="M40,48h2.116v2.116H40Z" transform="translate(-20.826 -27.768)"/>
        <path id="Path_1160536" data-name="Path 1160536" d="M120,72h2.116v2.116H120Z" transform="translate(-90.246 -48.594)"/>
        <path id="Path_1160537" data-name="Path 1160537" d="M352,64h2.116v2.116H352Z" transform="translate(-291.564 -41.652)"/>
        <path id="Path_1160538" data-name="Path 1160538" d="M448,32h2.116v2.116H448Z" transform="translate(-374.868 -13.884)"/>
        <path id="Path_1160539" data-name="Path 1160539" d="M408,256h2.116v2.116H408Z" transform="translate(-340.158 -208.26)"/>
        <path id="Path_1160540" data-name="Path 1160540" d="M472,296h2.116v2.116H472Z" transform="translate(-395.694 -242.97)"/>
        <path id="Path_1160541" data-name="Path 1160541" d="M144,16h2.116v2.116H144Z" transform="translate(-111.072)"/>
      </g>
    </g>
  </g>
</svg>
