<svg xmlns="http://www.w3.org/2000/svg" xmlns:xlink="http://www.w3.org/1999/xlink" width="108" height="108" viewBox="0 0 108 108">
  <defs>
    <filter id="Path_904820" x="0" y="0" width="108" height="108" filterUnits="userSpaceOnUse">
      <feOffset dy="3" input="SourceAlpha"/>
      <feGaussianBlur stdDeviation="3" result="blur"/>
      <feFlood flood-opacity="0.161"/>
      <feComposite operator="in" in2="blur"/>
      <feComposite in="SourceGraphic"/>
    </filter>
  </defs>
  <g id="Group_1220126" data-name="Group 1220126" transform="translate(-199.5 -316)">
    <g id="Group_1220060" data-name="Group 1220060">
      <g id="Group_1219744" data-name="Group 1219744" transform="translate(0 -974)">
        <g id="Group_1202418" data-name="Group 1202418" transform="translate(-419.977 876.813)">
          <g id="Group_1177315" data-name="Group 1177315" transform="translate(-0.523 -112.813)">
            <g id="Group_1173585" data-name="Group 1173585" transform="translate(629 532)">
              <g id="Group_1173428" data-name="Group 1173428" transform="translate(0 0)">
                <g id="Group_1171958" data-name="Group 1171958">
                  <g id="Group_1167341" data-name="Group 1167341">
                    <g id="Group_1166792" data-name="Group 1166792">
                      <g transform="matrix(1, 0, 0, 1, -9, -6)" filter="url(#Path_904820)">
                        <g id="Path_904820-2" data-name="Path 904820" transform="translate(9 6)" fill="#fff9ee">
                          <path d="M 44.99999618530273 88.49999237060547 C 39.12687301635742 88.49999237060547 33.43022155761719 87.35006713867188 28.06829643249512 85.08216857910156 C 22.88852119445801 82.89130401611328 18.23629570007324 79.75457763671875 14.24084663391113 75.75914001464844 C 10.24540901184082 71.76369476318359 7.108683586120605 67.11146545410156 4.917821407318115 61.93169403076172 C 2.649921178817749 56.56976699829102 1.499996185302734 50.87311553955078 1.499996185302734 44.99999237060547 C 1.499996185302734 39.12686920166016 2.649921178817749 33.43021774291992 4.917821407318115 28.06829261779785 C 7.108683586120605 22.88851737976074 10.24540901184082 18.23630523681641 14.24084663391113 14.24085521697998 C 18.23629570007324 10.24540519714355 22.88852119445801 7.108692169189453 28.06829643249512 4.917829990386963 C 33.43022155761719 2.649929761886597 39.12687301635742 1.500004887580872 44.99999618530273 1.500004887580872 C 50.87311935424805 1.500004887580872 56.56977081298828 2.649929761886597 61.93169784545898 4.917829990386963 C 67.11147308349609 7.108692169189453 71.76369476318359 10.24540519714355 75.75914764404297 14.24085521697998 C 79.75458526611328 18.23630523681641 82.89131164550781 22.88851737976074 85.08216857910156 28.06829261779785 C 87.35007476806641 33.43021774291992 88.5 39.12686920166016 88.5 44.99999237060547 C 88.5 50.87311553955078 87.35007476806641 56.56976699829102 85.08216857910156 61.93169403076172 C 82.89131164550781 67.11146545410156 79.75458526611328 71.76369476318359 75.75914764404297 75.75914001464844 C 71.76369476318359 79.75457763671875 67.11147308349609 82.89130401611328 61.93169784545898 85.08216857910156 C 56.56977081298828 87.35006713867188 50.87311935424805 88.49999237060547 44.99999618530273 88.49999237060547 Z" stroke="none"/>
                          <path d="M 44.99999618530273 2.999992370605469 C 39.32870864868164 2.999992370605469 33.82865142822266 4.11004638671875 28.65262603759766 6.299331665039062 C 23.65165710449219 8.414566040039062 19.15968322753906 11.44333648681641 15.301513671875 15.30150604248047 C 11.44333648681641 19.15967559814453 8.414566040039062 23.65164947509766 6.299339294433594 28.65262222290039 C 4.110054016113281 33.82864761352539 2.999992370605469 39.32870483398438 2.999992370605469 44.99999237060547 C 2.999992370605469 50.67127990722656 4.110054016113281 56.17132186889648 6.299339294433594 61.34736633300781 C 8.414566040039062 66.34833526611328 11.44333648681641 70.84029388427734 15.301513671875 74.69846343994141 C 19.15968322753906 78.55663299560547 23.65165710449219 81.58540344238281 28.65262603759766 83.70063781738281 C 33.82865142822266 85.88992309570312 39.32870864868164 86.99997711181641 44.99999618530273 86.99997711181641 C 50.67128372192383 86.99997711181641 56.17134094238281 85.88992309570312 61.34736633300781 83.70063781738281 C 66.34834289550781 81.58540344238281 70.84030914306641 78.55663299560547 74.69847869873047 74.69846343994141 C 78.55665588378906 70.84029388427734 81.58542633056641 66.34833526611328 83.70065307617188 61.34736633300781 C 85.88993835449219 56.17132186889648 87 50.67127990722656 87 44.99999237060547 C 87 39.32870483398438 85.88993835449219 33.82864761352539 83.70065307617188 28.65262222290039 C 81.58542633056641 23.65164947509766 78.55665588378906 19.15967559814453 74.69847869873047 15.30150604248047 C 70.84030914306641 11.44333648681641 66.34834289550781 8.414566040039062 61.34736633300781 6.299331665039062 C 56.17134094238281 4.11004638671875 50.67128372192383 2.999992370605469 44.99999618530273 2.999992370605469 M 44.99999618530273 -7.62939453125e-06 C 69.85281372070312 -7.62939453125e-06 90 20.14717864990234 90 44.99999237060547 C 90 69.85279083251953 69.85281372070312 89.99997711181641 44.99999618530273 89.99997711181641 C 20.14717864990234 89.99997711181641 -7.62939453125e-06 69.85279083251953 -7.62939453125e-06 44.99999237060547 C -7.62939453125e-06 20.14717864990234 20.14717864990234 -7.62939453125e-06 44.99999618530273 -7.62939453125e-06 Z" stroke="none" fill="#ffc965"/>
                        </g>
                      </g>
                    </g>
                  </g>
                </g>
              </g>
            </g>
          </g>
        </g>
      </g>
      <g id="cooperacion" transform="translate(222.676 336.171)">
        <g id="Group_1220057" data-name="Group 1220057" transform="translate(0.903 0.907)">
          <g id="Group_1220050" data-name="Group 1220050" transform="translate(0)">
            <circle id="Ellipse_12640" data-name="Ellipse 12640" cx="29.921" cy="29.921" r="29.921" fill="#8993da"/>
            <path id="Path_1160659" data-name="Path 1160659" d="M44.23,66.569a29.921,29.921,0,1,1,0-58.29,29.93,29.93,0,0,0,0,58.29Z" transform="translate(-7.504 -7.503)" fill="#707dd3"/>
          </g>
          <g id="Group_1220056" data-name="Group 1220056" transform="translate(0 17.08)">
            <path id="Path_1160660" data-name="Path 1160660" d="M408.67,149.359h11.539v16.166H408.67Z" transform="translate(-360.365 -149.358)" fill="#365e7d"/>
            <path id="Path_1160661" data-name="Path 1160661" d="M408.67,246.229h11.539v4.5H408.67Z" transform="translate(-360.365 -234.564)" fill="#2b4d66"/>
            <path id="Path_1160662" data-name="Path 1160662" d="M7.5,149.359H20.456v16.166H7.5Z" transform="translate(-7.5 -149.358)" fill="#ffd064"/>
            <path id="Path_1160663" data-name="Path 1160663" d="M7.5,249.821H20.456v4.07H7.5Z" transform="translate(-7.5 -237.724)" fill="#ffc250"/>
            <path id="Path_1160664" data-name="Path 1160664" d="M77.4,169.941a3.457,3.457,0,0,1-3.457-3.457V149.356h6.914v17.128A3.457,3.457,0,0,1,77.4,169.941Z" transform="translate(-65.946 -149.355)" fill="#ffd064"/>
            <path id="Path_1160665" data-name="Path 1160665" d="M370.03,169.941a3.457,3.457,0,0,1-3.457-3.457V149.356h6.914v17.128a3.457,3.457,0,0,1-3.457,3.457Z" transform="translate(-323.337 -149.355)" fill="#365e7d"/>
            <path id="Path_1160666" data-name="Path 1160666" d="M80.863,226.4v7.851a3.457,3.457,0,0,1-6.914,0V226.4a3.457,3.457,0,1,0,6.914,0Z" transform="translate(-65.948 -217.125)" fill="#ffc250"/>
            <path id="Path_1160667" data-name="Path 1160667" d="M373.49,226.4v7.851a3.457,3.457,0,0,1-6.914,0V226.4a3.457,3.457,0,1,0,6.914,0Z" transform="translate(-323.34 -217.125)" fill="#2b4d66"/>
            <g id="Group_1220051" data-name="Group 1220051" transform="translate(12.956)">
              <path id="Path_1160668" data-name="Path 1160668" d="M145.38,149.351v18.07l-3.708,3.707-7.217,7.218a2.592,2.592,0,0,1-3.685-3.647l-1.77,1.77a2.592,2.592,0,0,1-3.68-3.652l-1.261,1.261a2.592,2.592,0,0,1-3.68-3.651l-.854.854a2.592,2.592,0,1,1-3.666-3.666l14.147-14.147-6.183-2.445a5.705,5.705,0,0,1,4.034-1.671H145.38Z" transform="translate(-115.1 -149.351)" fill="#ffece4"/>
            </g>
            <path id="Path_1160669" data-name="Path 1160669" d="M127.009,208.433l1.419,1.5L117.317,221.04a2.59,2.59,0,0,0-.577,2.786,2.593,2.593,0,0,1-.881-4.244Z" transform="translate(-102.144 -201.319)" fill="#ffddce"/>
            <g id="Group_1220052" data-name="Group 1220052" transform="translate(30.466 17.468)">
              <path id="Path_1160670" data-name="Path 1160670" d="M335.077,295.068l.844.844a2.208,2.208,0,1,1-3.122,3.123l-.844-.844a2.208,2.208,0,0,1,3.122-3.123Z" transform="translate(-322.785 -294.421)" fill="#e2a770"/>
              <path id="Path_1160671" data-name="Path 1160671" d="M300.618,312.475l1.87,1.87a2.208,2.208,0,0,1-3.123,3.123l-1.87-1.87a2.208,2.208,0,0,1,3.123-3.123Z" transform="translate(-292.475 -309.732)" fill="#e2a770"/>
              <path id="Path_1160672" data-name="Path 1160672" d="M283.212,346.933l.844.844a2.208,2.208,0,0,1-3.122,3.123l-.844-.844a2.208,2.208,0,0,1,3.122-3.123Z" transform="translate(-277.165 -340.041)" fill="#e2a770"/>
              <path id="Path_1160673" data-name="Path 1160673" d="M264.288,379.875a2.208,2.208,0,1,1-3.123,0A2.208,2.208,0,0,1,264.288,379.875Z" transform="translate(-260.519 -369.017)" fill="#e2a770"/>
            </g>
            <g id="Group_1220053" data-name="Group 1220053" transform="translate(30.466 17.67)">
              <path id="Path_1160674" data-name="Path 1160674" d="M336.367,299.882a2.208,2.208,0,0,1-3.564.632l-.844-.844a2.21,2.21,0,0,1,.634-3.566,2.207,2.207,0,0,0,.443,2.491l.844.843a2.212,2.212,0,0,0,2.488.444Z" transform="translate(-322.788 -296.104)" fill="#d5985c"/>
              <path id="Path_1160675" data-name="Path 1160675" d="M302.933,318.33a2.208,2.208,0,0,1-3.564.632l-1.87-1.87a2.208,2.208,0,0,1,.632-3.564,2.211,2.211,0,0,0,.443,2.489l1.87,1.87a2.211,2.211,0,0,0,2.489.443Z" transform="translate(-292.477 -311.429)" fill="#d5985c"/>
              <path id="Path_1160676" data-name="Path 1160676" d="M284.5,351.746a2.208,2.208,0,0,1-3.564.632l-.844-.843a2.211,2.211,0,0,1,.634-3.567,2.208,2.208,0,0,0,.442,2.491l.844.844a2.21,2.21,0,0,0,2.489.443Z" transform="translate(-277.164 -341.723)" fill="#d5985c"/>
              <path id="Path_1160677" data-name="Path 1160677" d="M264.731,383.844a2.209,2.209,0,1,1-2.931-2.934,2.21,2.21,0,0,0,2.931,2.934Z" transform="translate(-260.518 -370.699)" fill="#d5985c"/>
            </g>
            <path id="Path_1160678" data-name="Path 1160678" d="M151.1,161.732a3.358,3.358,0,0,1-4.749,0l-3.4-3.4-1.864-1.864L131.1,166.45l.01-5.336.022-11.76h10.8a3.706,3.706,0,0,1,2.62,1.086l6.545,6.544A3.359,3.359,0,0,1,151.1,161.732Z" transform="translate(-116.22 -149.354)" fill="#e2a770"/>
            <path id="Path_1160679" data-name="Path 1160679" d="M150.159,196.045a3.349,3.349,0,0,1-2.375-.984l-5.706-5.706a1.626,1.626,0,0,0-2.3,0l-.286.286-4.625,4.625a5.518,5.518,0,0,1-3.756,1.614l-.01,5.336,9.982-9.982,1.864,1.864h0l3.4,3.4a3.363,3.363,0,0,0,5.358-.829,3.36,3.36,0,0,1-1.547.377Z" transform="translate(-116.219 -184.119)" fill="#d5985c"/>
            <g id="Group_1220054" data-name="Group 1220054" transform="translate(17.49 16.337)">
              <path id="Path_1160680" data-name="Path 1160680" d="M158.241,285.027l.233.245a1.77,1.77,0,0,1-.033,2.469l-3.467,3.467a2.59,2.59,0,0,0-.577,2.786,2.593,2.593,0,0,1-.881-4.244Z" transform="translate(-152.757 -285.027)" fill="#ffddce"/>
              <path id="Path_1160681" data-name="Path 1160681" d="M199.271,304.885l.233.245a1.77,1.77,0,0,1-.033,2.469L196,311.066a2.59,2.59,0,0,0-.577,2.786,2.593,2.593,0,0,1-.881-4.244Z" transform="translate(-188.847 -302.494)" fill="#ffddce"/>
              <path id="Path_1160682" data-name="Path 1160682" d="M244.574,320.471l.233.245a1.77,1.77,0,0,1-.033,2.469l-3.467,3.467a2.59,2.59,0,0,0-.577,2.787,2.593,2.593,0,0,1-.881-4.244Z" transform="translate(-228.695 -316.203)" fill="#ffddce"/>
            </g>
            <g id="Group_1220055" data-name="Group 1220055" transform="translate(9.879 2.772)">
              <circle id="Ellipse_12641" data-name="Ellipse 12641" cx="1.578" cy="1.578" r="1.578" transform="translate(35.269)" fill="#f9f6f9"/>
              <circle id="Ellipse_12642" data-name="Ellipse 12642" cx="1.578" cy="1.578" r="1.578" fill="#f9f6f9"/>
            </g>
          </g>
        </g>
        <g id="Group_1220058" data-name="Group 1220058" transform="translate(0 0.005)">
          <path id="Path_1160683" data-name="Path 1160683" d="M377.436,169.84a2.481,2.481,0,1,0-2.481-2.481A2.484,2.484,0,0,0,377.436,169.84Zm0-3.157a.675.675,0,1,1-.675.675A.676.676,0,0,1,377.436,166.683Z" transform="translate(-329.807 -145.025)"/>
          <path id="Path_1160684" data-name="Path 1160684" d="M87.014,167.358a2.481,2.481,0,1,0-2.481,2.481A2.484,2.484,0,0,0,87.014,167.358Zm-3.157,0a.675.675,0,1,1,.675.675A.676.676,0,0,1,83.857,167.358Z" transform="translate(-72.171 -145.025)"/>
          <path id="Path_1160685" data-name="Path 1160685" d="M60.746,33.252H51.955V18.892h8.791a.9.9,0,0,0,0-1.806H58.422a30.832,30.832,0,0,0-55.194,0H.9a.9.9,0,0,0,0,1.806H8v14.36H.9a.9.9,0,0,0-.649,1.53A30.446,30.446,0,0,0,4.6,47.034a.9.9,0,0,0,1.536-.951,28.643,28.643,0,0,1-4.02-11.025H8v.059a4.364,4.364,0,0,0,4.36,4.36c.067,0,.134,0,.2-.006a42.381,42.381,0,0,0,2.046,7.492,30.918,30.918,0,0,0-4.9,3.766q-.82-.872-1.576-1.818a.9.9,0,0,0-1.412,1.126A30.826,30.826,0,0,0,61.4,34.781a.9.9,0,0,0-.65-1.529Zm-1.211,1.806a28.927,28.927,0,0,1-7.592,15.67,30.936,30.936,0,0,0-4.9-3.763,42.487,42.487,0,0,0,2.1-7.772,4.367,4.367,0,0,0,2.817-4.077v-.058ZM19.791,39.688l4.725-4.725a.9.9,0,1,0-1.277-1.277l-5.593,5.593a1.689,1.689,0,0,1-2.389-2.389L25.768,26.379,30.393,31a4.261,4.261,0,1,0,6.027-6.026l-.514-.513a.9.9,0,1,0-1.276,1.279l.513.512a2.455,2.455,0,1,1-3.473,3.471l-5.264-5.264a.9.9,0,0,0-1.264-.013l-.028.029-8.393,8.393V18.892h9.9a2.784,2.784,0,0,1,1.981.82l3.476,3.476a.9.9,0,1,0,1.277-1.277l-3.02-3.02h12.9V34.766a3.109,3.109,0,0,0-4.141,2.1A3.11,3.11,0,0,0,35.059,40.9a3.106,3.106,0,0,0-2.17,3.94A3.113,3.113,0,0,0,30.7,46.694a1.689,1.689,0,0,1-.521-2.728l4.432-4.433a.9.9,0,1,0-1.277-1.277L27.12,44.468a1.689,1.689,0,1,1-2.389-2.389l4.7-4.7a.9.9,0,1,0-1.277-1.277l-5.97,5.97a1.689,1.689,0,0,1-2.389-2.388Zm30.358-4.571a2.554,2.554,0,0,1-5.107,0V18.892h5.107Zm-9.4,7.436a1.306,1.306,0,0,1-1.845,0l-1.87-1.87a1.3,1.3,0,0,1,1.845-1.845l1.87,1.87A1.307,1.307,0,0,1,40.745,42.553ZM38,44.753a1.3,1.3,0,0,1-2.228.923l-.844-.844a1.3,1.3,0,0,1,1.845-1.846l.845.845a1.3,1.3,0,0,1,.382.923Zm-3.123,3.122a1.3,1.3,0,1,1-.383-.924h0a1.3,1.3,0,0,1,.382.922Zm6.3-9.289a1.3,1.3,0,1,1,1.845-1.845h0l.844.844a1.3,1.3,0,1,1-1.845,1.845Zm1.164-21.5a30.435,30.435,0,0,0,3.125-1.466q.265.72.5,1.467Zm-6.618,0h-4V1.851a13.022,13.022,0,0,1,8.239,4.428,26.172,26.172,0,0,1,4.828,7.647,28.761,28.761,0,0,1-9.071,3.159Zm-5.8,0h-3.99a28.757,28.757,0,0,1-9.077-3.16,26.165,26.165,0,0,1,4.828-7.647,13.021,13.021,0,0,1,8.239-4.427Zm-10.612,0H15.679q.24-.746.5-1.466A30.385,30.385,0,0,0,19.31,17.086Zm3.714,28.138a3.533,3.533,0,0,0,.43.521,3.5,3.5,0,0,0,4.557.334,3.5,3.5,0,0,0,1.911,2.249V59.806c-3.464-.3-6.743-2.342-9.534-5.948a28.039,28.039,0,0,1-3.524-6.122,28.842,28.842,0,0,1,6.161-2.512Zm8.7,5.154a3.109,3.109,0,0,0,4.958-2.515H36.7a3.11,3.11,0,0,0,3.008-2.314,28.883,28.883,0,0,1,5.077,2.19,28.031,28.031,0,0,1-3.535,6.134c-2.789,3.6-6.064,5.632-9.522,5.934Zm9.765-6.123a3.1,3.1,0,0,0,1.438-2.637h.013a3.1,3.1,0,0,0,3.039-2.451,4.325,4.325,0,0,0,1.272.3,40.6,40.6,0,0,1-1.8,6.586,30.759,30.759,0,0,0-3.965-1.793Zm6.371-27.168q-.375-1.225-.813-2.387a30.95,30.95,0,0,0,4.9-3.771,29.053,29.053,0,0,1,4.442,6.158ZM46.523,6.42a29.2,29.2,0,0,1,4.142,3.233A29.146,29.146,0,0,1,46.36,13a27.832,27.832,0,0,0-5.077-7.956,19.1,19.1,0,0,0-2.252-2.054A28.857,28.857,0,0,1,46.523,6.42Zm-31.4,0a28.848,28.848,0,0,1,7.492-3.431,19.1,19.1,0,0,0-2.252,2.053A27.819,27.819,0,0,0,15.289,13a29.162,29.162,0,0,1-4.3-3.345A29.2,29.2,0,0,1,15.126,6.42ZM5.262,17.086A29.05,29.05,0,0,1,9.7,10.928,30.947,30.947,0,0,0,14.6,14.7q-.438,1.16-.813,2.386ZM9.807,35.117V18.892h5.108V34.678l-.935.935a3.478,3.478,0,0,0-.987,1.978,2.554,2.554,0,0,1-3.185-2.474Zm4.934,6.015a3.5,3.5,0,0,0,2.789.276,3.5,3.5,0,0,0,2.587,2.861,30.678,30.678,0,0,0-3.925,1.777,39.79,39.79,0,0,1-1.451-4.914ZM10.983,52.007A29.128,29.128,0,0,1,15.3,48.662a29.674,29.674,0,0,0,3.662,6.3,20.64,20.64,0,0,0,3.643,3.7,28.808,28.808,0,0,1-11.62-6.661Zm28.079,6.649a20.643,20.643,0,0,0,3.615-3.676,29.666,29.666,0,0,0,3.674-6.315A29.132,29.132,0,0,1,50.664,52c-.139.13-.278.26-.42.387a28.952,28.952,0,0,1-11.182,6.264Z" transform="translate(0 -0.005)"/>
        </g>
      </g>
    </g>
  </g>
</svg>
