<svg xmlns="http://www.w3.org/2000/svg" xmlns:xlink="http://www.w3.org/1999/xlink" width="113" height="113" viewBox="0 0 113 113">
  <defs>
    <filter id="Path_982547" x="0" y="0" width="113" height="113" filterUnits="userSpaceOnUse">
      <feOffset dy="3" input="SourceAlpha"/>
      <feGaussianBlur stdDeviation="3" result="blur"/>
      <feFlood flood-opacity="0.161"/>
      <feComposite operator="in" in2="blur"/>
      <feComposite in="SourceGraphic"/>
    </filter>
  </defs>
  <g id="Group_1220093" data-name="Group 1220093" transform="translate(-271.425 -942.982)">
    <g id="Group_1220001" data-name="Group 1220001">
      <g id="Group_1219621" data-name="Group 1219621" transform="translate(0 -5515.518)">
        <g id="Group_1203672" data-name="Group 1203672" transform="translate(-0.575 557.5)">
          <g id="Group_1202432" data-name="Group 1202432" transform="translate(0 1255.486)">
            <g id="Group_1202055" data-name="Group 1202055" transform="translate(0 3240.511)">
              <g id="Group_1177900" data-name="Group 1177900" transform="translate(281 1411.003)">
                <g id="Group_1172010" data-name="Group 1172010" transform="translate(0)">
                  <g id="Group_1171046" data-name="Group 1171046">
                    <g id="Group_1148525" data-name="Group 1148525">
                      <g transform="matrix(1, 0, 0, 1, -9, -6)" filter="url(#Path_982547)">
                        <g id="Path_982547-2" data-name="Path 982547" transform="translate(9 6)" fill="#ead9e0">
                          <path d="M 47.5 93.5 C 41.28937149047852 93.5 35.26533508300781 92.28397369384766 29.59518623352051 89.88570404052734 C 24.11771965026855 87.56893157958984 19.19813346862793 84.25196075439453 14.97309303283691 80.02691650390625 C 10.74804019927979 75.80186462402344 7.431066513061523 70.88229370117188 5.114293098449707 65.40481567382812 C 2.716026782989502 59.73468017578125 1.5 53.71062850952148 1.5 47.5 C 1.5 41.28937149047852 2.716026782989502 35.26533508300781 5.114293098449707 29.59518623352051 C 7.431066513061523 24.11771965026855 10.74804019927979 19.19813346862793 14.97309303283691 14.97309303283691 C 19.19813346862793 10.74804019927979 24.11771965026855 7.431066513061523 29.59518623352051 5.114293098449707 C 35.26533508300781 2.716026782989502 41.28937149047852 1.5 47.5 1.5 C 53.71062850952148 1.5 59.73468017578125 2.716026782989502 65.40481567382812 5.114293098449707 C 70.88229370117188 7.431066513061523 75.80186462402344 10.74804019927979 80.02691650390625 14.97309303283691 C 84.25196075439453 19.19813346862793 87.56893157958984 24.11771965026855 89.88570404052734 29.59518623352051 C 92.28397369384766 35.26533508300781 93.5 41.28937149047852 93.5 47.5 C 93.5 53.71062850952148 92.28397369384766 59.73468017578125 89.88570404052734 65.40481567382812 C 87.56893157958984 70.88229370117188 84.25196075439453 75.80186462402344 80.02691650390625 80.02691650390625 C 75.80186462402344 84.25196075439453 70.88229370117188 87.56893157958984 65.40481567382812 89.88570404052734 C 59.73468017578125 92.28397369384766 53.71062850952148 93.5 47.5 93.5 Z" stroke="none"/>
                          <path d="M 47.5 3 C 41.49121475219727 3 35.66376876831055 4.176155090332031 30.17950439453125 6.495796203613281 C 24.88084411621094 8.736953735351562 20.12152099609375 11.94598388671875 16.03375244140625 16.03375244140625 C 11.94598388671875 20.12152099609375 8.736953735351562 24.88084411621094 6.495796203613281 30.17950439453125 C 4.176155090332031 35.66376876831055 3 41.49121475219727 3 47.5 C 3 53.50878524780273 4.176155090332031 59.33623123168945 6.495796203613281 64.82049560546875 C 8.736953735351562 70.11915588378906 11.94598388671875 74.87847900390625 16.03375244140625 78.96624755859375 C 20.12152099609375 83.05401611328125 24.88084411621094 86.26304626464844 30.17950439453125 88.50419616699219 C 35.66376876831055 90.82384490966797 41.49121475219727 92 47.5 92 C 53.50878524780273 92 59.33623123168945 90.82384490966797 64.82049560546875 88.50419616699219 C 70.11915588378906 86.26304626464844 74.87847900390625 83.05401611328125 78.96624755859375 78.96624755859375 C 83.05401611328125 74.87847900390625 86.26304626464844 70.11915588378906 88.50419616699219 64.82049560546875 C 90.82384490966797 59.33623123168945 92 53.50878524780273 92 47.5 C 92 41.49121475219727 90.82384490966797 35.66376876831055 88.50419616699219 30.17950439453125 C 86.26304626464844 24.88084411621094 83.05401611328125 20.12152099609375 78.96624755859375 16.03375244140625 C 74.87847900390625 11.94598388671875 70.11915588378906 8.736953735351562 64.82049560546875 6.495796203613281 C 59.33623123168945 4.176155090332031 53.50878524780273 3 47.5 3 M 47.5 0 C 73.7335205078125 0 95 21.2664794921875 95 47.5 C 95 73.7335205078125 73.7335205078125 95 47.5 95 C 21.2664794921875 95 0 73.7335205078125 0 47.5 C 0 21.2664794921875 21.2664794921875 0 47.5 0 Z" stroke="none" fill="#9b4467"/>
                        </g>
                      </g>
                    </g>
                  </g>
                </g>
              </g>
            </g>
          </g>
        </g>
      </g>
      <g id="mercadeo-en-linea" transform="translate(301.015 966.312)">
        <g id="Group_1219999" data-name="Group 1219999" transform="translate(0.973 0.973)">
          <g id="Group_1219983" data-name="Group 1219983" transform="translate(30.618 1.946)">
            <path id="Path_1160486" data-name="Path 1160486" d="M32.986,3a27.251,27.251,0,0,1,0,54.5c-.175,0-.341,0-.516-.01a3.866,3.866,0,0,0,.516-1.937V43.682a9.732,9.732,0,1,0,0-19.076V4.946A3.883,3.883,0,0,0,32.46,3h.526Z" transform="translate(-32.46 -3)" fill="#4fc1e9"/>
          </g>
          <g id="Group_1219984" data-name="Group 1219984" transform="translate(0 42.823)">
            <path id="Path_1160487" data-name="Path 1160487" d="M32.144,45V56.679a3.866,3.866,0,0,1-.516,1.937h-.01a3.87,3.87,0,0,1-3.367,1.956H4.893A3.892,3.892,0,0,1,1,56.679V45a3.892,3.892,0,0,0,3.893,3.893H28.251A3.892,3.892,0,0,0,32.144,45Z" transform="translate(-1 -45)" fill="#969faa"/>
          </g>
          <g id="Group_1219985" data-name="Group 1219985">
            <path id="Path_1160488" data-name="Path 1160488" d="M32.144,4.893v7.786a3.892,3.892,0,0,0-3.893-3.893H4.893A3.892,3.892,0,0,0,1,12.679V4.893A3.892,3.892,0,0,1,4.893,1H28.251a3.9,3.9,0,0,1,3.893,3.893Z" transform="translate(-1 -1)" fill="#969faa"/>
          </g>
          <g id="Group_1219986" data-name="Group 1219986" transform="translate(0 7.786)">
            <path id="Path_1160489" data-name="Path 1160489" d="M28.251,9H4.893A3.892,3.892,0,0,0,1,12.893V44.037A3.892,3.892,0,0,0,4.893,47.93H28.251a3.892,3.892,0,0,0,3.893-3.893V12.893A3.892,3.892,0,0,0,28.251,9Z" transform="translate(-1 -9)" fill="#69d6f4"/>
          </g>
          <g id="Group_1219987" data-name="Group 1219987" transform="translate(23.358 23.358)">
            <path id="Path_1160490" data-name="Path 1160490" d="M34.732,25a9.734,9.734,0,1,1-8.915,13.625A9.617,9.617,0,0,1,25,34.732,9.722,9.722,0,0,1,34.732,25Z" transform="translate(-25 -25)" fill="#fcd770"/>
          </g>
          <g id="Group_1219988" data-name="Group 1219988" transform="translate(21.411 19.465)">
            <path id="Path_1160491" data-name="Path 1160491" d="M28.839,21v.973a2.913,2.913,0,0,1-.856,2.063,2.762,2.762,0,0,1-1.09.681,2.7,2.7,0,0,1-.973.175A2.916,2.916,0,0,1,23,21.973V21Z" transform="translate(-23 -21)" fill="#ed5565"/>
          </g>
          <g id="Group_1219989" data-name="Group 1219989" transform="translate(19.465 11.679)">
            <path id="Path_1160492" data-name="Path 1160492" d="M24.893,13l3.893,7.786H22.946L21,13Z" transform="translate(-21 -13)" fill="#ef7385"/>
          </g>
          <g id="Group_1219990" data-name="Group 1219990" transform="translate(5.839 20.438)">
            <path id="Path_1160493" data-name="Path 1160493" d="M26.465,24.754v4.058a9.724,9.724,0,0,0-1.946,5.839,9.617,9.617,0,0,0,.818,3.893H18.679V30.759H14.786v7.786H7v-13.8a2.7,2.7,0,0,0,.973.175A2.924,2.924,0,0,0,10.893,22a2.92,2.92,0,0,0,5.839,0,2.92,2.92,0,0,0,5.839,0,2.916,2.916,0,0,0,2.92,2.92,2.7,2.7,0,0,0,.973-.175Z" transform="translate(-7 -22)" fill="#e6e9ed"/>
          </g>
          <g id="Group_1219991" data-name="Group 1219991" transform="translate(15.572 19.465)">
            <path id="Path_1160494" data-name="Path 1160494" d="M22.839,21v.973a2.92,2.92,0,0,1-5.839,0V21Z" transform="translate(-17 -21)" fill="#fcd770"/>
          </g>
          <g id="Group_1219992" data-name="Group 1219992" transform="translate(15.572 11.679)">
            <path id="Path_1160495" data-name="Path 1160495" d="M20.893,13l1.946,7.786H17V13Z" transform="translate(-17 -13)" fill="#ffeaa7"/>
          </g>
          <g id="Group_1219993" data-name="Group 1219993" transform="translate(11.679 50.609)">
            <path id="Path_1160496" data-name="Path 1160496" d="M20.786,53.973V55.92a.976.976,0,0,1-.973.973H13.973A.976.976,0,0,1,13,55.92V53.973A.976.976,0,0,1,13.973,53h5.839A.976.976,0,0,1,20.786,53.973Z" transform="translate(-13 -53)" fill="#e6e9ed"/>
          </g>
          <g id="Group_1219994" data-name="Group 1219994" transform="translate(13.625 29.197)">
            <path id="Path_1160497" data-name="Path 1160497" d="M15,31h3.893v7.786H15Z" transform="translate(-15 -31)" fill="#aab2bd"/>
          </g>
          <g id="Group_1219995" data-name="Group 1219995" transform="translate(9.732 19.465)">
            <path id="Path_1160498" data-name="Path 1160498" d="M16.839,21v.973a2.92,2.92,0,0,1-5.839,0V21Z" transform="translate(-11 -21)" fill="#ed5565"/>
          </g>
          <g id="Group_1219996" data-name="Group 1219996" transform="translate(9.732 11.679)">
            <path id="Path_1160499" data-name="Path 1160499" d="M16.839,13v7.786H11L12.946,13Z" transform="translate(-11 -13)" fill="#ef7385"/>
          </g>
          <g id="Group_1219997" data-name="Group 1219997" transform="translate(3.893 11.679)">
            <path id="Path_1160500" data-name="Path 1160500" d="M12.786,13l-1.946,7.786H5L8.893,13Z" transform="translate(-5 -13)" fill="#ffeaa7"/>
          </g>
          <g id="Group_1219998" data-name="Group 1219998" transform="translate(3.893 19.465)">
            <path id="Path_1160501" data-name="Path 1160501" d="M10.839,21v.973a2.924,2.924,0,0,1-2.92,2.92,2.7,2.7,0,0,1-.973-.175A2.888,2.888,0,0,1,5,21.973V21Z" transform="translate(-5 -21)" fill="#fcd770"/>
          </g>
        </g>
        <g id="Group_1220000" data-name="Group 1220000" transform="translate(0)">
          <path id="Path_1160502" data-name="Path 1160502" d="M19.786,52H13.946A1.948,1.948,0,0,0,12,53.946v1.946a1.948,1.948,0,0,0,1.946,1.946h5.839a1.948,1.948,0,0,0,1.946-1.946V53.946A1.948,1.948,0,0,0,19.786,52Zm-5.839,3.893V53.946h5.839l0,1.946Z" transform="translate(-0.321 -1.391)"/>
          <path id="Path_1160503" data-name="Path 1160503" d="M12,4h5.839V5.946H12Z" transform="translate(-0.321 -0.107)"/>
          <path id="Path_1160504" data-name="Path 1160504" d="M20,4h1.946V5.946H20Z" transform="translate(-0.535 -0.107)"/>
          <path id="Path_1160505" data-name="Path 1160505" d="M8,44H9.946v1.946H8Z" transform="translate(-0.214 -1.177)"/>
          <path id="Path_1160506" data-name="Path 1160506" d="M12,44h1.946v1.946H12Z" transform="translate(-0.321 -1.177)"/>
          <path id="Path_1160507" data-name="Path 1160507" d="M16,44h1.946v1.946H16Z" transform="translate(-0.428 -1.177)"/>
          <path id="Path_1160508" data-name="Path 1160508" d="M20,44h1.946v1.946H20Z" transform="translate(-0.535 -1.177)"/>
          <path id="Path_1160509" data-name="Path 1160509" d="M24,44h1.946v1.946H24Z" transform="translate(-0.642 -1.177)"/>
          <path id="Path_1160510" data-name="Path 1160510" d="M33.946,39.5v2.126h1.946V39.679h1.946v-2.92a2.923,2.923,0,0,0-2.92-2.92.974.974,0,0,1-.973-.973v-.973h.973a.974.974,0,0,1,.973.973v.973h1.946v-.973a2.916,2.916,0,0,0-1.946-2.741V28H33.946v1.946H32v2.92a2.923,2.923,0,0,0,2.92,2.92.974.974,0,0,1,.973.973v.973H34.92a.974.974,0,0,1-.973-.973v-.973H32v.973A2.916,2.916,0,0,0,33.946,39.5Z" transform="translate(-0.856 -0.749)"/>
          <path id="Path_1160511" data-name="Path 1160511" d="M32.117,1.946h-.024A4.847,4.847,0,0,0,28.224,0H4.866A4.872,4.872,0,0,0,0,4.866V55.475a4.872,4.872,0,0,0,4.866,4.866H28.224a4.847,4.847,0,0,0,3.869-1.946h.024a28.224,28.224,0,0,0,0-56.448ZM23.773,36.983H19.465V29.2H13.625v7.786H7.786V25.3a3.867,3.867,0,0,0,2.92-1.345,3.842,3.842,0,0,0,5.839,0,3.842,3.842,0,0,0,5.839,0A3.867,3.867,0,0,0,25.3,25.3v2.623a10.6,10.6,0,0,0-1.532,9.056Zm-6.254,0H15.572V31.144h1.946ZM25.3,23.358a1.948,1.948,0,0,1-1.946-1.946h3.893A1.948,1.948,0,0,1,25.3,23.358Zm-2.161-3.893-1.46-5.839H23.73l2.92,5.839Zm-3.465-5.839,1.46,5.839h-3.62V13.625Zm1.732,7.786a1.946,1.946,0,0,1-3.893,0Zm-5.839-1.946h-3.62l1.46-5.839h2.161Zm0,1.946a1.946,1.946,0,0,1-3.893,0ZM9.947,19.465H6.441l2.92-5.839h2.046Zm-.214,1.946a1.946,1.946,0,0,1-3.893,0ZM34.064,25.3A8.759,8.759,0,1,1,25.3,34.064,8.769,8.769,0,0,1,34.064,25.3Zm-.989-20.6A34.667,34.667,0,0,1,41.7,13.625H33.09V4.866c0-.054-.015-.1-.016-.158Zm.016,10.863h9.8A29.338,29.338,0,0,1,46.69,29.2h-3.1a10.709,10.709,0,0,0-9.524-5.839c-.329,0-.652.02-.973.05V15.572Zm0,39.9V48.662h7.215a34.868,34.868,0,0,1-7.231,6.97C33.076,55.579,33.09,55.529,33.09,55.475Zm0-8.759v-2c.321.029.644.05.973.05A10.679,10.679,0,0,0,44.355,31.144h2.336A29.523,29.523,0,0,1,41.7,46.716ZM48.637,31.144h9.733a26.15,26.15,0,0,1-5.857,15.572H44A31.293,31.293,0,0,0,48.637,31.144Zm0-1.946A31.183,31.183,0,0,0,45.1,15.572h8.852A26.107,26.107,0,0,1,58.371,29.2Zm3.875-15.572H44a36.631,36.631,0,0,0-8.477-9.5,26.268,26.268,0,0,1,16.989,9.5ZM4.866,1.946H28.224a2.923,2.923,0,0,1,2.92,2.92V8.785a4.816,4.816,0,0,0-2.92-1H4.866a4.816,4.816,0,0,0-2.92,1V4.866A2.923,2.923,0,0,1,4.866,1.946ZM1.946,12.652a2.923,2.923,0,0,1,2.92-2.92H28.224a2.923,2.923,0,0,1,2.92,2.92v11.12a10.687,10.687,0,0,0-3.893,2.039V24.762A3.88,3.88,0,0,0,29.2,21.411v-1.2l-4.265-8.529H8.158l-4.265,8.53v1.2a3.88,3.88,0,0,0,1.946,3.352V38.93h18.7a10.741,10.741,0,0,0,6.549,5.41,2.921,2.921,0,0,1-2.864,2.376H4.866a2.923,2.923,0,0,1-2.92-2.92ZM28.224,58.395H4.866a2.923,2.923,0,0,1-2.92-2.92V47.664a4.816,4.816,0,0,0,2.92,1H28.224a4.816,4.816,0,0,0,2.92-1v7.811A2.923,2.923,0,0,1,28.224,58.395Zm7.3-2.174a37.038,37.038,0,0,0,7.2-7.558h8.047A26.22,26.22,0,0,1,35.524,56.221Z" transform="translate(0)"/>
        </g>
      </g>
    </g>
  </g>
</svg>
