<svg xmlns="http://www.w3.org/2000/svg" xmlns:xlink="http://www.w3.org/1999/xlink" width="113" height="113" viewBox="0 0 113 113">
  <defs>
    <filter id="Path_982547" x="0" y="0" width="113" height="113" filterUnits="userSpaceOnUse">
      <feOffset dy="3" input="SourceAlpha"/>
      <feGaussianBlur stdDeviation="3" result="blur"/>
      <feFlood flood-opacity="0.161"/>
      <feComposite operator="in" in2="blur"/>
      <feComposite in="SourceGraphic"/>
    </filter>
  </defs>
  <g id="Group_1220096" data-name="Group 1220096" transform="translate(-1216 -942.982)">
    <g id="Group_1220037" data-name="Group 1220037">
      <g id="Group_1219642" data-name="Group 1219642" transform="translate(0.575 -5515.518)">
        <g id="Group_1203675" data-name="Group 1203675" transform="translate(-0.575 557.5)">
          <g id="Group_1202435" data-name="Group 1202435" transform="translate(-0.56 1255.486)">
            <g id="Group_1202052" data-name="Group 1202052" transform="translate(1225.561 4651.514)">
              <g id="Group_1172010" data-name="Group 1172010" transform="translate(0)">
                <g id="Group_1171046" data-name="Group 1171046">
                  <g id="Group_1148525" data-name="Group 1148525">
                    <g transform="matrix(1, 0, 0, 1, -9, -6)" filter="url(#Path_982547)">
                      <g id="Path_982547-2" data-name="Path 982547" transform="translate(9 6)" fill="#ead9e0">
                        <path d="M 47.5 93.5 C 41.28937149047852 93.5 35.26533508300781 92.28397369384766 29.59518623352051 89.88570404052734 C 24.11771965026855 87.56893157958984 19.19813346862793 84.25196075439453 14.97309303283691 80.02691650390625 C 10.74804019927979 75.80186462402344 7.431066513061523 70.88229370117188 5.114293098449707 65.40481567382812 C 2.716026782989502 59.73468017578125 1.5 53.71062850952148 1.5 47.5 C 1.5 41.28937149047852 2.716026782989502 35.26533508300781 5.114293098449707 29.59518623352051 C 7.431066513061523 24.11771965026855 10.74804019927979 19.19813346862793 14.97309303283691 14.97309303283691 C 19.19813346862793 10.74804019927979 24.11771965026855 7.431066513061523 29.59518623352051 5.114293098449707 C 35.26533508300781 2.716026782989502 41.28937149047852 1.5 47.5 1.5 C 53.71062850952148 1.5 59.73468017578125 2.716026782989502 65.40481567382812 5.114293098449707 C 70.88229370117188 7.431066513061523 75.80186462402344 10.74804019927979 80.02691650390625 14.97309303283691 C 84.25196075439453 19.19813346862793 87.56893157958984 24.11771965026855 89.88570404052734 29.59518623352051 C 92.28397369384766 35.26533508300781 93.5 41.28937149047852 93.5 47.5 C 93.5 53.71062850952148 92.28397369384766 59.73468017578125 89.88570404052734 65.40481567382812 C 87.56893157958984 70.88229370117188 84.25196075439453 75.80186462402344 80.02691650390625 80.02691650390625 C 75.80186462402344 84.25196075439453 70.88229370117188 87.56893157958984 65.40481567382812 89.88570404052734 C 59.73468017578125 92.28397369384766 53.71062850952148 93.5 47.5 93.5 Z" stroke="none"/>
                        <path d="M 47.5 3 C 41.49121475219727 3 35.66376876831055 4.176155090332031 30.17950439453125 6.495796203613281 C 24.88084411621094 8.736953735351562 20.12152099609375 11.94598388671875 16.03375244140625 16.03375244140625 C 11.94598388671875 20.12152099609375 8.736953735351562 24.88084411621094 6.495796203613281 30.17950439453125 C 4.176155090332031 35.66376876831055 3 41.49121475219727 3 47.5 C 3 53.50878524780273 4.176155090332031 59.33623123168945 6.495796203613281 64.82049560546875 C 8.736953735351562 70.11915588378906 11.94598388671875 74.87847900390625 16.03375244140625 78.96624755859375 C 20.12152099609375 83.05401611328125 24.88084411621094 86.26304626464844 30.17950439453125 88.50419616699219 C 35.66376876831055 90.82384490966797 41.49121475219727 92 47.5 92 C 53.50878524780273 92 59.33623123168945 90.82384490966797 64.82049560546875 88.50419616699219 C 70.11915588378906 86.26304626464844 74.87847900390625 83.05401611328125 78.96624755859375 78.96624755859375 C 83.05401611328125 74.87847900390625 86.26304626464844 70.11915588378906 88.50419616699219 64.82049560546875 C 90.82384490966797 59.33623123168945 92 53.50878524780273 92 47.5 C 92 41.49121475219727 90.82384490966797 35.66376876831055 88.50419616699219 30.17950439453125 C 86.26304626464844 24.88084411621094 83.05401611328125 20.12152099609375 78.96624755859375 16.03375244140625 C 74.87847900390625 11.94598388671875 70.11915588378906 8.736953735351562 64.82049560546875 6.495796203613281 C 59.33623123168945 4.176155090332031 53.50878524780273 3 47.5 3 M 47.5 0 C 73.7335205078125 0 95 21.2664794921875 95 47.5 C 95 73.7335205078125 73.7335205078125 95 47.5 95 C 21.2664794921875 95 0 73.7335205078125 0 47.5 C 0 21.2664794921875 21.2664794921875 0 47.5 0 Z" stroke="none" fill="#9b4467"/>
                      </g>
                    </g>
                  </g>
                </g>
              </g>
            </g>
          </g>
        </g>
      </g>
      <g id="publico-objetivo" transform="translate(1240.157 961)">
        <g id="Group_1220035" data-name="Group 1220035" transform="translate(1.043 1.043)">
          <g id="Group_1220011" data-name="Group 1220011" transform="translate(41.232 52.166)">
            <path id="Path_1160573" data-name="Path 1160573" d="M59.571,59.639l.23,1.795H43.107l-.24-.981a13.191,13.191,0,0,0-2.347-4.831l.01-.01A10.461,10.461,0,0,1,46.237,51l.543,2.149a2.666,2.666,0,0,0,5.175,0L52.5,51a10.442,10.442,0,0,1,7.074,8.639Z" transform="translate(-40.52 -51)" fill="#ef7385"/>
          </g>
          <g id="Group_1220012" data-name="Group 1220012" transform="translate(2.087 52.969)">
            <path id="Path_1160574" data-name="Path 1160574" d="M22.281,55.589a13.191,13.191,0,0,0-2.347,4.831l-.24.981H3l.23-1.795a10.447,10.447,0,0,1,2.285-5.342A10.556,10.556,0,0,1,8.488,51.77L10.3,57.227l3.13-2.087,3.13,2.087,1.815-5.457A10.388,10.388,0,0,1,22.281,55.589Z" transform="translate(-3 -51.77)" fill="#fcd770"/>
          </g>
          <g id="Group_1220013" data-name="Group 1220013" transform="translate(7.574 52.166)">
            <path id="Path_1160575" data-name="Path 1160575" d="M18.151,51.8,16.335,57.26l-3.13-2.087-3.13,2.087L8.26,51.8a10.107,10.107,0,0,1,1.815-.8l3.13,3.13L16.335,51A10.107,10.107,0,0,1,18.151,51.8Z" transform="translate(-8.26 -51)" fill="#fcd770"/>
          </g>
          <g id="Group_1220014" data-name="Group 1220014" transform="translate(18.78 52.865)">
            <path id="Path_1160576" data-name="Path 1160576" d="M43.8,60.423l.24.981H19l.24-.981a13.191,13.191,0,0,1,2.347-4.831,12.061,12.061,0,0,1,.96-1.116,13.074,13.074,0,0,1,3.985-2.807l1.857,5.561,3.13-2.087,3.13,2.087,1.857-5.561a13.012,13.012,0,0,1,4.945,3.923A13.191,13.191,0,0,1,43.8,60.423Z" transform="translate(-19 -51.67)" fill="#e6e9ed"/>
          </g>
          <g id="Group_1220015" data-name="Group 1220015" transform="translate(26.312 52.166)">
            <path id="Path_1160577" data-name="Path 1160577" d="M36.194,51.7,34.337,57.26l-3.13-2.087-3.13,2.087L26.22,51.7a12.371,12.371,0,0,1,1.857-.7l3.13,3.13L34.337,51A12.372,12.372,0,0,1,36.194,51.7Z" transform="translate(-26.22 -51)" fill="#ef7385"/>
          </g>
          <g id="Group_1220016" data-name="Group 1220016" transform="translate(46.949 49.745)">
            <path id="Path_1160578" data-name="Path 1160578" d="M51.457,48.69l.8,2.41-.543,2.149a2.666,2.666,0,0,1-5.175,0L46,51.1l.8-2.41v-.01a8.274,8.274,0,0,0,4.653,0Z" transform="translate(-46 -48.68)" fill="#f5e0cd"/>
          </g>
          <g id="Group_1220017" data-name="Group 1220017" transform="translate(28.17 49.745)">
            <path id="Path_1160579" data-name="Path 1160579" d="M33.457,48.69l.8,2.41-3.13,3.13L28,51.1l.8-2.41v-.01a8.274,8.274,0,0,0,4.653,0Z" transform="translate(-28 -48.68)" fill="#f5e0cd"/>
          </g>
          <g id="Group_1220018" data-name="Group 1220018" transform="translate(9.39 49.745)">
            <path id="Path_1160580" data-name="Path 1160580" d="M15.457,48.69l.8,2.41-3.13,3.13L10,51.1l.8-2.41v-.01a8.274,8.274,0,0,0,4.653,0Z" transform="translate(-10 -48.68)" fill="#f5e0cd"/>
          </g>
          <g id="Group_1220019" data-name="Group 1220019" transform="translate(41.733 31.3)">
            <path id="Path_1160581" data-name="Path 1160581" d="M57.693,35.58v5.853a8.337,8.337,0,0,1-6.02,8.013,8.274,8.274,0,0,1-4.653,0A8.343,8.343,0,0,1,41.261,43.5a2,2,0,0,0,1.21-.595,2.04,2.04,0,0,0,.616-1.471A2.093,2.093,0,0,0,41,39.347l.24-.365a10.966,10.966,0,0,0,1.815-5.29L49.347,31l6.99,2.619a2.1,2.1,0,0,1,1.356,1.961Z" transform="translate(-41 -31)" fill="#f5e0cd"/>
          </g>
          <g id="Group_1220020" data-name="Group 1220020" transform="translate(39.385 39.646)">
            <path id="Path_1160582" data-name="Path 1160582" d="M41.1,39a2.093,2.093,0,0,1,2.087,2.087,2.04,2.04,0,0,1-.616,1.471,2,2,0,0,1-1.21.595,2.033,2.033,0,0,1-.261.021H38.75a8.6,8.6,0,0,0,.261-2.087V39Z" transform="translate(-38.75 -39)" fill="#f5e0cd"/>
          </g>
          <g id="Group_1220021" data-name="Group 1220021" transform="translate(22.953 33.386)">
            <path id="Path_1160583" data-name="Path 1160583" d="M39.693,39.26v2.087a8.6,8.6,0,0,1-.261,2.087,8.376,8.376,0,0,1-5.759,5.926,8.274,8.274,0,0,1-4.653,0,8.352,8.352,0,0,1-3.579-2.108,8.473,8.473,0,0,1-2.181-3.819A8.6,8.6,0,0,1,23,41.347V37.424a4.426,4.426,0,0,1,7.554-3.13l.793.793.793-.793a4.424,4.424,0,0,1,7.554,3.13Z" transform="translate(-23 -33)" fill="#f5e0cd"/>
          </g>
          <g id="Group_1220022" data-name="Group 1220022" transform="translate(18.78 39.646)">
            <path id="Path_1160584" data-name="Path 1160584" d="M23.434,43.173H21.087a2.032,2.032,0,0,1-.261-.021,2,2,0,0,1-1.21-.595A2.04,2.04,0,0,1,19,41.087,2.093,2.093,0,0,1,21.087,39h2.087v2.087A8.6,8.6,0,0,0,23.434,43.173Z" transform="translate(-19 -39)" fill="#f5e0cd"/>
          </g>
          <g id="Group_1220023" data-name="Group 1220023" transform="translate(4.173 33.386)">
            <path id="Path_1160585" data-name="Path 1160585" d="M21.453,38.895l.24.365a2.093,2.093,0,0,0-2.087,2.087,2.04,2.04,0,0,0,.616,1.471,2,2,0,0,0,1.21.595,8.348,8.348,0,0,1-5.759,5.947,8.274,8.274,0,0,1-4.653,0,8.352,8.352,0,0,1-3.579-2.108,8.473,8.473,0,0,1-2.181-3.819A8.6,8.6,0,0,1,5,41.347V37.789a4.809,4.809,0,0,1,5.644-4.716l9.139,1.669a11.055,11.055,0,0,0,1.669,4.152Z" transform="translate(-5 -33)" fill="#f5e0cd"/>
          </g>
          <g id="Group_1220024" data-name="Group 1220024" transform="translate(0 39.646)">
            <path id="Path_1160586" data-name="Path 1160586" d="M5.434,43.173H3.087a2.04,2.04,0,0,1-1.471-.616A2.04,2.04,0,0,1,1,41.087,2.093,2.093,0,0,1,3.087,39H5.173v2.087A8.6,8.6,0,0,0,5.434,43.173Z" transform="translate(-1 -39)" fill="#f5e0cd"/>
          </g>
          <g id="Group_1220025" data-name="Group 1220025" transform="translate(50.079 23.996)">
            <path id="Path_1160587" data-name="Path 1160587" d="M61.52,35.476V47.13a10.742,10.742,0,0,1-4.361,8.639,10.428,10.428,0,0,0-5.029-3.6l-.8-2.41v-.01a8.337,8.337,0,0,0,6.02-8.013V35.883a2.1,2.1,0,0,0-1.356-1.961L49,31.3V24.052A8.626,8.626,0,0,1,50.043,24,11.47,11.47,0,0,1,61.52,35.476Z" transform="translate(-49 -24)" fill="#d3a06c"/>
          </g>
          <g id="Group_1220026" data-name="Group 1220026" transform="translate(42.588 24.048)">
            <path id="Path_1160588" data-name="Path 1160588" d="M49.311,24.05V31.3L43.02,33.993c.021-.271.031-.532.031-.8a12.262,12.262,0,0,0-1.231-5.384,11.35,11.35,0,0,1,2.921-2.337A11.217,11.217,0,0,1,49.311,24.05Z" transform="translate(-41.82 -24.05)" fill="#d3a06c"/>
          </g>
          <g id="Group_1220027" data-name="Group 1220027" transform="translate(0 22.953)">
            <path id="Path_1160589" data-name="Path 1160589" d="M7.281,25.087a2.374,2.374,0,0,1-.021-.271A1.817,1.817,0,0,1,9.075,23a21.652,21.652,0,0,1,8.6,1.784,22.459,22.459,0,0,1,3.37,1.836l.469.313a12.291,12.291,0,0,0-1.732,6.3,10.916,10.916,0,0,0,.177,1.941l-9.139-1.669a4.809,4.809,0,0,0-5.644,4.716v1.471H3.087L1.835,37.815a4.98,4.98,0,0,1,1.388-6.907L4.13,30.3,1.668,28.665a1.511,1.511,0,0,1,.595-2.744l5-.835Z" transform="translate(-1 -23)" fill="#d3a06c"/>
          </g>
          <g id="Group_1220028" data-name="Group 1220028" transform="translate(14.606)">
            <path id="Path_1160590" data-name="Path 1160590" d="M48.386,17.693A16.668,16.668,0,0,1,45.9,26.467,11.35,11.35,0,0,0,42.982,28.8,12.023,12.023,0,0,0,41.9,26.979l-.762-1.064a12.52,12.52,0,1,0-18.884,0l-.762,1.064a10.334,10.334,0,0,0-.584.908l-.469-.313a22.459,22.459,0,0,0-3.37-1.836,16.693,16.693,0,1,1,31.32-8.044Z" transform="translate(-15 -1)" fill="#e6e9ed"/>
          </g>
          <g id="Group_1220029" data-name="Group 1220029" transform="translate(22.953 8.347)">
            <path id="Path_1160591" data-name="Path 1160591" d="M39.693,17.347a8.35,8.35,0,0,1-5.571,7.877l-2.775-3.7a4.173,4.173,0,1,0-4.173-4.173,4.172,4.172,0,0,0,4.173,4.173l-2.775,3.7a8.349,8.349,0,1,1,11.122-7.877Z" transform="translate(-23 -9)" fill="#e6e9ed"/>
          </g>
          <g id="Group_1220030" data-name="Group 1220030" transform="translate(18.78 4.173)">
            <path id="Path_1160592" data-name="Path 1160592" d="M44.04,17.52a12.452,12.452,0,0,1-3.078,8.221l-2.139-3-4.173,3.13L34.3,25.4a8.347,8.347,0,1,0-5.55,0l-.355.469-4.173-3.13-2.139,3A12.52,12.52,0,1,1,44.04,17.52Z" transform="translate(-19 -5)" fill="#ef7385"/>
          </g>
          <g id="Group_1220031" data-name="Group 1220031" transform="translate(46.949 41.733)">
            <path id="Path_1160593" data-name="Path 1160593" d="M52.26,41l-.532,2.149a2.679,2.679,0,0,1-5.2,0L46,41Z" transform="translate(-46 -41)" fill="#ef7385"/>
          </g>
          <g id="Group_1220032" data-name="Group 1220032" transform="translate(18.78 20.866)">
            <path id="Path_1160594" data-name="Path 1160594" d="M28.745,24.7,31.52,21,34.3,24.7l.355.469,4.173-3.13,2.139,3,.762,1.064a12.023,12.023,0,0,1,1.085,1.826,12.262,12.262,0,0,1,1.231,5.384c0,.271-.01.532-.031.8a10.966,10.966,0,0,1-1.815,5.29l-.24.365H39.866V37.943a4.426,4.426,0,0,0-7.554-3.13l-.793.793-.793-.793a4.426,4.426,0,0,0-7.554,3.13V39.78H21.087l-.24-.365a11.055,11.055,0,0,1-1.669-4.152A10.916,10.916,0,0,1,19,33.322a12.291,12.291,0,0,1,1.732-6.3,10.335,10.335,0,0,1,.584-.908l.762-1.064,2.139-3,4.173,3.13Z" transform="translate(-19 -21)" fill="#fcd770"/>
          </g>
          <g id="Group_1220033" data-name="Group 1220033" transform="translate(27.126 12.52)">
            <ellipse id="Ellipse_12634" data-name="Ellipse 12634" cx="4.5" cy="4" rx="4.5" ry="4" transform="translate(-0.17 0.437)" fill="#ef7385"/>
          </g>
          <g id="Group_1220034" data-name="Group 1220034" transform="translate(9.39 41.733)">
            <path id="Path_1160595" data-name="Path 1160595" d="M16.26,41l-.532,2.149a2.679,2.679,0,0,1-5.2,0L10,41Z" transform="translate(-10 -41)" fill="#ef7385"/>
          </g>
        </g>
        <g id="Group_1220036" data-name="Group 1220036" transform="translate(0)">
          <circle id="Ellipse_12635" data-name="Ellipse 12635" cx="1" cy="1" r="1" transform="translate(27 40)"/>
          <ellipse id="Ellipse_12636" data-name="Ellipse 12636" cx="1.5" cy="1" rx="1.5" ry="1" transform="translate(35 40)"/>
          <circle id="Ellipse_12637" data-name="Ellipse 12637" cx="1" cy="1" r="1" transform="translate(8 38)"/>
          <circle id="Ellipse_12638" data-name="Ellipse 12638" cx="1" cy="1" r="1" transform="translate(17 38)"/>
          <path id="Path_1160596" data-name="Path 1160596" d="M33.255,42.773a2.333,2.333,0,0,1-4.173,0l-.11-.22-1.866.934.11.22a4.42,4.42,0,0,0,7.906,0l.11-.22-1.866-.934Z" transform="translate(1.174 1.843)"/>
          <path id="Path_1160597" data-name="Path 1160597" d="M45.581,43.445a3.715,3.715,0,0,0,7.209,0L53.651,40H44.72Zm5.4-1.358-.213.852a1.631,1.631,0,0,1-3.163,0l-.213-.852Z" transform="translate(1.937 1.733)"/>
          <path id="Path_1160598" data-name="Path 1160598" d="M16.79,43.445,17.651,40H8.72l.861,3.445a3.715,3.715,0,0,0,7.209,0ZM11.6,42.939l-.213-.852h3.588l-.213.852a1.63,1.63,0,0,1-3.162,0Z" transform="translate(0.378 1.733)"/>
          <path id="Path_1160599" data-name="Path 1160599" d="M52.729,38.117a4.574,4.574,0,0,0,3.256-1.349L54.51,35.293a2.5,2.5,0,0,1-1.781.738h-.179a2.5,2.5,0,0,1-1.781-.738l-1.475,1.475a4.574,4.574,0,0,0,3.256,1.349Z" transform="translate(2.135 1.529)"/>
          <path id="Path_1160600" data-name="Path 1160600" d="M64.686,48.169V36.516a12.466,12.466,0,0,0-15.95-12.023,17.737,17.737,0,1,0-33-.553,22.615,22.615,0,0,0-6.612-.987,2.864,2.864,0,0,0-2.788,2.234l-4.2.7a2.553,2.553,0,0,0-1,4.643l1.172.78a6.022,6.022,0,0,0-1.3,8.083l.484.726A3.122,3.122,0,0,0,3.13,45.906H4.721a9.432,9.432,0,0,0,5.205,5.526L9.6,52.4A11.572,11.572,0,0,0,2.32,61.714l-.372,2.971h60.79l-.371-2.972a11.451,11.451,0,0,0-1.707-4.695,11.829,11.829,0,0,0,4.026-8.849ZM53.166,53.252,52.7,55.107a1.629,1.629,0,0,1-3.16,0l-.464-1.853.41-1.23a9.109,9.109,0,0,0,3.267-.007ZM12.551,56.8l-1.561,1.04L9.9,54.559c.1-.043.194-.081.291-.121Zm4.4-2.378c.095.039.19.076.284.118l-1.1,3.3L14.575,56.8Zm.57-2.025L17.2,51.43a9.37,9.37,0,0,0,5.218-5.524H23.5a9.435,9.435,0,0,0,5.205,5.526l-.313.938A14.2,14.2,0,0,0,22.5,56.129a11.488,11.488,0,0,0-4.979-3.73Zm11.419,2.014L31.331,56.8l-1.561,1.04-1.11-3.329c.094-.033.187-.068.282-.1Zm6.8,0c.095.032.188.067.281.1l-1.11,3.329L33.354,56.8Zm-1.465-1.486-1.936,1.936-1.936-1.936.3-.913a8.876,8.876,0,0,0,3.263,0Zm-1.936-2.848a7.313,7.313,0,0,1-7.3-7.3V38.855a3.383,3.383,0,0,1,5.775-2.392l1.528,1.528,1.528-1.528a3.383,3.383,0,0,1,5.775,2.392v3.921A7.313,7.313,0,0,1,32.343,50.079Zm3.921-16.693a5.434,5.434,0,0,0-3.868,1.6l-.053.053-.053-.053a5.47,5.47,0,0,0-9.337,3.868v.791h-.475a9.907,9.907,0,0,1-1.612-5.412,11.3,11.3,0,0,1,2.117-6.607l2.284-3.2,3.32,2.488a1.04,1.04,0,0,0,1.46-.209l2.3-3.06,2.3,3.06a1.043,1.043,0,0,0,1.46.209l3.32-2.489,2.284,3.2a11.294,11.294,0,0,1,2.119,6.608,9.913,9.913,0,0,1-1.612,5.413h-.475v-.791a5.476,5.476,0,0,0-5.469-5.47ZM21.91,43.819a1.043,1.043,0,0,1,0-2.087h1.043v1.043a9.322,9.322,0,0,0,.062,1.043ZM35.468,24.337l-1.3-1.732a5.217,5.217,0,1,0-3.652,0l-1.3,1.732a7.3,7.3,0,1,1,6.249,0Zm-3.125-3.471a3.13,3.13,0,1,1,3.13-3.13A3.134,3.134,0,0,1,32.343,20.866Zm9.39,21.91V41.733h1.043a1.043,1.043,0,0,1,0,2.087h-1.1A9.322,9.322,0,0,0,41.733,42.776ZM40.5,22.355a9.39,9.39,0,1,0-16.315,0L22.871,24.2a11.477,11.477,0,1,1,18.945,0ZM26.755,55.394l1.9,5.7,3.687-2.458,3.687,2.458,1.9-5.7A12.129,12.129,0,0,1,43.5,62.6H21.181a12.132,12.132,0,0,1,5.573-7.205Zm15.43.736a14.205,14.205,0,0,0-5.892-3.76l-.313-.938A9.432,9.432,0,0,0,41.185,45.9h1.084a9.376,9.376,0,0,0,5.218,5.524l-.323.969a11.516,11.516,0,0,0-4.979,3.731Zm8.938-6.05a7.282,7.282,0,0,1-6.772-4.614,3.1,3.1,0,0,0,.026-5.365,12.108,12.108,0,0,0,.565-1.165,4.558,4.558,0,0,0,2.439.71h.179A4.574,4.574,0,0,0,50.817,38.3l-1.475-1.475a2.5,2.5,0,0,1-1.781.738h-.179a2.5,2.5,0,0,1-1.76-.721c.079-.357.137-.718.183-1.081l5.345-2.29,6.6,2.476a1.047,1.047,0,0,1,.676.976v5.857a7.313,7.313,0,0,1-7.3,7.3ZM50.079,31.655l-4.2,1.8a13.361,13.361,0,0,0-1-4.387,10.422,10.422,0,0,1,5.2-2.769ZM16.693,17.736A15.65,15.65,0,1,1,45.78,25.75a12.447,12.447,0,0,0-1.9,1.4c-.153-.247-.311-.492-.482-.731L43.1,26a13.563,13.563,0,1,0-21.515,0l-.3.418c-.018.024-.032.05-.049.075a22.569,22.569,0,0,0-2.757-1.5,15.669,15.669,0,0,1-1.787-7.253ZM3.13,43.819a1.043,1.043,0,1,1,0-2.087H4.173v1.043a9.322,9.322,0,0,0,.062,1.043Zm1.043-4.6v.431H3.688l-.94-1.412A3.935,3.935,0,0,1,3.84,32.776L6.054,31.3l-3.76-2.506a.466.466,0,0,1,.182-.847l4.177-.7a2.852,2.852,0,0,0,1.564,1.281l1.886.629.66-1.978-1.886-.629a.776.776,0,0,1,.244-1.513A20.45,20.45,0,0,1,20.169,28.28a13.371,13.371,0,0,0-1.39,5.954c0,.22.013.439.024.658l-7.757-1.411a5.637,5.637,0,0,0-1.044-.1,5.835,5.835,0,0,0-5.829,5.829ZM6.26,42.776V39.215a3.742,3.742,0,0,1,4.412-3.682l8.452,1.537A11.949,11.949,0,0,0,20.31,40.1a3.1,3.1,0,0,0,.025,5.365A7.293,7.293,0,0,1,6.26,42.776Zm7.3,9.39a9.517,9.517,0,0,0,1.635-.144l.3.906-1.936,1.936-1.936-1.936.3-.913A9.453,9.453,0,0,0,13.563,52.166ZM4.39,61.972a9.461,9.461,0,0,1,3.671-6.32l1.814,5.443,3.687-2.458,3.687,2.458,1.821-5.46a9.417,9.417,0,0,1,2.081,2.181,14.129,14.129,0,0,0-2.1,4.6l-.047.188H4.312Zm41.286.627-.047-.188a14.107,14.107,0,0,0-2.1-4.6,9.414,9.414,0,0,1,3.738-3.186l.245.982a3.716,3.716,0,0,0,7.209,0l.245-.979A9.472,9.472,0,0,1,60.3,61.972l.078.627Zm9.406-10.2-.322-.967a9.4,9.4,0,0,0,5.753-8.656V36.919a3.143,3.143,0,0,0-2.03-2.931L52.166,31.62V26.083A10.445,10.445,0,0,1,62.6,36.516V48.169a9.733,9.733,0,0,1-3.213,7.2,11.472,11.472,0,0,0-4.3-2.967Z" transform="translate(0)"/>
        </g>
      </g>
    </g>
  </g>
</svg>
