<svg xmlns="http://www.w3.org/2000/svg" xmlns:xlink="http://www.w3.org/1999/xlink" width="108" height="108" viewBox="0 0 108 108">
  <defs>
    <filter id="Path_904820" x="0" y="0" width="108" height="108" filterUnits="userSpaceOnUse">
      <feOffset dy="3" input="SourceAlpha"/>
      <feGaussianBlur stdDeviation="3" result="blur"/>
      <feFlood flood-opacity="0.161"/>
      <feComposite operator="in" in2="blur"/>
      <feComposite in="SourceGraphic"/>
    </filter>
  </defs>
  <g id="Group_1220134" data-name="Group 1220134" transform="translate(-199.5 -3185.108)">
    <g id="Group_1220078" data-name="Group 1220078">
      <g id="Group_1219746" data-name="Group 1219746" transform="translate(0 1895.108)">
        <g id="Group_1202418" data-name="Group 1202418" transform="translate(-419.977 876.813)">
          <g id="Group_1177315" data-name="Group 1177315" transform="translate(-0.523 -112.813)">
            <g id="Group_1173585" data-name="Group 1173585" transform="translate(629 532)">
              <g id="Group_1173428" data-name="Group 1173428" transform="translate(0 0)">
                <g id="Group_1171958" data-name="Group 1171958">
                  <g id="Group_1167341" data-name="Group 1167341">
                    <g id="Group_1166792" data-name="Group 1166792">
                      <g transform="matrix(1, 0, 0, 1, -9, -6)" filter="url(#Path_904820)">
                        <g id="Path_904820-2" data-name="Path 904820" transform="translate(9 6)" fill="#fff9ee">
                          <path d="M 44.99999618530273 88.49999237060547 C 39.12687301635742 88.49999237060547 33.43022155761719 87.35006713867188 28.06829643249512 85.08216857910156 C 22.88852119445801 82.89130401611328 18.23629570007324 79.75457763671875 14.24084663391113 75.75914001464844 C 10.24540901184082 71.76369476318359 7.108683586120605 67.11146545410156 4.917821407318115 61.93169403076172 C 2.649921178817749 56.56976699829102 1.499996185302734 50.87311553955078 1.499996185302734 44.99999237060547 C 1.499996185302734 39.12686920166016 2.649921178817749 33.43021774291992 4.917821407318115 28.06829261779785 C 7.108683586120605 22.88851737976074 10.24540901184082 18.23630523681641 14.24084663391113 14.24085521697998 C 18.23629570007324 10.24540519714355 22.88852119445801 7.108692169189453 28.06829643249512 4.917829990386963 C 33.43022155761719 2.649929761886597 39.12687301635742 1.500004887580872 44.99999618530273 1.500004887580872 C 50.87311935424805 1.500004887580872 56.56977081298828 2.649929761886597 61.93169784545898 4.917829990386963 C 67.11147308349609 7.108692169189453 71.76369476318359 10.24540519714355 75.75914764404297 14.24085521697998 C 79.75458526611328 18.23630523681641 82.89131164550781 22.88851737976074 85.08216857910156 28.06829261779785 C 87.35007476806641 33.43021774291992 88.5 39.12686920166016 88.5 44.99999237060547 C 88.5 50.87311553955078 87.35007476806641 56.56976699829102 85.08216857910156 61.93169403076172 C 82.89131164550781 67.11146545410156 79.75458526611328 71.76369476318359 75.75914764404297 75.75914001464844 C 71.76369476318359 79.75457763671875 67.11147308349609 82.89130401611328 61.93169784545898 85.08216857910156 C 56.56977081298828 87.35006713867188 50.87311935424805 88.49999237060547 44.99999618530273 88.49999237060547 Z" stroke="none"/>
                          <path d="M 44.99999618530273 2.999992370605469 C 39.32870864868164 2.999992370605469 33.82865142822266 4.11004638671875 28.65262603759766 6.299331665039062 C 23.65165710449219 8.414566040039062 19.15968322753906 11.44333648681641 15.301513671875 15.30150604248047 C 11.44333648681641 19.15967559814453 8.414566040039062 23.65164947509766 6.299339294433594 28.65262222290039 C 4.110054016113281 33.82864761352539 2.999992370605469 39.32870483398438 2.999992370605469 44.99999237060547 C 2.999992370605469 50.67127990722656 4.110054016113281 56.17132186889648 6.299339294433594 61.34736633300781 C 8.414566040039062 66.34833526611328 11.44333648681641 70.84029388427734 15.301513671875 74.69846343994141 C 19.15968322753906 78.55663299560547 23.65165710449219 81.58540344238281 28.65262603759766 83.70063781738281 C 33.82865142822266 85.88992309570312 39.32870864868164 86.99997711181641 44.99999618530273 86.99997711181641 C 50.67128372192383 86.99997711181641 56.17134094238281 85.88992309570312 61.34736633300781 83.70063781738281 C 66.34834289550781 81.58540344238281 70.84030914306641 78.55663299560547 74.69847869873047 74.69846343994141 C 78.55665588378906 70.84029388427734 81.58542633056641 66.34833526611328 83.70065307617188 61.34736633300781 C 85.88993835449219 56.17132186889648 87 50.67127990722656 87 44.99999237060547 C 87 39.32870483398438 85.88993835449219 33.82864761352539 83.70065307617188 28.65262222290039 C 81.58542633056641 23.65164947509766 78.55665588378906 19.15967559814453 74.69847869873047 15.30150604248047 C 70.84030914306641 11.44333648681641 66.34834289550781 8.414566040039062 61.34736633300781 6.299331665039062 C 56.17134094238281 4.11004638671875 50.67128372192383 2.999992370605469 44.99999618530273 2.999992370605469 M 44.99999618530273 -7.62939453125e-06 C 69.85281372070312 -7.62939453125e-06 90 20.14717864990234 90 44.99999237060547 C 90 69.85279083251953 69.85281372070312 89.99997711181641 44.99999618530273 89.99997711181641 C 20.14717864990234 89.99997711181641 -7.62939453125e-06 69.85279083251953 -7.62939453125e-06 44.99999237060547 C -7.62939453125e-06 20.14717864990234 20.14717864990234 -7.62939453125e-06 44.99999618530273 -7.62939453125e-06 Z" stroke="none" fill="#ffc965"/>
                        </g>
                      </g>
                    </g>
                  </g>
                </g>
              </g>
            </g>
          </g>
        </g>
      </g>
      <g id="mercadeo-viral" transform="translate(222.134 3177.476)">
        <g id="Group_1220076" data-name="Group 1220076" transform="translate(0.919 31.991)">
          <g id="Group_1220068" data-name="Group 1220068" transform="translate(15.227 11.501)">
            <path id="Path_1160922" data-name="Path 1160922" d="M159.936,147.587c0,15.126-14.087,15.188-14.648,15.126a15.222,15.222,0,0,1,.155-30.268C145.954,132.393,159.936,132.329,159.936,147.587Z" transform="translate(-131.778 -132.439)" fill="#d6edff"/>
          </g>
          <path id="Path_1160923" data-name="Path 1160923" d="M241.008,131.945a15.222,15.222,0,0,1,0,30.222,15.222,15.222,0,1,0,0-30.222Z" transform="translate(-212.398 -120.407)" fill="#b9def9"/>
          <g id="Group_1220070" data-name="Group 1220070" transform="translate(45.67 3.774)">
            <path id="Path_1160924" data-name="Path 1160924" d="M393.288,78.459c0,6.848-6.667,7.535-7.256,7.389a7.615,7.615,0,0,1,0-14.779A6.935,6.935,0,0,1,393.288,78.459Z" transform="translate(-380.257 -70.843)" fill="#ffe177"/>
            <path id="Path_1160925" data-name="Path 1160925" d="M427.391,69.6a7.615,7.615,0,0,1,0,14.779,7.614,7.614,0,1,0,0-14.779Z" transform="translate(-421.616 -69.378)" fill="#f9d45d"/>
            <g id="Group_1220069" data-name="Group 1220069" transform="translate(4.758 4.762)">
              <path id="Path_1160926" data-name="Path 1160926" d="M423.578,113.956H420.32a1.225,1.225,0,0,1-1.225-1.225v-3.258a1.225,1.225,0,0,1,1.225-1.225h3.258a1.225,1.225,0,0,1,1.225,1.225v3.258A1.225,1.225,0,0,1,423.578,113.956Z" transform="translate(-419.095 -108.247)" fill="#808b95"/>
            </g>
          </g>
          <g id="Group_1220071" data-name="Group 1220071" transform="translate(45.67 34.248)">
            <path id="Path_1160927" data-name="Path 1160927" d="M393.213,327.086a7.079,7.079,0,0,1-7.181,7.389,7.615,7.615,0,0,1,0-14.779C386.62,319.551,393.213,319.591,393.213,327.086Z" transform="translate(-380.257 -319.474)" fill="#f0fcff"/>
            <path id="Path_1160928" data-name="Path 1160928" d="M429.229,318.1a7.63,7.63,0,0,0-1.838.223,7.615,7.615,0,0,1,0,14.779,7.613,7.613,0,1,0,1.838-15Z" transform="translate(-421.616 -318.103)" fill="#d7ecfe"/>
            <path id="Path_1160929" data-name="Path 1160929" d="M420.576,360.061a1.483,1.483,0,0,0-1.055,2.52l1.1,1.095.057-.019a2.045,2.045,0,0,0,1.275-2.67A1.481,1.481,0,0,0,420.576,360.061Z" transform="translate(-414.336 -354.92)" fill="#fd8087"/>
            <path id="Path_1160930" data-name="Path 1160930" d="M434.226,360.061a1.481,1.481,0,0,0-1.373.926v0q.012.133.013.268a2.852,2.852,0,0,1-1.343,2.422l1.332,1.329,2.428-2.424A1.483,1.483,0,0,0,434.226,360.061Z" transform="translate(-425.24 -354.92)" fill="#fe646f"/>
          </g>
          <g id="Group_1220072" data-name="Group 1220072" transform="translate(0 34.244)">
            <path id="Path_1160931" data-name="Path 1160931" d="M20.3,327.164c0,7.149-6.434,7.535-7.022,7.389a7.615,7.615,0,0,1,0-14.779C13.863,319.629,20.3,320.055,20.3,327.164Z" transform="translate(-7.5 -319.548)" fill="#abdc94"/>
            <path id="Path_1160932" data-name="Path 1160932" d="M54.634,318.3a7.615,7.615,0,0,1,0,14.779,7.614,7.614,0,1,0,0-14.779Z" transform="translate(-48.859 -318.071)" fill="#8ccf75"/>
            <path id="Path_1160933" data-name="Path 1160933" d="M49.192,358.082l-.882,1.787-1.972.287,1.427,1.391.4.025a1.8,1.8,0,0,0,1.906-1.7Z" transform="translate(-41.58 -353.18)" fill="#ffe177"/>
            <path id="Path_1160934" data-name="Path 1160934" d="M59.854,372.9l-1.972-.287,0-.008a3.125,3.125,0,0,1-2.306,1.691l-.336,1.959L57,375.326l1.764.927-.337-1.964Z" transform="translate(-49.387 -365.922)" fill="#ffce71"/>
          </g>
          <g id="Group_1220073" data-name="Group 1220073" transform="translate(0 3.974)">
            <path id="Path_1160935" data-name="Path 1160935" d="M20.3,78.429a7,7,0,0,1-7.022,7.389,7.615,7.615,0,0,1,0-14.779C13.863,70.894,20.3,71.035,20.3,78.429Z" transform="translate(-7.5 -71.011)" fill="#ffc344"/>
          </g>
          <path id="Path_1160936" data-name="Path 1160936" d="M54.634,69.616a7.615,7.615,0,0,1,0,14.779,7.614,7.614,0,1,0,0-14.779Z" transform="translate(-48.859 -65.613)" fill="#feb137"/>
          <g id="Group_1220074" data-name="Group 1220074" transform="translate(28.53 0)">
            <circle id="Ellipse_12643" data-name="Ellipse 12643" cx="1.918" cy="1.918" r="1.918" fill="#808b95"/>
          </g>
          <g id="Group_1220075" data-name="Group 1220075" transform="translate(28.544 49.447)">
            <circle id="Ellipse_12644" data-name="Ellipse 12644" cx="1.918" cy="1.918" r="1.918" fill="#808b95"/>
          </g>
        </g>
        <g id="Group_1220077" data-name="Group 1220077" transform="translate(0 31.072)">
          <path id="Path_1160937" data-name="Path 1160937" d="M413.739,108.293H417a2.147,2.147,0,0,0,2.144-2.144V102.89A2.147,2.147,0,0,0,417,100.746h-3.258a2.147,2.147,0,0,0-2.144,2.144v3.258A2.147,2.147,0,0,0,413.739,108.293Zm-.306-5.4a.307.307,0,0,1,.306-.306H417a.307.307,0,0,1,.306.306v3.258a.307.307,0,0,1-.306.306h-3.258a.307.307,0,0,1-.306-.306Z" transform="translate(-361.166 -92.209)"/>
          <path id="Path_1160938" data-name="Path 1160938" d="M435.812,125.88a.919.919,0,1,0-.919-.919A.922.922,0,0,0,435.812,125.88Z" transform="translate(-381.61 -112.651)"/>
          <path id="Path_1160939" data-name="Path 1160939" d="M414.728,359.074a.919.919,0,0,0,1.3,0l2.428-2.424.006-.006a3.275,3.275,0,1,0-6.161.006ZM414,354.4a.56.56,0,0,1,.521.352.919.919,0,0,0,1.7,0,.562.562,0,1,1,.924.6l-1.776,1.773-1.774-1.77A.563.563,0,0,1,414,354.4Z" transform="translate(-361.175 -313.172)"/>
          <path id="Path_1160940" data-name="Path 1160940" d="M54.2,65.32a8.532,8.532,0,0,0-7.17,3.912l-2.224-1.668A16.108,16.108,0,0,0,44.8,49.7l2.244-1.683a8.523,8.523,0,1,0-.839-1.668l-2.51,1.883a16.117,16.117,0,0,0-11.422-5.707V36.6a2.836,2.836,0,1,0-1.838-.01v5.94a16.117,16.117,0,0,0-11.4,5.709L16.53,46.355A8.533,8.533,0,0,0,3.646,36.388.919.919,0,1,0,4.7,37.894a6.693,6.693,0,1,1-2.264,2.718.919.919,0,1,0-1.673-.762,8.531,8.531,0,0,0,14.926,8.171L17.932,49.7a16.108,16.108,0,0,0-.01,17.856L15.7,69.227a8.484,8.484,0,1,0,.837,1.669l2.489-1.867a16.117,16.117,0,0,0,11.422,5.724v5.923a2.836,2.836,0,1,0,1.838-.01V74.753A16.117,16.117,0,0,0,43.7,69.033L46.2,70.9a8.544,8.544,0,0,0,.446,6.908.919.919,0,1,0,1.627-.854,6.695,6.695,0,1,1,2.421,2.6.919.919,0,1,0-.966,1.564A8.532,8.532,0,1,0,54.2,65.32Zm0-28.632a6.694,6.694,0,1,1-6.694,6.694A6.7,6.7,0,0,1,54.2,36.688ZM8.532,80.546a6.694,6.694,0,1,1,6.694-6.694A6.7,6.7,0,0,1,8.532,80.546ZM45.639,57.721H39.9a19.725,19.725,0,0,0-2.524-8.839A16.071,16.071,0,0,0,40.2,47.4,14.291,14.291,0,0,1,45.639,57.721ZM35.6,67.8a16.113,16.113,0,0,0-3.313-.533V59.559H38.06A17.911,17.911,0,0,1,35.6,67.8Zm-5.15,4.122a18.27,18.27,0,0,1-2.235-2.495,14.323,14.323,0,0,1,2.235-.319Zm-1.873.743a14.208,14.208,0,0,1-4.382-1.659,14.176,14.176,0,0,1,2.157-1.024A20.125,20.125,0,0,0,28.574,72.668Zm3.711-.744V69.111a14.306,14.306,0,0,1,2.234.318A18.385,18.385,0,0,1,32.285,71.924Zm4.1-1.939a14.179,14.179,0,0,1,2.158,1.024,14.206,14.206,0,0,1-4.385,1.66,20.246,20.246,0,0,0,2.227-2.684Zm-4.1-12.264V50.01a16.119,16.119,0,0,0,3.313-.533,17.911,17.911,0,0,1,2.462,8.244Zm-5.151-8.244a16.109,16.109,0,0,0,3.313.533v7.711H24.673A17.91,17.91,0,0,1,27.134,49.477Zm5.151-4.121a18.38,18.38,0,0,1,2.234,2.495,14.3,14.3,0,0,1-2.234.318Zm1.871-.745a14.206,14.206,0,0,1,4.386,1.66A14.175,14.175,0,0,1,36.383,47.3a20.254,20.254,0,0,0-2.227-2.684Zm-3.708.745v2.813a14.329,14.329,0,0,1-2.234-.318A18.378,18.378,0,0,1,30.447,45.356Zm-4.1,1.94a14.177,14.177,0,0,1-2.159-1.024,14.209,14.209,0,0,1,4.386-1.66A20.255,20.255,0,0,0,26.35,47.3ZM31.366,32.91a1,1,0,1,1-1,1A1,1,0,0,1,31.366,32.91ZM22.528,47.4a16.068,16.068,0,0,0,2.829,1.479,19.724,19.724,0,0,0-2.524,8.839H17.094A14.29,14.29,0,0,1,22.528,47.4ZM17.094,59.559h5.74a20.049,20.049,0,0,0,.406,3.207.919.919,0,0,0,1.8-.378,18.2,18.2,0,0,1-.365-2.829h5.774V67.27a16.112,16.112,0,0,0-3.312.533,18,18,0,0,1-.921-1.789.919.919,0,1,0-1.678.749q.373.837.822,1.636a16.072,16.072,0,0,0-2.828,1.479,14.291,14.291,0,0,1-5.435-10.319Zm14.287,24.8a1,1,0,1,1,1-1A1,1,0,0,1,31.381,84.354ZM40.2,69.877A16.061,16.061,0,0,0,37.375,68.4a19.724,19.724,0,0,0,2.524-8.84h5.739A14.291,14.291,0,0,1,40.2,69.877Z" transform="translate(0 -31.072)"/>
          <path id="Path_1160941" data-name="Path 1160941" d="M45.6,352.671l-1.494-.217-.668-1.354a.92.92,0,0,0-1.648,0l-.668,1.354-1.494.217a.92.92,0,0,0-.509,1.567l1.081,1.054-.255,1.488a.92.92,0,0,0,1.333.969l1.336-.7,1.336.7a.919.919,0,0,0,1.333-.969l-.255-1.488,1.081-1.054A.92.92,0,0,0,45.6,352.671Zm-2.465,2.456.022.129-.116-.061a.978.978,0,0,0-.971.061.977.977,0,0,0-.242-.943l-.094-.091a.977.977,0,0,0,.822-.521l.058-.117a.977.977,0,0,0,.75.62l.13.019a.976.976,0,0,0-.358.9Z" transform="translate(-34.078 -311.442)"/>
          <path id="Path_1160942" data-name="Path 1160942" d="M71.909,105.869a.919.919,0,0,0-.919.919v4.456a.919.919,0,1,0,1.838,0v-.3l1,.963a.919.919,0,0,0,1.276-1.323l-1.711-1.65,1.536-1.412a.919.919,0,1,0-1.244-1.353l-.856.787v-.167A.919.919,0,0,0,71.909,105.869Z" transform="translate(-62.292 -96.705)"/>
          <path id="Path_1160943" data-name="Path 1160943" d="M34.269,112.506a.919.919,0,0,0,.919-.919v-4.341a.919.919,0,0,0-.919-.919h-.928a.919.919,0,1,0,0,1.838h.009v3.422A.919.919,0,0,0,34.269,112.506Z" transform="translate(-28.45 -97.107)"/>
        </g>
      </g>
    </g>
  </g>
</svg>
