<svg xmlns="http://www.w3.org/2000/svg" xmlns:xlink="http://www.w3.org/1999/xlink" width="108" height="108" viewBox="0 0 108 108">
  <defs>
    <filter id="Path_904820" x="0" y="0" width="108" height="108" filterUnits="userSpaceOnUse">
      <feOffset dy="3" input="SourceAlpha"/>
      <feGaussianBlur stdDeviation="3" result="blur"/>
      <feFlood flood-opacity="0.161"/>
      <feComposite operator="in" in2="blur"/>
      <feComposite in="SourceGraphic"/>
    </filter>
  </defs>
  <g id="Group_1220091" data-name="Group 1220091" transform="translate(-200 -469)">
    <g id="Group_1220090" data-name="Group 1220090">
      <g id="Group_1219982" data-name="Group 1219982">
        <g id="Group_1219977" data-name="Group 1219977">
          <g id="Group_1219603" data-name="Group 1219603" transform="translate(0 -62)">
            <g id="Group_1202655" data-name="Group 1202655" transform="translate(209 537)">
              <g id="Group_1173585" data-name="Group 1173585" transform="translate(0 0)">
                <g id="Group_1173428" data-name="Group 1173428">
                  <g id="Group_1171958" data-name="Group 1171958">
                    <g id="Group_1167341" data-name="Group 1167341">
                      <g id="Group_1166792" data-name="Group 1166792">
                        <g transform="matrix(1, 0, 0, 1, -9, -6)" filter="url(#Path_904820)">
                          <g id="Path_904820-2" data-name="Path 904820" transform="translate(9 6)" fill="#fef2ec">
                            <path d="M 44.99999618530273 88.49999237060547 C 39.12687301635742 88.49999237060547 33.43022155761719 87.35006713867188 28.06829643249512 85.08216857910156 C 22.88852119445801 82.89130401611328 18.23629570007324 79.75457763671875 14.24084663391113 75.75914001464844 C 10.24540901184082 71.76369476318359 7.108683586120605 67.11146545410156 4.917821407318115 61.93169403076172 C 2.649921178817749 56.56976699829102 1.499996185302734 50.87311553955078 1.499996185302734 44.99999237060547 C 1.499996185302734 39.12686920166016 2.649921178817749 33.43021774291992 4.917821407318115 28.06829261779785 C 7.108683586120605 22.88851737976074 10.24540901184082 18.23630523681641 14.24084663391113 14.24085521697998 C 18.23629570007324 10.24540519714355 22.88852119445801 7.108692169189453 28.06829643249512 4.917829990386963 C 33.43022155761719 2.649929761886597 39.12687301635742 1.500004887580872 44.99999618530273 1.500004887580872 C 50.87311935424805 1.500004887580872 56.56977081298828 2.649929761886597 61.93169784545898 4.917829990386963 C 67.11147308349609 7.108692169189453 71.76369476318359 10.24540519714355 75.75914764404297 14.24085521697998 C 79.75458526611328 18.23630523681641 82.89131164550781 22.88851737976074 85.08216857910156 28.06829261779785 C 87.35007476806641 33.43021774291992 88.5 39.12686920166016 88.5 44.99999237060547 C 88.5 50.87311553955078 87.35007476806641 56.56976699829102 85.08216857910156 61.93169403076172 C 82.89131164550781 67.11146545410156 79.75458526611328 71.76369476318359 75.75914764404297 75.75914001464844 C 71.76369476318359 79.75457763671875 67.11147308349609 82.89130401611328 61.93169784545898 85.08216857910156 C 56.56977081298828 87.35006713867188 50.87311935424805 88.49999237060547 44.99999618530273 88.49999237060547 Z" stroke="none"/>
                            <path d="M 44.99999618530273 2.999992370605469 C 39.32870864868164 2.999992370605469 33.82865142822266 4.11004638671875 28.65262603759766 6.299331665039062 C 23.65165710449219 8.414566040039062 19.15968322753906 11.44333648681641 15.301513671875 15.30150604248047 C 11.44333648681641 19.15967559814453 8.414566040039062 23.65164947509766 6.299339294433594 28.65262222290039 C 4.110054016113281 33.82864761352539 2.999992370605469 39.32870483398438 2.999992370605469 44.99999237060547 C 2.999992370605469 50.67127990722656 4.110054016113281 56.17132186889648 6.299339294433594 61.34736633300781 C 8.414566040039062 66.34833526611328 11.44333648681641 70.84029388427734 15.301513671875 74.69846343994141 C 19.15968322753906 78.55663299560547 23.65165710449219 81.58540344238281 28.65262603759766 83.70063781738281 C 33.82865142822266 85.88992309570312 39.32870864868164 86.99997711181641 44.99999618530273 86.99997711181641 C 50.67128372192383 86.99997711181641 56.17134094238281 85.88992309570312 61.34736633300781 83.70063781738281 C 66.34834289550781 81.58540344238281 70.84030914306641 78.55663299560547 74.69847869873047 74.69846343994141 C 78.55665588378906 70.84029388427734 81.58542633056641 66.34833526611328 83.70065307617188 61.34736633300781 C 85.88993835449219 56.17132186889648 87 50.67127990722656 87 44.99999237060547 C 87 39.32870483398438 85.88993835449219 33.82864761352539 83.70065307617188 28.65262222290039 C 81.58542633056641 23.65164947509766 78.55665588378906 19.15967559814453 74.69847869873047 15.30150604248047 C 70.84030914306641 11.44333648681641 66.34834289550781 8.414566040039062 61.34736633300781 6.299331665039062 C 56.17134094238281 4.11004638671875 50.67128372192383 2.999992370605469 44.99999618530273 2.999992370605469 M 44.99999618530273 -7.62939453125e-06 C 69.85281372070312 -7.62939453125e-06 90 20.14717864990234 90 44.99999237060547 C 90 69.85279083251953 69.85281372070312 89.99997711181641 44.99999618530273 89.99997711181641 C 20.14717864990234 89.99997711181641 -7.62939453125e-06 69.85279083251953 -7.62939453125e-06 44.99999237060547 C -7.62939453125e-06 20.14717864990234 20.14717864990234 -7.62939453125e-06 44.99999618530273 -7.62939453125e-06 Z" stroke="none" fill="#fe8953"/>
                          </g>
                        </g>
                      </g>
                    </g>
                  </g>
                </g>
              </g>
            </g>
          </g>
        </g>
        <g id="idea" transform="translate(206.504 492.245)">
          <g id="Group_1219980" data-name="Group 1219980" transform="translate(23.63 0.977)">
            <path id="Path_1160454" data-name="Path 1160454" d="M237.243,363.056H225.166a8.467,8.467,0,0,0-8.467,8.467v6.063a2.458,2.458,0,0,0,2.458,2.458h24.1a2.458,2.458,0,0,0,2.458-2.458v-6.063A8.467,8.467,0,0,0,237.243,363.056Z" transform="translate(-201.444 -320.243)" fill="#80b4fb"/>
            <path id="Path_1160455" data-name="Path 1160455" d="M219.334,371.527v6.064a2.458,2.458,0,0,0,2.458,2.457h-2.635a2.458,2.458,0,0,1-2.458-2.457v-6.064a8.466,8.466,0,0,1,8.467-8.466H227.8A8.466,8.466,0,0,0,219.334,371.527Z" transform="translate(-201.444 -320.247)" fill="#5490f9"/>
            <path id="Path_1160456" data-name="Path 1160456" d="M297.8,372.343a5.064,5.064,0,0,1,1.043,5.992,11.688,11.688,0,0,1-5.433-2.606,11.686,11.686,0,0,1-5.433,2.606,5.063,5.063,0,0,1,1.043-5.992" transform="translate(-263.631 -328.41)" fill="#5490f9"/>
            <path id="Path_1160457" data-name="Path 1160457" d="M309.343,371.781c0,.023,0,.045,0,.068,0,1.87-1.965,3.387-4.389,3.387s-4.39-1.516-4.39-3.387c0-.023,0-.045,0-.068" transform="translate(-275.195 -327.916)" fill="#f1b986"/>
            <path id="Path_1160458" data-name="Path 1160458" d="M222.468,445.11V447.5h4.469a4.213,4.213,0,0,1,4.213,4.214v.482H219.157a2.458,2.458,0,0,1-2.458-2.458V445.11h5.769Z" transform="translate(-201.444 -392.4)" fill="#f1d0a5"/>
            <path id="Path_1160459" data-name="Path 1160459" d="M219.149,452.2h2.635a2.458,2.458,0,0,1-2.45-2.457v-4.633H216.7v4.633A2.457,2.457,0,0,0,219.149,452.2Z" transform="translate(-201.444 -392.402)" fill="#f1b986"/>
            <path id="Path_1160460" data-name="Path 1160460" d="M346.088,445.11V447.5h-4.469a4.214,4.214,0,0,0-4.213,4.214v.482H349.4a2.458,2.458,0,0,0,2.458-2.458V445.11h-5.769Z" transform="translate(-307.591 -392.4)" fill="#f1d0a5"/>
            <path id="Path_1160461" data-name="Path 1160461" d="M409.39,444.858h2.425v2.425H409.39Z" transform="translate(-370.894 -392.178)" fill="#f1b986"/>
            <path id="Path_1160462" data-name="Path 1160462" d="M409.39,432.127h2.425v1.536H409.39Z" transform="translate(-370.894 -380.983)" fill="#5490f9"/>
            <path id="Path_1160463" data-name="Path 1160463" d="M341.619,464.961h1.951a4.214,4.214,0,0,0-4.214,4.214v.482h-1.951v-.482A4.214,4.214,0,0,1,341.619,464.961Z" transform="translate(-307.591 -409.857)" fill="#f1b986"/>
            <path id="Path_1160464" data-name="Path 1160464" d="M222.473,240.046h.02a3.16,3.16,0,0,0,0-6.32H193.425a3.16,3.16,0,0,0,0,6.32h.02" transform="translate(-178.199 -206.512)" fill="#f1b986"/>
            <path id="Path_1160465" data-name="Path 1160465" d="M244.7,160.448a142.542,142.542,0,0,0-27.574,0,97.751,97.751,0,0,0-.63,17.145,8.088,8.088,0,0,0,7.7,7.668q6.714.317,13.428,0a8.088,8.088,0,0,0,7.7-7.668A97.727,97.727,0,0,0,244.7,160.448Z" transform="translate(-201.153 -141.485)" fill="#f1d0a5"/>
            <path id="Path_1160466" data-name="Path 1160466" d="M217.131,160.445q6.892-.669,13.787-.668a36.7,36.7,0,0,0-6.981.675q-.543,8.655-.32,17.309c.1,3.8,1.485,6.893,3.306,7.6q-1.36-.037-2.721-.1a8.089,8.089,0,0,1-7.7-7.668A97.878,97.878,0,0,1,217.131,160.445Z" transform="translate(-201.158 -141.483)" fill="#f1b986"/>
            <path id="Path_1160467" data-name="Path 1160467" d="M213.819,92.1c-5.283,2.041-12.787,1.141-16.569-2.641,0,0-.9,6.141-5.551,6.141l-2.029.682c-5.419-21.272,6.14-15.588,6.14-15.588a5.5,5.5,0,0,1,4.342-3.2q.219-.027.44-.041l.035,0a9.638,9.638,0,0,1,3.406.514c.366.118.718.248,1.046.383a16.023,16.023,0,0,1,2.488,1.278l.04.027c1.19-1.574,2.324-3,3.572-3a1.3,1.3,0,0,1,1.1.509c.9,1.18.161,4.017.1,4.24l0,.01,0-.01.006-.016c.16-.4,1.947-4.732,5.152-4.732a2.506,2.506,0,0,1,.545.055c2.389.528.519,4.707.313,5.149l-.005.013-.011.023c.1-.13,4.1-5.21,5.881-2.879l0,0c1.794,2.364-5.166,11.045-10.447,13.085Z" transform="translate(-176.403 -68.38)" fill="#665e66"/>
            <g id="Group_1219978" data-name="Group 1219978" transform="translate(11.82 8.268)">
              <path id="Path_1160468" data-name="Path 1160468" d="M444.129,91.765h0c-.9-.9-4.013,3.342-5.883,2.882l.013-.025-.011.023C438.35,94.514,442.351,89.434,444.129,91.765Z" transform="translate(-408.088 -89.404)" fill="#454045"/>
              <path id="Path_1160469" data-name="Path 1160469" d="M394.182,76.7c-1.351-.307-2.6,2.264-3.31,4.089a1.512,1.512,0,0,1-2.206.738l-.193-.12,0,0,0-.01h0l.006-.016c.16-.4,1.947-4.732,5.152-4.732A2.506,2.506,0,0,1,394.182,76.7Z" transform="translate(-364.319 -76.649)" fill="#454045"/>
              <path id="Path_1160470" data-name="Path 1160470" d="M200.148,83.609c-3.865.681-5.325,9.543-2.9,11.967,0,0-.9,6.141-5.551,6.141l-2.029.682c-5.419-21.272,6.14-15.588,6.14-15.588a5.5,5.5,0,0,1,4.342-3.2Z" transform="translate(-188.22 -82.769)" fill="#454045"/>
              <path id="Path_1160471" data-name="Path 1160471" d="M324.49,77.157c-1.358-1.358-2.264,5.608-5.322,6.724s-3.344-.31-3.344-.31h0c1.506-.557,2.776-2.317,3.99-3.924h0l.111-.147c.046-.062.094-.125.141-.186,1.1-1.436,2.161-2.665,3.32-2.665A1.3,1.3,0,0,1,324.49,77.157Z" transform="translate(-300.433 -76.648)" fill="#454045"/>
            </g>
            <path id="Path_1160472" data-name="Path 1160472" d="M290.79,83.259h-.038l.035,0Z" transform="translate(-266.565 -74.193)" fill="#ecc32e"/>
            <g id="Group_1219979" data-name="Group 1219979">
              <path id="Path_1160473" data-name="Path 1160473" d="M108,16.991a8.88,8.88,0,0,1-4.157,7.526H94.382a8.89,8.89,0,0,1,6.656-16.2l.192.044A8.891,8.891,0,0,1,108,16.991Z" transform="translate(-90.225 -8.104)" fill="#f4dd45"/>
              <path id="Path_1160474" data-name="Path 1160474" d="M98.613,24.518H94.381a8.889,8.889,0,0,1,6.656-16.2c.065.014.129.027.192.044a8.89,8.89,0,0,0-2.617,16.159Z" transform="translate(-90.225 -8.104)" fill="#eab14d"/>
              <path id="Path_1160475" data-name="Path 1160475" d="M125.451,144.854a2.33,2.33,0,0,1-2.33,2.33h-7.566a2.33,2.33,0,1,1,0-4.66h7.566A2.33,2.33,0,0,1,125.451,144.854Z" transform="translate(-110.451 -126.311)" fill="#dfeaef"/>
              <path id="Path_1160476" data-name="Path 1160476" d="M119.583,147.184h-4.029a2.33,2.33,0,0,1,0-4.661h4.029a2.33,2.33,0,1,0,0,4.661Z" transform="translate(-110.45 -126.31)" fill="#b4d0d5"/>
              <path id="Path_1160477" data-name="Path 1160477" d="M135.635,183.493a2.33,2.33,0,0,1-2.33,2.33h-4.328a2.33,2.33,0,1,1,0-4.66H133.3A2.33,2.33,0,0,1,135.635,183.493Z" transform="translate(-122.253 -160.289)" fill="#dfeaef"/>
              <path id="Path_1160478" data-name="Path 1160478" d="M131.829,185.823h-2.854a2.33,2.33,0,0,1,0-4.661h2.854a2.33,2.33,0,0,0,0,4.661Z" transform="translate(-122.252 -160.288)" fill="#b4d0d5"/>
            </g>
          </g>
          <g id="Group_1219981" data-name="Group 1219981" transform="translate(14.496 0)">
            <path id="Path_1160479" data-name="Path 1160479" d="M312.287,287.484a.907.907,0,0,0-1.208.43,2.373,2.373,0,0,1-4.288,0,.907.907,0,1,0-1.638.777,4.186,4.186,0,0,0,7.565,0A.907.907,0,0,0,312.287,287.484Z" transform="translate(-270.017 -252.731)"/>
            <path id="Path_1160480" data-name="Path 1160480" d="M271.63,234.446c-.727,0-1.319.88-1.319,1.963s.591,1.963,1.319,1.963,1.318-.88,1.318-1.963S272.357,234.446,271.63,234.446Z" transform="translate(-239.456 -206.168)"/>
            <path id="Path_1160481" data-name="Path 1160481" d="M383.449,234.446c-.727,0-1.318.88-1.318,1.963s.591,1.963,1.318,1.963,1.319-.88,1.319-1.963S384.177,234.446,383.449,234.446Z" transform="translate(-337.788 -206.168)"/>
            <path id="Path_1160482" data-name="Path 1160482" d="M132.2,13.822a3.093,3.093,0,0,0-.282-2.812,2.335,2.335,0,0,0-1.9-.969h-.012a5.067,5.067,0,0,0-2.9,1.277,3.246,3.246,0,0,0-.41-1.933,2.457,2.457,0,0,0-2.24-1.1,5.43,5.43,0,0,0-4.031,2.072,3.012,3.012,0,0,0-.518-1.2,2.206,2.206,0,0,0-1.829-.869c-1.478,0-2.645,1.228-3.807,2.717a17.7,17.7,0,0,0-1.964-.953c-.372-.152-.746-.289-1.113-.407a10.488,10.488,0,0,0-3.74-.557l-.03,0h-.009c-.167.01-.335.025-.5.046a6.236,6.236,0,0,0-4.63,2.977c-.168-.058-.358-.117-.565-.173a9.913,9.913,0,0,0,.23-2.124A9.791,9.791,0,0,0,94.457.277l-.2-.045a9.835,9.835,0,0,0-7.089,1.114.907.907,0,0,0,.918,1.564A8.021,8.021,0,0,1,93.86,2l.178.04a8,8,0,0,1,2.7,14.315,3.236,3.236,0,0,0-.818-.1H93.037v-2.58a3.509,3.509,0,0,0,2.6-3.383.907.907,0,0,0-1.814,0,1.689,1.689,0,1,1-3.379,0,.907.907,0,0,0-1.814,0,3.509,3.509,0,0,0,2.6,3.383v2.58H88.339a3.263,3.263,0,0,0-.819.1A8,8,0,0,1,85.738,5,.907.907,0,0,0,84.291,3.91a9.82,9.82,0,0,0,1.587,13.474,3.24,3.24,0,0,0,1.29,5.133,3.244,3.244,0,0,0,2.794,4.891H94.3a3.255,3.255,0,0,0,.906-.128q.143.637.305,1.292a4.071,4.071,0,0,0,2.111,6.762q.03.908.075,1.812a8.984,8.984,0,0,0,4.28,7.227,9.44,9.44,0,0,0-4.369,7.934v6.079s0,0,0,.006a3.374,3.374,0,0,0,3.37,3.364H125.13a3.374,3.374,0,0,0,3.37-3.37V52.307a9.4,9.4,0,0,0-.332-2.484.907.907,0,0,0-1.749.48,7.583,7.583,0,0,1,.268,2v.528h-3.969v-.663a.907.907,0,1,0-1.814,0v3.063H117.33a5.107,5.107,0,0,0-3.37,1.267V50.128a13.546,13.546,0,0,0,4.357,1.71.906.906,0,0,0,.971-.442,5.943,5.943,0,0,0-.1-5.679c.213-.009.428-.016.641-.026a9.122,9.122,0,0,0,2.2-.378,7.6,7.6,0,0,1,2.891,2.132.907.907,0,0,0,1.391-1.164,9.431,9.431,0,0,0-2.18-1.909,8.987,8.987,0,0,0,4.279-7.226q.046-.9.075-1.812a4.074,4.074,0,0,0-.062-7.976q-.165-3.434-.568-6.85a18.8,18.8,0,0,0,4.343-6.686Zm-31.035-.154a6.734,6.734,0,0,1,1.11.39.906.906,0,0,0,1.207-.4,4.614,4.614,0,0,1,3.657-2.725c.123-.015.247-.027.371-.034l.058,0a8.727,8.727,0,0,1,3.072.473c.323.1.654.225.983.359a15.81,15.81,0,0,1,1.541.732,8.246,8.246,0,0,1-2.98,2.82.907.907,0,0,0,.628,1.7c1.685-.622,2.978-2.338,4.23-4,1.02-1.353,2.176-2.886,3.038-2.886.248,0,.329.079.385.153.451.592.233,2.422-.055,3.471a.907.907,0,0,0,1.722.563c.016-.042,1.658-4.187,4.327-4.187.547,0,.665.188.7.249.424.674-.154,2.61-.679,3.705a.907.907,0,0,0,1.533.95,16.514,16.514,0,0,1,1.521-1.651c1.443-1.358,2.21-1.5,2.477-1.5a.531.531,0,0,1,.463.256,1.614,1.614,0,0,1-.021,1.219c-.9,3.175-6.032,8.949-10.055,10.5-5.249,2.028-12.265.932-15.64-2.443a.907.907,0,0,0-1.538.51,9.844,9.844,0,0,1-.939,2.787,4.153,4.153,0,0,1-3.729,2.593h-.068a4.055,4.055,0,0,0-1.364.236q-.158-.669-.3-1.314a3.238,3.238,0,0,0,.267-3.68,3.24,3.24,0,0,0,1.291-5.134,9.753,9.753,0,0,0,2.782-3.717ZM87.329,18.483a1.42,1.42,0,0,1,1.011-.418h7.583a1.429,1.429,0,1,1,0,2.858H88.339a1.429,1.429,0,0,1-1.011-2.44Zm2.633,7.111a1.429,1.429,0,1,1,0-2.858H94.3a1.429,1.429,0,1,1,0,2.858Zm6.262,5.759a2.265,2.265,0,0,1,1.383-2.084c-.04,1.381-.049,2.768-.03,4.153A2.263,2.263,0,0,1,96.224,31.353Zm7.851,13.96a9.115,9.115,0,0,0,2.2.378c.213.01.428.017.642.026a5.943,5.943,0,0,0-.1,5.679.907.907,0,0,0,.971.442,13.543,13.543,0,0,0,4.357-1.711V56.5a5.108,5.108,0,0,0-3.371-1.268H105.2V52.172a.907.907,0,0,0-1.814,0v.663H99.42v-.528a7.613,7.613,0,0,1,4.656-6.994Zm4.264,1.6a5.005,5.005,0,0,0,2.434,1.911,11.78,11.78,0,0,1-2.622,1.062A4.118,4.118,0,0,1,108.34,46.917Zm4.714.515a3.713,3.713,0,0,1-3.265-1.619q1.63.037,3.264.038t3.264-.038a3.711,3.711,0,0,1-3.264,1.619Zm-12.077,12.51a1.559,1.559,0,0,1-1.557-1.557V54.648h3.969v1.493a.907.907,0,0,0,.907.907h4.48a3.322,3.322,0,0,1,3.29,2.893Zm16.353-2.893h4.48a.907.907,0,0,0,.907-.907V54.648h3.969v3.737s0,0,0,0a1.558,1.558,0,0,1-1.557,1.553H114.041A3.322,3.322,0,0,1,117.331,57.049Zm.811-8.178a4.5,4.5,0,0,1-.189,1.018,11.789,11.789,0,0,1-2.62-1.061,5,5,0,0,0,2.437-1.916,3.9,3.9,0,0,1,.371,1.96ZM126.6,37.053a7.182,7.182,0,0,1-6.859,6.827c-4.437.209-8.937.209-13.375,0a7.18,7.18,0,0,1-6.858-6.827c-.137-2.659-.162-5.355-.077-8.025a6.066,6.066,0,0,0,4.457-3.5,11.245,11.245,0,0,0,.76-1.849,15.683,15.683,0,0,0,7.078,2.759,18.737,18.737,0,0,0,9.327-.916,17.655,17.655,0,0,0,5.158-3.4,97.383,97.383,0,0,1,.389,14.929Zm3.283-5.7a2.263,2.263,0,0,1-1.353,2.069q.027-2.075-.033-4.154A2.265,2.265,0,0,1,129.882,31.353Z" transform="translate(-74.136 0)"/>
            <path id="Path_1160483" data-name="Path 1160483" d="M38.612,98.532,36.041,101.1a.907.907,0,1,0,1.282,1.282l2.571-2.571a.907.907,0,1,0-1.282-1.282Z" transform="translate(-33.208 -86.414)"/>
            <path id="Path_1160484" data-name="Path 1160484" d="M38.61,20.935a.907.907,0,1,0,1.282-1.282l-2.571-2.571a.907.907,0,1,0-1.282,1.282Z" transform="translate(-33.207 -14.788)"/>
            <path id="Path_1160485" data-name="Path 1160485" d="M19.944,69.1a.907.907,0,0,0-.907-.907h-3.6A.907.907,0,1,0,15.4,70.01h3.635A.907.907,0,0,0,19.944,69.1Z" transform="translate(-14.496 -59.971)"/>
          </g>
        </g>
      </g>
    </g>
  </g>
</svg>
