<svg xmlns="http://www.w3.org/2000/svg" xmlns:xlink="http://www.w3.org/1999/xlink" width="113" height="113" viewBox="0 0 113 113">
  <defs>
    <filter id="Path_982547" x="0" y="0" width="113" height="113" filterUnits="userSpaceOnUse">
      <feOffset dy="3" input="SourceAlpha"/>
      <feGaussianBlur stdDeviation="3" result="blur"/>
      <feFlood flood-opacity="0.161"/>
      <feComposite operator="in" in2="blur"/>
      <feComposite in="SourceGraphic"/>
    </filter>
  </defs>
  <g id="Group_1220095" data-name="Group 1220095" transform="translate(-901 -943.269)">
    <g id="Group_1220010" data-name="Group 1220010">
      <g id="Group_1219625" data-name="Group 1219625" transform="translate(0 -5515.518)">
        <g id="Group_1203674" data-name="Group 1203674" transform="translate(0 557.5)">
          <g id="Group_1202434" data-name="Group 1202434" transform="translate(-0.56 1255.773)">
            <g id="Group_1202053" data-name="Group 1202053" transform="translate(0 3240.511)">
              <g id="Group_1177898" data-name="Group 1177898" transform="translate(910.561 1411.003)">
                <g id="Group_1172010" data-name="Group 1172010" transform="translate(0)">
                  <g id="Group_1171046" data-name="Group 1171046">
                    <g id="Group_1148525" data-name="Group 1148525">
                      <g transform="matrix(1, 0, 0, 1, -9, -6)" filter="url(#Path_982547)">
                        <g id="Path_982547-2" data-name="Path 982547" transform="translate(9 6)" fill="#ead9e0">
                          <path d="M 47.5 93.5 C 41.28937149047852 93.5 35.26533508300781 92.28397369384766 29.59518623352051 89.88570404052734 C 24.11771965026855 87.56893157958984 19.19813346862793 84.25196075439453 14.97309303283691 80.02691650390625 C 10.74804019927979 75.80186462402344 7.431066513061523 70.88229370117188 5.114293098449707 65.40481567382812 C 2.716026782989502 59.73468017578125 1.5 53.71062850952148 1.5 47.5 C 1.5 41.28937149047852 2.716026782989502 35.26533508300781 5.114293098449707 29.59518623352051 C 7.431066513061523 24.11771965026855 10.74804019927979 19.19813346862793 14.97309303283691 14.97309303283691 C 19.19813346862793 10.74804019927979 24.11771965026855 7.431066513061523 29.59518623352051 5.114293098449707 C 35.26533508300781 2.716026782989502 41.28937149047852 1.5 47.5 1.5 C 53.71062850952148 1.5 59.73468017578125 2.716026782989502 65.40481567382812 5.114293098449707 C 70.88229370117188 7.431066513061523 75.80186462402344 10.74804019927979 80.02691650390625 14.97309303283691 C 84.25196075439453 19.19813346862793 87.56893157958984 24.11771965026855 89.88570404052734 29.59518623352051 C 92.28397369384766 35.26533508300781 93.5 41.28937149047852 93.5 47.5 C 93.5 53.71062850952148 92.28397369384766 59.73468017578125 89.88570404052734 65.40481567382812 C 87.56893157958984 70.88229370117188 84.25196075439453 75.80186462402344 80.02691650390625 80.02691650390625 C 75.80186462402344 84.25196075439453 70.88229370117188 87.56893157958984 65.40481567382812 89.88570404052734 C 59.73468017578125 92.28397369384766 53.71062850952148 93.5 47.5 93.5 Z" stroke="none"/>
                          <path d="M 47.5 3 C 41.49121475219727 3 35.66376876831055 4.176155090332031 30.17950439453125 6.495796203613281 C 24.88084411621094 8.736953735351562 20.12152099609375 11.94598388671875 16.03375244140625 16.03375244140625 C 11.94598388671875 20.12152099609375 8.736953735351562 24.88084411621094 6.495796203613281 30.17950439453125 C 4.176155090332031 35.66376876831055 3 41.49121475219727 3 47.5 C 3 53.50878524780273 4.176155090332031 59.33623123168945 6.495796203613281 64.82049560546875 C 8.736953735351562 70.11915588378906 11.94598388671875 74.87847900390625 16.03375244140625 78.96624755859375 C 20.12152099609375 83.05401611328125 24.88084411621094 86.26304626464844 30.17950439453125 88.50419616699219 C 35.66376876831055 90.82384490966797 41.49121475219727 92 47.5 92 C 53.50878524780273 92 59.33623123168945 90.82384490966797 64.82049560546875 88.50419616699219 C 70.11915588378906 86.26304626464844 74.87847900390625 83.05401611328125 78.96624755859375 78.96624755859375 C 83.05401611328125 74.87847900390625 86.26304626464844 70.11915588378906 88.50419616699219 64.82049560546875 C 90.82384490966797 59.33623123168945 92 53.50878524780273 92 47.5 C 92 41.49121475219727 90.82384490966797 35.66376876831055 88.50419616699219 30.17950439453125 C 86.26304626464844 24.88084411621094 83.05401611328125 20.12152099609375 78.96624755859375 16.03375244140625 C 74.87847900390625 11.94598388671875 70.11915588378906 8.736953735351562 64.82049560546875 6.495796203613281 C 59.33623123168945 4.176155090332031 53.50878524780273 3 47.5 3 M 47.5 0 C 73.7335205078125 0 95 21.2664794921875 95 47.5 C 95 73.7335205078125 73.7335205078125 95 47.5 95 C 21.2664794921875 95 0 73.7335205078125 0 47.5 C 0 21.2664794921875 21.2664794921875 0 47.5 0 Z" stroke="none" fill="#9b4467"/>
                        </g>
                      </g>
                    </g>
                  </g>
                </g>
              </g>
            </g>
          </g>
        </g>
      </g>
      <g id="anuncios" transform="translate(928.061 965.186)">
        <g id="Group_1220008" data-name="Group 1220008" transform="translate(0.925 0.925)">
          <path id="Path_1160542" data-name="Path 1160542" d="M235.3,310.511l3.645.013-3.491,12.081-6.841.655Z" transform="translate(-201.337 -273.128)" fill="#f2bb88"/>
          <path id="Path_1160543" data-name="Path 1160543" d="M88.807,294.38H45.991a3.279,3.279,0,0,1-2.224-1.257l-2.5-2.857H93.207l-.739,1.6-1.39,1.513A3.084,3.084,0,0,1,88.807,294.38Z" transform="translate(-36.741 -255.38)" fill="#8e868e"/>
          <path id="Path_1160544" data-name="Path 1160544" d="M92.472,286.5H45.191a.493.493,0,0,0-.363.827l1.545,1.682h-.379a3.086,3.086,0,0,1-2.271-1l-2.863-3.116,29.287-.757,23.8.757Z" transform="translate(-36.744 -250.008)" fill="#766d78"/>
          <path id="Path_1160545" data-name="Path 1160545" d="M110.112,323.945l-10.658,7.648a7.687,7.687,0,0,1-4.559,1.441L91.446,333a5.782,5.782,0,0,1-5.679-5.065,5.7,5.7,0,0,0-1.344-3.022l-.029-.033a3.731,3.731,0,0,0-2.829-1.3H79.848a1.335,1.335,0,0,0-.877,2.341l.051.044a3.461,3.461,0,0,1,1.106,3.4l-.168.722a5.67,5.67,0,0,1-5.522,4.385l-.52,5.078.52,4.727h4.991a36.566,36.566,0,0,0,11.887-2.056l7.428-2.556a6.24,6.24,0,0,0,2.421-1.527l11.029-11.273a2.023,2.023,0,0,0,.5-2.609,1.876,1.876,0,0,0-1.459-.67A1.916,1.916,0,0,0,110.112,323.945Z" transform="translate(-65.723 -284.586)" fill="#f2d1a5"/>
          <path id="Path_1160546" data-name="Path 1160546" d="M116.289,331.638l-11.421,11.627a6.243,6.243,0,0,1-2.422,1.527l-7.427,2.556a36.56,36.56,0,0,1-11.9,1.99H78.13v-1.727h4.251a36.559,36.559,0,0,0,11.9-1.99l7.427-2.556a6.244,6.244,0,0,0,2.422-1.527l12.252-12.488A1.909,1.909,0,0,1,116.289,331.638Z" transform="translate(-69.416 -289.379)" fill="#f2bb88"/>
          <path id="Path_1160547" data-name="Path 1160547" d="M15.734,412.331h-6A1.234,1.234,0,0,1,8.5,411.1v-10.24a1.234,1.234,0,0,1,1.234-1.234l1.851-.123h4.273a1.234,1.234,0,0,1,1.234,1.234v2.421l-.4,1.06.4.79v4.365l-.123,1.727A1.234,1.234,0,0,1,15.734,412.331Z" transform="translate(-8.377 -351.138)" fill="#e8e8e8"/>
          <path id="Path_1160548" data-name="Path 1160548" d="M16.214,409.37v1.851a1.234,1.234,0,0,1-1.234,1.234H8.734A1.234,1.234,0,0,1,7.5,411.22V405l.276-.763L7.5,403.154v-2.421A1.234,1.234,0,0,1,8.734,399.5h1.974v9.253a.617.617,0,0,0,.617.617Z" transform="translate(-7.5 -351.138)" fill="#d8d8d8"/>
          <path id="Path_1160549" data-name="Path 1160549" d="M105.183,38.273H56.164l-.081-25.966c0-1.573.507-3.436,1.764-4.191A4.3,4.3,0,0,1,60.067,7.5h41.36a4.318,4.318,0,0,1,4.318,4.318V36.175Z" transform="translate(-50.089 -7.501)" fill="#f8f7f7"/>
          <g id="Group_1220006" data-name="Group 1220006" transform="translate(32.262 14.188)">
            <g id="Group_1220004" data-name="Group 1220004" transform="translate(7.402)">
              <path id="Path_1160550" data-name="Path 1160550" d="M332.961,122.5h-1.48l-.864.123a.617.617,0,0,0-.617.617v6.539a.617.617,0,0,0,.617.617h2.221a.617.617,0,0,0,.617-.617l.123-.864v-5.8A.617.617,0,0,0,332.961,122.5Z" transform="translate(-329.877 -122.5)" fill="#df646e"/>
              <path id="Path_1160551" data-name="Path 1160551" d="M332.7,128.915v.987a.617.617,0,0,1-.617.617h-2.467A.617.617,0,0,1,329,129.9v-6.786a.617.617,0,0,1,.617-.617h.987v6.045a.37.37,0,0,0,.37.37Z" transform="translate(-329 -122.5)" fill="#dc4955"/>
            </g>
            <g id="Group_1220005" data-name="Group 1220005" transform="translate(0 4.071)">
              <path id="Path_1160552" data-name="Path 1160552" d="M272.961,155.5h-1.48l-.864.123a.617.617,0,0,0-.617.617v2.467a.617.617,0,0,0,.617.617h2.221a.617.617,0,0,0,.617-.617l.123-.864v-1.727A.617.617,0,0,0,272.961,155.5Z" transform="translate(-269.877 -155.5)" fill="#ffd163"/>
              <path id="Path_1160553" data-name="Path 1160553" d="M272.7,157.844v.987a.617.617,0,0,1-.617.617h-2.467a.617.617,0,0,1-.617-.617v-2.714a.617.617,0,0,1,.617-.617h.987v1.974a.37.37,0,0,0,.37.37Z" transform="translate(-269 -155.5)" fill="#ffb65f"/>
            </g>
          </g>
          <path id="Path_1160554" data-name="Path 1160554" d="M103.376,40.54v2.1l-24.319.886L53.38,42.637V16.184a4.314,4.314,0,0,1,2.1-3.7V39.8a.74.74,0,0,0,.74.74Z" transform="translate(-47.72 -11.866)" fill="#e8e8e8"/>
          <g id="Group_1220007" data-name="Group 1220007" transform="translate(47.067 6.909)">
            <path id="Path_1160555" data-name="Path 1160555" d="M392.961,63.5h-1.48l-.864.123a.617.617,0,0,0-.617.617V78.058a.617.617,0,0,0,.617.617h2.221a.617.617,0,0,0,.617-.617l.123-.864V64.117A.617.617,0,0,0,392.961,63.5Z" transform="translate(-389.877 -63.5)" fill="#ccf49f"/>
            <path id="Path_1160556" data-name="Path 1160556" d="M392.7,77.194v.987a.617.617,0,0,1-.617.617h-2.467a.617.617,0,0,1-.617-.617V64.117a.617.617,0,0,1,.617-.617h.987V76.824a.37.37,0,0,0,.37.37Z" transform="translate(-389 -63.5)" fill="#b3e59f"/>
          </g>
          <path id="Path_1160557" data-name="Path 1160557" d="M67.718,261.035H11.889l-1.745-.077a1.732,1.732,0,0,1-1.786-1.773v-.413a1.71,1.71,0,0,1,1.752-1.78l1.766-.071H67.718a1.851,1.851,0,0,1,1.851,1.851v.413A1.851,1.851,0,0,1,67.718,261.035Z" transform="translate(-8.252 -226.149)" fill="#9e959e"/>
          <path id="Path_1160558" data-name="Path 1160558" d="M11.571,261.034H9.351A1.851,1.851,0,0,1,7.5,259.184v-.413a1.851,1.851,0,0,1,1.851-1.851h2.221a1.851,1.851,0,0,0-1.851,1.851v.413A1.851,1.851,0,0,0,11.571,261.034Z" transform="translate(-7.5 -226.148)" fill="#8e868e"/>
        </g>
        <g id="Group_1220009" data-name="Group 1220009" transform="translate(0)">
          <path id="Path_1160559" data-name="Path 1160559" d="M60.391,30.772H56.257a5.219,5.219,0,0,0,1.25-3.393V5.243A5.249,5.249,0,0,0,52.264,0H19.989a.925.925,0,0,0,0,1.851H52.264a3.4,3.4,0,0,1,3.393,3.393V27.379a3.4,3.4,0,0,1-3.393,3.393H10.9a3.4,3.4,0,0,1-3.393-3.393V5.243A3.4,3.4,0,0,1,10.9,1.851h4.762a.925.925,0,1,0,0-1.851H10.9A5.249,5.249,0,0,0,5.66,5.243V27.379a5.219,5.219,0,0,0,1.25,3.393H2.776A2.779,2.779,0,0,0,0,33.548v.413a2.779,2.779,0,0,0,2.776,2.776H4.634l2.589,2.818a4.02,4.02,0,0,0,2.952,1.3h2.652A2.371,2.371,0,0,0,13.615,43a2.538,2.538,0,0,1,.813,2.492,4.976,4.976,0,0,1-3.984,4.322,2.161,2.161,0,0,0-2.039-1.456H2.159A2.162,2.162,0,0,0,0,50.521V61.008a2.162,2.162,0,0,0,2.159,2.159H8.406a2.161,2.161,0,0,0,2-1.357h4.222a37.407,37.407,0,0,0,12.2-2.04l7.428-2.556a7.2,7.2,0,0,0,2.78-1.754l4.439-4.519a.925.925,0,1,0-1.32-1.3l-4.439,4.519a5.342,5.342,0,0,1-2.062,1.3L26.228,58.02a35.565,35.565,0,0,1-11.6,1.94H10.565V51.672a6.773,6.773,0,0,0,5.666-5.756,4.386,4.386,0,0,0-1.4-4.306.439.439,0,0,1-.164-.5.389.389,0,0,1,.349-.263h1.891a2.81,2.81,0,0,1,1.988.973l.029.034a4.762,4.762,0,0,1,1.126,2.532,6.731,6.731,0,0,0,6.588,5.875l3.449.035A8.576,8.576,0,0,0,35.2,48.684l10.658-7.648a.985.985,0,0,1,.578-.186.991.991,0,0,1,.707,1.686l-3.965,4.036a.925.925,0,0,0,1.32,1.3l3.965-4.036a2.8,2.8,0,0,0,.634-2.983h3.9a4.02,4.02,0,0,0,2.952-1.3l2.589-2.818h1.858a2.779,2.779,0,0,0,2.776-2.776v-.413a2.779,2.779,0,0,0-2.776-2.776ZM8.714,61.008a.309.309,0,0,1-.308.308H2.159a.309.309,0,0,1-.308-.308V54.792H8.714Zm0-8.067H1.851v-2.42a.309.309,0,0,1,.308-.308H8.406a.309.309,0,0,1,.308.308Zm19.823-4.509-1.88-.019a4.874,4.874,0,0,1-4.77-4.254,6.607,6.607,0,0,0-1.394-3.309h12.02Zm6.711-2.064-1.132.812a6.711,6.711,0,0,1-3.49,1.253L34.6,40.85h2.24Zm2.43-1.744,1.091-3.774h4.169ZM61.317,33.96a.926.926,0,0,1-.925.925H24.914a.925.925,0,1,0,0,1.851H56.02L54.581,38.3a2.164,2.164,0,0,1-1.589.7c-4.851,0-38.94,0-42.817,0a2.165,2.165,0,0,1-1.589-.7L7.147,36.736H20.619a.925.925,0,0,0,0-1.851H2.776a.926.926,0,0,1-.925-.925v-.413a.926.926,0,0,1,.925-.925H60.391a.926.926,0,0,1,.925.925Z" transform="translate(0)"/>
          <path id="Path_1160560" data-name="Path 1160560" d="M265.51,148h-2.467a1.544,1.544,0,0,0-1.542,1.542v2.714a1.544,1.544,0,0,0,1.542,1.542h2.467a1.544,1.544,0,0,0,1.542-1.542v-2.714A1.544,1.544,0,0,0,265.51,148Zm-.308,3.948h-1.851v-2.1H265.2Z" transform="translate(-229.238 -129.741)"/>
          <path id="Path_1160561" data-name="Path 1160561" d="M325.51,124.87a1.544,1.544,0,0,0,1.542-1.542v-6.786A1.544,1.544,0,0,0,325.51,115h-2.467a1.544,1.544,0,0,0-1.542,1.542v6.786a1.544,1.544,0,0,0,1.542,1.542Zm-2.159-8.019H325.2v6.169h-1.851Z" transform="translate(-281.836 -100.812)"/>
          <path id="Path_1160562" data-name="Path 1160562" d="M386.126,62.784a.925.925,0,0,0,.925-.925V57.542A1.544,1.544,0,0,0,385.51,56h-2.467a1.544,1.544,0,0,0-1.542,1.542V71.607a1.544,1.544,0,0,0,1.542,1.542h2.467a1.544,1.544,0,0,0,1.542-1.542V66.19a.925.925,0,0,0-1.851,0V71.3h-1.851V57.851H385.2v4.008A.925.925,0,0,0,386.126,62.784Z" transform="translate(-334.433 -49.091)"/>
          <path id="Path_1160563" data-name="Path 1160563" d="M261.5,211.925a.925.925,0,0,0,.925.925h18.506a.925.925,0,0,0,0-1.851H262.425A.925.925,0,0,0,261.5,211.925Z" transform="translate(-229.238 -184.968)"/>
          <path id="Path_1160564" data-name="Path 1160564" d="M89.281,50a1.122,1.122,0,0,0-1.042.719l-2.3,6.046a.925.925,0,0,0,1.73.658l.366-.962h2.477l.362.959a.925.925,0,0,0,1.732-.653l-2.279-6.045A1.121,1.121,0,0,0,89.281,50Zm-.543,4.611.54-1.419.535,1.419Z" transform="translate(-75.283 -43.831)"/>
          <path id="Path_1160565" data-name="Path 1160565" d="M158.06,58.019h.016c1.973-.034,3.4-1.717,3.4-4,0-2.4-1.4-4.016-3.472-4.016h-1.774a.925.925,0,0,0-.925.925v6.169a.925.925,0,0,0,.925.925Zm-.9-6.169h.848c1.5,0,1.622,1.658,1.622,2.166,0,1.056-.488,2.129-1.578,2.152h-.892Z" transform="translate(-136.148 -43.831)"/>
          <path id="Path_1160566" data-name="Path 1160566" d="M135.879,151.925a.925.925,0,0,0,.925.925h10.877a.925.925,0,0,0,0-1.851H136.8A.925.925,0,0,0,135.879,151.925Z" transform="translate(-119.115 -132.371)"/>
          <path id="Path_1160567" data-name="Path 1160567" d="M86.8,152.851h2.467a.925.925,0,0,0,0-1.851H86.8a.925.925,0,0,0,0,1.851Z" transform="translate(-75.284 -132.371)"/>
          <path id="Path_1160568" data-name="Path 1160568" d="M189.756,181.925a.925.925,0,0,0-.925-.925h-5.086a.925.925,0,0,0,0,1.851h5.086A.925.925,0,0,0,189.756,181.925Z" transform="translate(-160.264 -158.669)"/>
          <path id="Path_1160569" data-name="Path 1160569" d="M95.988,181.925a.925.925,0,0,0-.925-.925H86.8a.925.925,0,0,0,0,1.851h8.259A.925.925,0,0,0,95.988,181.925Z" transform="translate(-75.284 -158.669)"/>
          <path id="Path_1160570" data-name="Path 1160570" d="M144.159,212.851h6.268a.925.925,0,1,0,0-1.851h-6.268a.925.925,0,0,0,0,1.851Z" transform="translate(-125.563 -184.968)"/>
          <path id="Path_1160571" data-name="Path 1160571" d="M86.8,211a.925.925,0,0,0,0,1.851h3.375a.925.925,0,1,0,0-1.851Z" transform="translate(-75.284 -184.968)"/>
          <path id="Path_1160572" data-name="Path 1160572" d="M221.83,56.161a1.992,1.992,0,0,1-1.464-.61.925.925,0,1,0-1.371,1.243,3.816,3.816,0,0,0,2.835,1.218,2.7,2.7,0,0,0,2.748-2.1,2.468,2.468,0,0,0-1.892-2.73c-.794-.293-1.312-.511-1.43-.561-.228-.121-.244-.256-.235-.348a.435.435,0,0,1,.3-.369,1.761,1.761,0,0,1,1.546.337.925.925,0,0,0,1.228-1.384,3.619,3.619,0,0,0-3.275-.734,2.285,2.285,0,0,0-1.641,1.975,2.2,2.2,0,0,0,1.27,2.189c.082.039.556.242,1.6.631.376.139.761.387.71.668A.9.9,0,0,1,221.83,56.161Z" transform="translate(-191.767 -43.824)"/>
        </g>
      </g>
    </g>
  </g>
</svg>
