<svg xmlns="http://www.w3.org/2000/svg" xmlns:xlink="http://www.w3.org/1999/xlink" width="103" height="103" viewBox="0 0 103 103">
  <defs>
    <filter id="Path_978624" x="0" y="0" width="103" height="103" filterUnits="userSpaceOnUse">
      <feOffset dy="3" input="SourceAlpha"/>
      <feGaussianBlur stdDeviation="3" result="blur"/>
      <feFlood flood-opacity="0.161"/>
      <feComposite operator="in" in2="blur"/>
      <feComposite in="SourceGraphic"/>
    </filter>
  </defs>
  <g id="Group_1220140" data-name="Group 1220140" transform="translate(-171 -3145)">
    <g id="Group_1220044" data-name="Group 1220044">
      <g id="Group_1219602" data-name="Group 1219602" transform="translate(0 1482)">
        <g id="Group_1202656" data-name="Group 1202656" transform="translate(0 -1210)">
          <g id="Group_1176881" data-name="Group 1176881" transform="translate(0 7)">
            <g id="Group_1175148" data-name="Group 1175148" transform="translate(0 1580)">
              <g id="Group_1173798" data-name="Group 1173798" transform="translate(-3 -3520)">
                <g id="Group_1171925" data-name="Group 1171925" transform="translate(-22 -2246)">
                  <g id="Group_1164524" data-name="Group 1164524" transform="translate(205 7058)">
                    <g id="Group_1144123" data-name="Group 1144123">
                      <g transform="matrix(1, 0, 0, 1, -9, -6)" filter="url(#Path_978624)">
                        <g id="Path_978624-2" data-name="Path 978624" transform="translate(9 6)" fill="#fff9ee">
                          <path d="M 42.5 83.5 C 36.96437835693359 83.5 31.59512901306152 82.41617584228516 26.54141235351562 80.27863311767578 C 21.65934181213379 78.21369171142578 17.27447128295898 75.25723266601562 13.50862312316895 71.49137878417969 C 9.742764472961426 67.72553253173828 6.786305904388428 63.34066009521484 4.721364498138428 58.45858764648438 C 2.583823442459106 53.40486907958984 1.5 48.03562164306641 1.5 42.5 C 1.5 36.96437835693359 2.583823442459106 31.59512901306152 4.721364498138428 26.54141235351562 C 6.786305904388428 21.65934181213379 9.742764472961426 17.27447128295898 13.50862312316895 13.50862312316895 C 17.27447128295898 9.742764472961426 21.65934181213379 6.786305904388428 26.54141235351562 4.721364498138428 C 31.59512901306152 2.583823442459106 36.96437835693359 1.5 42.5 1.5 C 48.03562164306641 1.5 53.40486907958984 2.583823442459106 58.45858764648438 4.721364498138428 C 63.34066009521484 6.786305904388428 67.72553253173828 9.742764472961426 71.49137878417969 13.50862312316895 C 75.25723266601562 17.27447128295898 78.21369171142578 21.65934181213379 80.27863311767578 26.54141235351562 C 82.41617584228516 31.59512901306152 83.5 36.96437835693359 83.5 42.5 C 83.5 48.03562164306641 82.41617584228516 53.40486907958984 80.27863311767578 58.45858764648438 C 78.21369171142578 63.34066009521484 75.25723266601562 67.72553253173828 71.49137878417969 71.49137878417969 C 67.72553253173828 75.25723266601562 63.34066009521484 78.21369171142578 58.45858764648438 80.27863311767578 C 53.40486907958984 82.41617584228516 48.03562164306641 83.5 42.5 83.5 Z" stroke="none"/>
                          <path d="M 42.5 3 C 37.16621398925781 3 31.99356079101562 4.043960571289062 27.125732421875 6.102882385253906 C 22.42246627807617 8.092185974121094 18.19785308837891 10.94070434570312 14.56928253173828 14.56928253173828 C 10.94070434570312 18.19785308837891 8.092185974121094 22.42246627807617 6.102882385253906 27.125732421875 C 4.043960571289062 31.99356079101562 3 37.16621398925781 3 42.5 C 3 47.83378601074219 4.043960571289062 53.00643920898438 6.102882385253906 57.87425231933594 C 8.092185974121094 62.57753372192383 10.94070434570312 66.80213165283203 14.56928253173828 70.43071746826172 C 18.19786834716797 74.05929565429688 22.42246627807617 76.90781402587891 27.125732421875 78.89711761474609 C 31.99356079101562 80.95603942871094 37.16621398925781 82 42.5 82 C 47.83378601074219 82 53.00642395019531 80.95603942871094 57.87425231933594 78.89711761474609 C 62.57753372192383 76.90781402587891 66.80213165283203 74.05929565429688 70.43071746826172 70.43071746826172 C 74.05929565429688 66.80213165283203 76.90781402587891 62.57753372192383 78.89711761474609 57.87425231933594 C 80.95603942871094 53.00642395019531 82 47.83378601074219 82 42.5 C 82 37.16621398925781 80.95603942871094 31.99356079101562 78.89711761474609 27.125732421875 C 76.90781402587891 22.42246627807617 74.05929565429688 18.19786834716797 70.43071746826172 14.56928253173828 C 66.80213165283203 10.94070434570312 62.57753372192383 8.092185974121094 57.87425231933594 6.102882385253906 C 53.00643920898438 4.043960571289062 47.83378601074219 3 42.5 3 M 42.5 0 C 65.97209167480469 0 85 19.02789306640625 85 42.5 C 85 65.97209167480469 65.97209167480469 85 42.5 85 C 19.02789306640625 85 0 65.97209167480469 0 42.5 C 0 19.02789306640625 19.02789306640625 0 42.5 0 Z" stroke="none" fill="#ffeed0"/>
                        </g>
                      </g>
                    </g>
                  </g>
                </g>
              </g>
            </g>
          </g>
        </g>
      </g>
      <g id="cesta-de-la-compra" transform="translate(190.682 3160.019)">
        <g id="Group_1220042" data-name="Group 1220042" transform="translate(0.932 2.833)">
          <path id="Path_1160601" data-name="Path 1160601" d="M275.567,122.1l-.963-.1-1.215,1.133,5.736,12.324h1.694l.646-.47Z" transform="translate(-240.343 -108.006)" fill="#ff76aa"/>
          <path id="Path_1160602" data-name="Path 1160602" d="M198.986,122.288l-.634-.29-.525.242-6.056,13.215h2.141l.707-.47,5.014-10.959A1.311,1.311,0,0,0,198.986,122.288Z" transform="translate(-168.868 -108.006)" fill="#ff76aa"/>
          <g id="Group_1220040" data-name="Group 1220040" transform="translate(0 0)">
            <path id="Path_1160603" data-name="Path 1160603" d="M299.041,64.214A30.882,30.882,0,0,0,283.667,9.428c-.051-.006-.1-.009-.151-.01l-.348.748.435,2.858s24.09,4.688,24.09,25.9c0,0,.621,13.964-9.362,22.291l-1.056-.787-1.153-.2-.037.03a.742.742,0,0,1-1.055-.131l-.154-.2-1.37.009-1.7,7.395.389.915,6.647.193a1.222,1.222,0,0,0,1.009-1.961l-.937-1.233A.741.741,0,0,1,299.041,64.214Z" transform="translate(-248.907 -9.417)" fill="#8896e0"/>
            <path id="Path_1160604" data-name="Path 1160604" d="M37.287,28.546l-.528,1.017L38.3,31.832S25.835,38.341,25.835,56.32,41.411,83.662,41.411,83.662l3.682,1.781s5.158,1.538,5.2,1.538l1.376-.013a1.518,1.518,0,0,0,.6-1.347l-.17-1.933a1.524,1.524,0,0,0-1.309-1.374A25.944,25.944,0,0,1,38.4,36.234a.432.432,0,0,1,.61.081l1.108,1.459a1.222,1.222,0,0,0,2.16-.446l1.815-7.335a1.222,1.222,0,0,0-1.151-1.515l-5.031-.146Z" transform="translate(-23.556 -25.98)" fill="#8896e0"/>
            <g id="Group_1220038" data-name="Group 1220038" transform="translate(33.045)">
              <path id="Path_1160605" data-name="Path 1160605" d="M291.888,24.368a25.946,25.946,0,0,1-4.332,35.855,1.374,1.374,0,0,1,.136.155l.961,1.286a.77.77,0,0,0,1.107.14,27.972,27.972,0,0,0,4.581-38.255A27.033,27.033,0,0,0,276.486,12.9a1.607,1.607,0,0,1-1.36-1.463l-.174-2.019a1.522,1.522,0,0,0-1.557,1.654l.17,1.933a1.518,1.518,0,0,0,1.3,1.372A25.86,25.86,0,0,1,291.888,24.368Z" transform="translate(-273.389 -9.413)" fill="#6b7ed9"/>
              <path id="Path_1160606" data-name="Path 1160606" d="M342.841,406.259a1.272,1.272,0,0,1,.882-.934l-.762-1a1.222,1.222,0,0,0-2.16.446l-1.815,7.335a1.222,1.222,0,0,0,1.151,1.515l.907.026Z" transform="translate(-330.802 -354.818)" fill="#6b7ed9"/>
            </g>
            <g id="Group_1220039" data-name="Group 1220039" transform="translate(0 2.278)">
              <path id="Path_1160607" data-name="Path 1160607" d="M16.768,74.788a30.882,30.882,0,0,1,5.573-43.009.434.434,0,0,0,.081-.6L21.3,29.7a1.224,1.224,0,0,1,.549-1.888l-2.523-.073A1.222,1.222,0,0,0,18.319,29.7l1.12,1.475a.434.434,0,0,1-.081.6A30.881,30.881,0,0,0,34.5,86.747a1.511,1.511,0,0,0,1.11-.3A30.765,30.765,0,0,1,16.768,74.788Z" transform="translate(-7.494 -27.739)" fill="#6b7ed9"/>
            </g>
          </g>
          <path id="Path_1160608" data-name="Path 1160608" d="M194.161,257.7H171.418l1.336,1.15,2.759,12.428,1.6.876h12.268a3.2,3.2,0,0,0,3.122-2.494l2.535-11.2Z" transform="translate(-151.045 -226.84)" fill="#ff76aa"/>
          <g id="Group_1220041" data-name="Group 1220041" transform="translate(17.771 13.323)">
            <path id="Path_1160609" data-name="Path 1160609" d="M157.2,269.656l-2.535-11.2.582-.764h-4.187l-.582.764,2.535,11.2a3.2,3.2,0,0,0,3.122,2.495h4.187A3.2,3.2,0,0,1,157.2,269.656Z" transform="translate(-150.482 -240.163)" fill="#ff5595"/>
            <path id="Path_1160610" data-name="Path 1160610" d="M182.407,117.381c.015-.034.033-.065.05-.1l-1.2-.55a1.311,1.311,0,0,0-1.738.647l-5.9,12.89.4.47h2.889l-.4-.47Z" transform="translate(-170.745 -116.615)" fill="#ff5595"/>
            <path id="Path_1160611" data-name="Path 1160611" d="M259,119.313a1.311,1.311,0,0,1,.647-1.738l.634-.29a1.311,1.311,0,0,0-1.688-.55l-1.836.84a1.311,1.311,0,0,0-.647,1.738l5.014,10.959.5.47h2.889l-.5-.47Z" transform="translate(-242.881 -116.616)" fill="#ff5595"/>
          </g>
          <path id="Path_1160612" data-name="Path 1160612" d="M195.041,226.5H172.326l-.909.708v3.169l.888.764h22.736a1.311,1.311,0,0,0,1.311-1.311v-2.019A1.311,1.311,0,0,0,195.041,226.5Z" transform="translate(-151.045 -199.518)" fill="#ff94bc"/>
          <path id="Path_1160613" data-name="Path 1160613" d="M144.118,229.826v-2.019a1.311,1.311,0,0,1,1.311-1.311h-4.187a1.311,1.311,0,0,0-1.311,1.311v2.019a1.311,1.311,0,0,0,1.311,1.311h4.187A1.311,1.311,0,0,1,144.118,229.826Z" transform="translate(-123.472 -199.517)" fill="#ff76aa"/>
        </g>
        <g id="Group_1220043" data-name="Group 1220043" transform="translate(0 1.899)">
          <path id="Path_1160614" data-name="Path 1160614" d="M268.679,1.919a2.455,2.455,0,0,0-2.754,2.65l.17,1.933a2.439,2.439,0,0,0,2.095,2.213,25.012,25.012,0,0,1,12.358,44.107l-.8-1.051a2.155,2.155,0,0,0-3.807.786l-1.815,7.335a2.154,2.154,0,0,0,2.029,2.671c.049,0,7.569.22,7.618.22a2.155,2.155,0,0,0,1.713-3.457l-.824-1.085A31.814,31.814,0,0,0,268.679,1.919ZM283.355,56.9a1.683,1.683,0,0,0-.29,2.321L284,60.454a.289.289,0,0,1-.239.465L276.21,60.7a.29.29,0,0,1-.273-.36l1.815-7.335a.289.289,0,0,1,.513-.106l.916,1.207a1.675,1.675,0,0,0,2.383.293A26.877,26.877,0,0,0,268.45,6.87a.583.583,0,0,1-.5-.531l-.17-1.933a.59.59,0,0,1,.662-.638,29.725,29.725,0,0,1,20.091,11.6,30.12,30.12,0,0,1-5.18,41.534Z" transform="translate(-232.867 -1.899)"/>
          <path id="Path_1160615" data-name="Path 1160615" d="M27.826,81.1a2.455,2.455,0,0,0,2.754-2.65l-.17-1.933A2.439,2.439,0,0,0,28.315,74.3,25.012,25.012,0,0,1,15.957,30.2l.8,1.051a2.155,2.155,0,0,0,3.807-.786l1.815-7.335a2.154,2.154,0,0,0-2.029-2.671L12.8,20.237a2.155,2.155,0,0,0-1.778,3.456l.824,1.085A31.814,31.814,0,0,0,27.826,81.1ZM13.7,25.689a.932.932,0,0,0,.179-1.306L12.5,22.566a.289.289,0,0,1,.229-.466h.01l7.553.219a.29.29,0,0,1,.273.36l-1.815,7.335a.289.289,0,0,1-.513.106l-1.372-1.807a.933.933,0,0,0-1.306-.178A26.877,26.877,0,0,0,28.054,76.15a.583.583,0,0,1,.5.531l.17,1.933a.591.591,0,0,1-.662.638A29.949,29.949,0,0,1,13.7,25.689Z" transform="translate(0 -17.957)"/>
          <path id="Path_1160616" data-name="Path 1160616" d="M196.9,286.679v5.22a.932.932,0,1,0,1.864,0v-5.22a.932.932,0,1,0-1.864,0Z" transform="translate(-172.427 -250.47)"/>
          <path id="Path_1160617" data-name="Path 1160617" d="M232.245,285.747a.932.932,0,0,0-.932.932v5.22a.932.932,0,1,0,1.864,0v-5.22A.932.932,0,0,0,232.245,285.747Z" transform="translate(-202.565 -250.47)"/>
          <path id="Path_1160618" data-name="Path 1160618" d="M266.662,292.831a.932.932,0,0,0,.932-.932v-5.22a.932.932,0,1,0-1.864,0v5.22A.932.932,0,0,0,266.662,292.831Z" transform="translate(-232.705 -250.47)"/>
          <path id="Path_1160619" data-name="Path 1160619" d="M302.011,291.9v-5.22a.932.932,0,1,0-1.864,0v5.22a.932.932,0,1,0,1.864,0Z" transform="translate(-262.845 -250.47)"/>
          <path id="Path_1160620" data-name="Path 1160620" d="M148.968,111.85l1.836-.84a.379.379,0,0,1,.5.187l1.88,4.109a.932.932,0,0,0,1.7-.776L153,110.421a2.242,2.242,0,0,0-2.973-1.107l-1.836.84a2.269,2.269,0,0,0-.379.22,2.236,2.236,0,0,0-.378-.22l-1.836-.84a2.246,2.246,0,0,0-2.973,1.107l-5.648,12.346H134.7a2.246,2.246,0,0,0-2.243,2.243v2.019a2.245,2.245,0,0,0,1.467,2.1l2.4,10.61a4.112,4.112,0,0,0,4.031,3.221h5.281a.932.932,0,0,0,0-1.864h-5.281a2.258,2.258,0,0,1-2.213-1.768l-2.277-10.057H159.76l-2.277,10.057a2.257,2.257,0,0,1-2.213,1.768h-5.281a.932.932,0,1,0,0,1.864h5.281a4.112,4.112,0,0,0,4.031-3.221l2.4-10.61a2.245,2.245,0,0,0,1.467-2.1V125.01a2.246,2.246,0,0,0-2.243-2.243h-2.277l-1.958-4.279a.932.932,0,0,0-1.7.776l1.6,3.5h-3.054l-4.765-10.415a.379.379,0,0,1,.187-.5Zm-4.646-.653a.379.379,0,0,1,.5-.187l1.836.84a.38.38,0,0,1,.187.5l-4.765,10.415h-3.054Zm16.606,13.434a.38.38,0,0,1,.379.379v2.019a.379.379,0,0,1-.379.379H134.7a.38.38,0,0,1-.379-.379V125.01a.38.38,0,0,1,.379-.379h26.226Zm-9.432-1.864h-7.363l3.681-8.047Z" transform="translate(-115.995 -95.786)"/>
        </g>
      </g>
    </g>
  </g>
</svg>
