<svg xmlns="http://www.w3.org/2000/svg" xmlns:xlink="http://www.w3.org/1999/xlink" width="103" height="103" viewBox="0 0 103 103">
  <defs>
    <filter id="Path_978624" x="0" y="0" width="103" height="103" filterUnits="userSpaceOnUse">
      <feOffset dy="3" input="SourceAlpha"/>
      <feGaussianBlur stdDeviation="3" result="blur"/>
      <feFlood flood-opacity="0.161"/>
      <feComposite operator="in" in2="blur"/>
      <feComposite in="SourceGraphic"/>
    </filter>
  </defs>
  <g id="Group_1220107" data-name="Group 1220107" transform="translate(-171 -5117)">
    <g id="Group_1220045" data-name="Group 1220045">
      <g id="Group_1219697" data-name="Group 1219697" transform="translate(0 3454)">
        <g id="Group_1202656" data-name="Group 1202656" transform="translate(0 -1210)">
          <g id="Group_1176881" data-name="Group 1176881" transform="translate(0 7)">
            <g id="Group_1175148" data-name="Group 1175148" transform="translate(0 1580)">
              <g id="Group_1173798" data-name="Group 1173798" transform="translate(-3 -3520)">
                <g id="Group_1171925" data-name="Group 1171925" transform="translate(-22 -2246)">
                  <g id="Group_1164524" data-name="Group 1164524" transform="translate(205 7058)">
                    <g id="Group_1144123" data-name="Group 1144123">
                      <g transform="matrix(1, 0, 0, 1, -9, -6)" filter="url(#Path_978624)">
                        <g id="Path_978624-2" data-name="Path 978624" transform="translate(9 6)" fill="#f4ebee">
                          <path d="M 42.5 83.5 C 36.96437835693359 83.5 31.59512901306152 82.41617584228516 26.54141235351562 80.27863311767578 C 21.65934181213379 78.21369171142578 17.27447128295898 75.25723266601562 13.50862312316895 71.49137878417969 C 9.742764472961426 67.72553253173828 6.786305904388428 63.34066009521484 4.721364498138428 58.45858764648438 C 2.583823442459106 53.40486907958984 1.5 48.03562164306641 1.5 42.5 C 1.5 36.96437835693359 2.583823442459106 31.59512901306152 4.721364498138428 26.54141235351562 C 6.786305904388428 21.65934181213379 9.742764472961426 17.27447128295898 13.50862312316895 13.50862312316895 C 17.27447128295898 9.742764472961426 21.65934181213379 6.786305904388428 26.54141235351562 4.721364498138428 C 31.59512901306152 2.583823442459106 36.96437835693359 1.5 42.5 1.5 C 48.03562164306641 1.5 53.40486907958984 2.583823442459106 58.45858764648438 4.721364498138428 C 63.34066009521484 6.786305904388428 67.72553253173828 9.742764472961426 71.49137878417969 13.50862312316895 C 75.25723266601562 17.27447128295898 78.21369171142578 21.65934181213379 80.27863311767578 26.54141235351562 C 82.41617584228516 31.59512901306152 83.5 36.96437835693359 83.5 42.5 C 83.5 48.03562164306641 82.41617584228516 53.40486907958984 80.27863311767578 58.45858764648438 C 78.21369171142578 63.34066009521484 75.25723266601562 67.72553253173828 71.49137878417969 71.49137878417969 C 67.72553253173828 75.25723266601562 63.34066009521484 78.21369171142578 58.45858764648438 80.27863311767578 C 53.40486907958984 82.41617584228516 48.03562164306641 83.5 42.5 83.5 Z" stroke="none"/>
                          <path d="M 42.5 3 C 37.16621398925781 3 31.99356079101562 4.043960571289062 27.125732421875 6.102882385253906 C 22.42246627807617 8.092185974121094 18.19785308837891 10.94070434570312 14.56928253173828 14.56928253173828 C 10.94070434570312 18.19785308837891 8.092185974121094 22.42246627807617 6.102882385253906 27.125732421875 C 4.043960571289062 31.99356079101562 3 37.16621398925781 3 42.5 C 3 47.83378601074219 4.043960571289062 53.00643920898438 6.102882385253906 57.87425231933594 C 8.092185974121094 62.57753372192383 10.94070434570312 66.80213165283203 14.56928253173828 70.43071746826172 C 18.19786834716797 74.05929565429688 22.42246627807617 76.90781402587891 27.125732421875 78.89711761474609 C 31.99356079101562 80.95603942871094 37.16621398925781 82 42.5 82 C 47.83378601074219 82 53.00642395019531 80.95603942871094 57.87425231933594 78.89711761474609 C 62.57753372192383 76.90781402587891 66.80213165283203 74.05929565429688 70.43071746826172 70.43071746826172 C 74.05929565429688 66.80213165283203 76.90781402587891 62.57753372192383 78.89711761474609 57.87425231933594 C 80.95603942871094 53.00642395019531 82 47.83378601074219 82 42.5 C 82 37.16621398925781 80.95603942871094 31.99356079101562 78.89711761474609 27.125732421875 C 76.90781402587891 22.42246627807617 74.05929565429688 18.19786834716797 70.43071746826172 14.56928253173828 C 66.80213165283203 10.94070434570312 62.57753372192383 8.092185974121094 57.87425231933594 6.102882385253906 C 53.00643920898438 4.043960571289062 47.83378601074219 3 42.5 3 M 42.5 0 C 65.97209167480469 0 85 19.02789306640625 85 42.5 C 85 65.97209167480469 65.97209167480469 85 42.5 85 C 19.02789306640625 85 0 65.97209167480469 0 42.5 C 0 19.02789306640625 19.02789306640625 0 42.5 0 Z" stroke="none" fill="#e0c6d0"/>
                        </g>
                      </g>
                    </g>
                  </g>
                </g>
              </g>
            </g>
          </g>
        </g>
      </g>
      <g id="Filled_outline" data-name="Filled outline" transform="translate(178.807 5119.809)">
        <path id="Path_1160621" data-name="Path 1160621" d="M288,72a5.753,5.753,0,0,1,5.753,5.753V92.134A5.753,5.753,0,0,1,288,86.382Z" transform="translate(-239.402 -49.289)" fill="#6e3c26"/>
        <path id="Path_1160622" data-name="Path 1160622" d="M132.763,228.464v5.753H104v-5.753a4.794,4.794,0,0,1,4.794-4.794h3.835a1.918,1.918,0,0,0,1.918-1.918V216h7.67v5.753a1.918,1.918,0,0,0,1.918,1.918h3.835a4.794,4.794,0,0,1,4.794,4.794Z" transform="translate(-77.454 -176.031)" fill="#fec9a3"/>
        <path id="Path_1160623" data-name="Path 1160623" d="M199.67,216v3.9a8.641,8.641,0,0,1-7.67,0V216Z" transform="translate(-154.907 -176.031)" fill="#fec093"/>
        <path id="Path_1160624" data-name="Path 1160624" d="M85.722,280H83.8a8.162,8.162,0,0,1-15.34,0H66.329a5.753,5.753,0,0,0-5.605,4.459L56,304.928h7.67l2.876-9.588,1.918,2.876v6.711H90.516V284.794A4.794,4.794,0,0,0,85.722,280Z" transform="translate(-35.206 -232.361)" fill="#7eb457"/>
        <path id="Path_1160625" data-name="Path 1160625" d="M122.876,136h1.918v5.753h-1.918a2.876,2.876,0,1,1,0-5.753Z" transform="translate(-91.536 -105.619)" fill="#fec093"/>
        <path id="Path_1160626" data-name="Path 1160626" d="M268.457,375.34h16.015a2.876,2.876,0,0,0,2.854-2.52l1.6-12.821H264l1.6,12.821A2.876,2.876,0,0,0,268.457,375.34Z" transform="translate(-218.278 -302.773)" fill="#d75246"/>
        <path id="Path_1160627" data-name="Path 1160627" d="M375.663,243.524l-4.212-10.37a1.778,1.778,0,0,0-2.657-.825,1.871,1.871,0,0,0-.672,2.22l3.5,8.975Z" transform="translate(-309.807 -190.132)" fill="#4c5985"/>
        <path id="Path_1160628" data-name="Path 1160628" d="M304,243.524l4.212-10.37a1.778,1.778,0,0,1,2.657-.825,1.871,1.871,0,0,1,.672,2.22l-3.5,8.975Z" transform="translate(-253.484 -190.132)" fill="#4c5985"/>
        <rect id="Rectangle_420037" data-name="Rectangle 420037" width="28.763" height="4.23" rx="2.115" transform="translate(72.68 57.452) rotate(180)" fill="#e06257"/>
        <path id="Path_1160629" data-name="Path 1160629" d="M31.67,389.423H24V376h4.794Z" transform="translate(-7.041 -316.856)" fill="#fec093"/>
        <path id="Path_1160630" data-name="Path 1160630" d="M40.138,312.488a2.034,2.034,0,0,1-.012,2.888l-5.249,5.158L32,317.658l5.273-5.182A2.034,2.034,0,0,1,40.138,312.488Z" transform="translate(-14.082 -260.431)" fill="#fec093"/>
        <rect id="Rectangle_420038" data-name="Rectangle 420038" width="10.152" height="15.228" rx="5.076" transform="translate(26.152 52.376) rotate(180)" fill="#d75246"/>
        <rect id="Rectangle_420039" data-name="Rectangle 420039" width="7.614" height="9.306" rx="3.807" transform="translate(23.614 60.836) rotate(180)" fill="#fec9a3"/>
        <path id="Path_1160631" data-name="Path 1160631" d="M24,440v5.753h7.67L30.437,440Z" transform="translate(-7.041 -373.186)" fill="#88c25e"/>
        <path id="Path_1160632" data-name="Path 1160632" d="M2.876,0H4.794V5.753H2.876A2.876,2.876,0,0,1,2.876,0Z" transform="translate(53.392 35.175) rotate(180)" fill="#fec093"/>
        <path id="Path_1160633" data-name="Path 1160633" d="M160.629,89.421A8.629,8.629,0,0,1,152,80.792V72.163c2.876-3.835,13.423-4.794,17.258,0v8.629A8.629,8.629,0,0,1,160.629,89.421Z" transform="translate(-119.701 -46.576)" fill="#fec9a3"/>
        <path id="Path_1160634" data-name="Path 1160634" d="M156.134,36.464a2.87,2.87,0,0,1,.959.164V33.588A9.588,9.588,0,0,0,147.505,24h-1.918A9.588,9.588,0,0,0,136,33.588v4.794c5.38-1.258,10.279-1.7,14.235-4.936l2.17-1.776,2.77,4.794Z" transform="translate(-105.618 -7.042)" fill="#7a432a"/>
        <path id="Path_1160635" data-name="Path 1160635" d="M118.546,348.081l-1.466-1.235a8.168,8.168,0,0,0-1.732,6.887l-2.995,9.748,1.833.563,2.289-7.449a8.934,8.934,0,0,0,.547.794v6.373h1.918v-6.711a.959.959,0,0,0-.224-.617A6.48,6.48,0,0,1,118.546,348.081Z" transform="translate(-84.805 -291.196)"/>
        <circle id="Ellipse_12639" data-name="Ellipse 12639" cx="1.269" cy="1.269" r="1.269" transform="translate(43.917 29.535)"/>
        <path id="Path_1160636" data-name="Path 1160636" d="M202.876,176.959a.96.96,0,0,1-.959-.959H200a2.876,2.876,0,1,0,5.753,0h-1.918A.96.96,0,0,1,202.876,176.959Z" transform="translate(-161.948 -140.825)"/>
        <path id="Path_1160637" data-name="Path 1160637" d="M360,432h1.918v3.835H360Z" transform="translate(-302.773 -366.144)"/>
        <path id="Path_1160638" data-name="Path 1160638" d="M328,432h1.918v3.835H328Z" transform="translate(-274.608 -366.144)"/>
        <path id="Path_1160639" data-name="Path 1160639" d="M296,432h1.918v3.835H296Z" transform="translate(-246.443 -366.144)"/>
        <path id="Path_1160640" data-name="Path 1160640" d="M392,432h1.918v3.835H392Z" transform="translate(-330.938 -366.144)"/>
        <path id="Path_1160641" data-name="Path 1160641" d="M424,432h1.918v3.835H424Z" transform="translate(-359.103 -366.144)"/>
        <path id="Path_1160642" data-name="Path 1160642" d="M360,384h1.918v3.835H360Z" transform="translate(-302.773 -323.897)"/>
        <path id="Path_1160643" data-name="Path 1160643" d="M328,384h1.918v3.835H328Z" transform="translate(-274.608 -323.897)"/>
        <path id="Path_1160644" data-name="Path 1160644" d="M296,384h1.918v3.835H296Z" transform="translate(-246.443 -323.897)"/>
        <path id="Path_1160645" data-name="Path 1160645" d="M392,384h1.918v3.835H392Z" transform="translate(-330.938 -323.897)"/>
        <path id="Path_1160646" data-name="Path 1160646" d="M424,384h1.918v3.835H424Z" transform="translate(-359.103 -323.897)"/>
        <path id="Path_1160647" data-name="Path 1160647" d="M155.152,52.433H151l-3.969-9.772a2.761,2.761,0,0,0-1.765-1.618,2.69,2.69,0,0,0-2.581.567,2.688,2.688,0,0,0-2.581-.567,2.742,2.742,0,0,0-.295.108V28.464a6.713,6.713,0,0,0-3.695-6A10.6,10.6,0,0,0,126.389,16h-1.918a10.447,10.447,0,0,0-6.439,2.193l1.172,1.518a8.545,8.545,0,0,1,5.268-1.794h1.918a8.67,8.67,0,0,1,8.079,5.595,8.568,8.568,0,0,1,.549,3.034v1.918h-.405l-2.493-4.314a.959.959,0,0,0-1.437-.262l-2.17,1.776c-3.01,2.463-6.6,3.21-10.763,4.075-.623.13-1.26.262-1.906.4v-3.6a8.629,8.629,0,0,1,2.062-5.6L116.446,19.7a10.549,10.549,0,0,0-2.521,6.842V29.94a3.833,3.833,0,0,0,1.918,7.153h.439a9.542,9.542,0,0,0,4.355,5.428v3.2a.96.96,0,0,1-.959.959h-3.835c-.051,0-.1,0-.153,0a5.758,5.758,0,0,0-1.32.188l.489,1.854a3.844,3.844,0,0,1,.89-.125l.038,0h1.327a8.947,8.947,0,0,0,3.247,3.871,9.168,9.168,0,0,0,5.069,1.5V52.053a7.08,7.08,0,0,1-6.166-3.455h.413a2.88,2.88,0,0,0,2.876-2.876V43.365a9.648,9.648,0,0,0,5.753,0v2.356a2.88,2.88,0,0,0,2.876,2.876h.412a6.9,6.9,0,0,1-1.735,1.973l1.172,1.518a9.031,9.031,0,0,0,2.715-3.491h1.272V46.68h-3.835a.96.96,0,0,1-.959-.959v-3.2a9.681,9.681,0,0,0,2.681-2.3,6.673,6.673,0,0,0,5,3.523l-3.532,8.695h-4.148a2.876,2.876,0,0,0-.863,5.62l1.514,12.113a3.841,3.841,0,0,0,3.805,3.359H150.7a3.841,3.841,0,0,0,3.805-3.359l.28-2.239-1.9-.238-.28,2.239a1.92,1.92,0,0,1-1.9,1.68H134.681a1.92,1.92,0,0,1-1.9-1.68L131.31,58.185h22.756l-.826,6.606,1.9.238.872-6.975a2.876,2.876,0,0,0-.863-5.621Zm-39.31-17.258a1.915,1.915,0,0,1-1.531-3.068.951.951,0,0,0,.791.167q.372-.087.741-.169v2.111c0,.32.017.64.049.959Zm17.258-.959a7.586,7.586,0,0,1-.785,3.383l-.013.027a7.669,7.669,0,0,1-14.543-3.41V31.694l.379-.079c.538-.112,1.072-.223,1.6-.337a1.437,1.437,0,0,0,2.791-.669,18.738,18.738,0,0,0,7.2-3.464l1.3-1.062,2.077,3.6Zm1.918-3.835a1.918,1.918,0,1,1,0,3.835Zm2.876,11.41a4.764,4.764,0,0,1-3.718-3.644,9.454,9.454,0,0,0,.651-2.013h.191a3.826,3.826,0,0,0,2.877-1.3Zm0-12.026a3.859,3.859,0,0,0-.959-.787V26.546c0-.344-.018-.685-.05-1.024a4.754,4.754,0,0,1,1.009,2.941Zm6.136,13.222a.792.792,0,0,1,.686-.108.852.852,0,0,1,.541.5l3.676,9.049h-1.962l-3.262-8.365A.913.913,0,0,1,144.03,42.988Zm-1.342,3.737,2.226,5.707h-4.451Zm-2.57-3.343a.852.852,0,0,1,.541-.5.792.792,0,0,1,.686.108.913.913,0,0,1,.32,1.08L138.4,52.433h-1.962Zm15.034,12.885H130.224a.959.959,0,1,1,0-1.918h24.928a.959.959,0,0,1,0,1.918Z" transform="translate(-84.502 0)"/>
        <path id="Path_1160648" data-name="Path 1160648" d="M25.588,207.01v-1.465l2.085-2.049a2.993,2.993,0,0,0,.435-3.73,2.881,2.881,0,0,0,.356-1.384V186.876A2.88,2.88,0,0,0,25.588,184H18.876A2.88,2.88,0,0,0,16,186.876v11.505a2.879,2.879,0,0,0,.386,1.439A2.858,2.858,0,0,0,16,201.258v5.753a2.87,2.87,0,0,0,.959,2.142v11.281h1.918v-4.794H23.55V215.5l1.1,5.132,1.875-.4L24.216,209.46A2.876,2.876,0,0,0,25.588,207.01Zm1.063-5.644a1.068,1.068,0,0,1-.321.762l-.741.729v-1.6a2.846,2.846,0,0,0,1.022-.188A1.079,1.079,0,0,1,26.65,201.366Zm-2.021-15.449h.959a.96.96,0,0,1,.959.959v11.505a.971.971,0,0,1-.959.959h-.735a2.862,2.862,0,0,0-.224-.224Zm-6.711.959a.96.96,0,0,1,.959-.959h2.876v12.464H18.876a2.865,2.865,0,0,0-.944.16.959.959,0,0,1-.014-.16Zm.959,26.846v-3.835h3.471l.822,3.835Zm4.794-6.711a.96.96,0,0,1-.959.959H18.876a.96.96,0,0,1-.959-.959v-5.753a.96.96,0,0,1,.959-.959h3.835a.96.96,0,0,1,.959.959Z" transform="translate(0 -147.866)"/>
      </g>
    </g>
  </g>
</svg>
