<svg xmlns="http://www.w3.org/2000/svg" xmlns:xlink="http://www.w3.org/1999/xlink" width="108" height="108" viewBox="0 0 108 108">
  <defs>
    <filter id="Path_904820" x="0" y="0" width="108" height="108" filterUnits="userSpaceOnUse">
      <feOffset dy="3" input="SourceAlpha"/>
      <feGaussianBlur stdDeviation="3" result="blur"/>
      <feFlood flood-opacity="0.161"/>
      <feComposite operator="in" in2="blur"/>
      <feComposite in="SourceGraphic"/>
    </filter>
  </defs>
  <g id="Group_1220114" data-name="Group 1220114" transform="translate(-619.999 -2136.519)">
    <g id="Group_1220047" data-name="Group 1220047">
      <g id="Group_1174814" data-name="Group 1174814" transform="translate(628.999 2142.519)">
        <g id="Group_1173585" data-name="Group 1173585" transform="translate(0 0)">
          <g id="Group_1173428" data-name="Group 1173428">
            <g id="Group_1171958" data-name="Group 1171958">
              <g id="Group_1167341" data-name="Group 1167341">
                <g id="Group_1166792" data-name="Group 1166792">
                  <g transform="matrix(1, 0, 0, 1, -9, -6)" filter="url(#Path_904820)">
                    <g id="Path_904820-2" data-name="Path 904820" transform="translate(9 6)" fill="#fff9ee">
                      <path d="M 44.99999618530273 88.50003814697266 C 39.12687301635742 88.50003814697266 33.43022155761719 87.35011291503906 28.06829643249512 85.08219909667969 C 22.88852119445801 82.89134979248047 18.23629570007324 79.75462341308594 14.24084663391113 75.75917053222656 C 10.24540901184082 71.76372528076172 7.108683586120605 67.11149597167969 4.917821407318115 61.93172454833984 C 2.649921178817749 56.56979751586914 1.499996185302734 50.87314605712891 1.499996185302734 45.00002288818359 C 1.499996185302734 39.12689971923828 2.649921178817749 33.43024826049805 4.917821407318115 28.06830978393555 C 7.108683586120605 22.88853454589844 10.24540901184082 18.2363224029541 14.24084663391113 14.24087333679199 C 18.23629570007324 10.24542331695557 22.88852119445801 7.108697891235352 28.06829643249512 4.917835235595703 C 33.43022155761719 2.649935483932495 39.12687301635742 1.500010371208191 44.99999618530273 1.500010371208191 C 50.87311935424805 1.500010371208191 56.56977081298828 2.649935483932495 61.93169784545898 4.917835235595703 C 67.11147308349609 7.108697891235352 71.76369476318359 10.24542331695557 75.75914764404297 14.24087333679199 C 79.75458526611328 18.2363224029541 82.89131164550781 22.88853454589844 85.08216857910156 28.06830978393555 C 87.35007476806641 33.43024826049805 88.5 39.12689971923828 88.5 45.00002288818359 C 88.5 50.87314605712891 87.35007476806641 56.56979751586914 85.08216857910156 61.93172454833984 C 82.89131164550781 67.11149597167969 79.75458526611328 71.76372528076172 75.75914764404297 75.75917053222656 C 71.76369476318359 79.75462341308594 67.11147308349609 82.89134979248047 61.93169784545898 85.08219909667969 C 56.56977081298828 87.35011291503906 50.87311935424805 88.50003814697266 44.99999618530273 88.50003814697266 Z" stroke="none"/>
                      <path d="M 44.99999618530273 3.000007629394531 C 39.32870864868164 3.000007629394531 33.82865142822266 4.110069274902344 28.65262603759766 6.299354553222656 C 23.65165710449219 8.414581298828125 19.15968322753906 11.44335174560547 15.301513671875 15.30152130126953 C 11.44333648681641 19.15969085693359 8.414566040039062 23.65166473388672 6.299339294433594 28.65263748168945 C 4.110054016113281 33.82867813110352 2.999992370605469 39.3287353515625 2.999992370605469 45.00002288818359 C 2.999992370605469 50.67131042480469 4.110054016113281 56.17136764526367 6.299339294433594 61.34739685058594 C 8.414566040039062 66.34838104248047 11.44333648681641 70.84033966064453 15.301513671875 74.69850921630859 C 19.15968322753906 78.55669403076172 23.65165710449219 81.58546447753906 28.65262603759766 83.70069122314453 C 33.82865142822266 85.88997650146484 39.32870864868164 87.00003814697266 44.99999618530273 87.00003814697266 C 50.67128372192383 87.00003814697266 56.17134094238281 85.88997650146484 61.34736633300781 83.70069122314453 C 66.34834289550781 81.58546447753906 70.84030914306641 78.55669403076172 74.69847869873047 74.69850921630859 C 78.55665588378906 70.84033966064453 81.58542633056641 66.34838104248047 83.70065307617188 61.34739685058594 C 85.88993835449219 56.17136764526367 87 50.67131042480469 87 45.00002288818359 C 87 39.3287353515625 85.88993835449219 33.82867813110352 83.70065307617188 28.65263748168945 C 81.58542633056641 23.65166473388672 78.55665588378906 19.15969085693359 74.69847869873047 15.30152130126953 C 70.84030914306641 11.44335174560547 66.34834289550781 8.414581298828125 61.34736633300781 6.299354553222656 C 56.17134094238281 4.110069274902344 50.67128372192383 3.000007629394531 44.99999618530273 3.000007629394531 M 44.99999618530273 7.62939453125e-06 C 69.85281372070312 7.62939453125e-06 90 20.14719390869141 90 45.00002288818359 C 90 69.85283660888672 69.85281372070312 90.00003814697266 44.99999618530273 90.00003814697266 C 20.14717864990234 90.00003814697266 -7.62939453125e-06 69.85283660888672 -7.62939453125e-06 45.00002288818359 C -7.62939453125e-06 20.14719390869141 20.14717864990234 7.62939453125e-06 44.99999618530273 7.62939453125e-06 Z" stroke="none" fill="#ffc965"/>
                    </g>
                  </g>
                </g>
              </g>
            </g>
          </g>
        </g>
      </g>
      <g id="nuevo-producto" transform="translate(642.512 2135.31)">
        <g id="Group_1220046" data-name="Group 1220046" transform="translate(0.861 24.493)">
          <path id="Path_1160649" data-name="Path 1160649" d="M76.641,117.112h29.28a2.638,2.638,0,0,1,2.632,2.629v31.037a2.638,2.638,0,0,1-2.632,2.629H76.641a2.635,2.635,0,0,1-2.629-2.629V119.741a2.635,2.635,0,0,1,2.629-2.629Z" transform="translate(-65.77 -106.478)" fill="#ffc06c" fill-rule="evenodd"/>
          <path id="Path_1160650" data-name="Path 1160650" d="M308.357,117.112h3.086a2.638,2.638,0,0,1,2.632,2.629v31.037a2.638,2.638,0,0,1-2.632,2.629h-3.086Z" transform="translate(-271.292 -106.478)" fill="#e6a753" fill-rule="evenodd"/>
          <path id="Path_1160651" data-name="Path 1160651" d="M95.627,307.022a3.939,3.939,0,0,1-1.817,5.244c-20.089,9.738-16.205,10.107-36.455-.457H55.02V296.974H66.745q5.669,4.372,11.335,8.748a3.929,3.929,0,0,1,1.077,4.926l11.23-5.442A3.935,3.935,0,0,1,95.627,307.022Z" transform="translate(-49.114 -264.218)" fill="#f6dccd" fill-rule="evenodd"/>
          <path id="Path_1160652" data-name="Path 1160652" d="M7,275.061h8.242v20.222H7Z" transform="translate(-7 -245)" fill="#61aff6" fill-rule="evenodd"/>
          <path id="Path_1160653" data-name="Path 1160653" d="M182.553,117.112h7.838v18.14h-7.838Z" transform="translate(-160.961 -106.478)" fill="#ff4c4c" fill-rule="evenodd"/>
          <path id="Path_1160654" data-name="Path 1160654" d="M292.1,56.952l-.683.812a3.426,3.426,0,0,1-5.254,0l-.683-.812a3.328,3.328,0,0,0-2.925-1.213l-1.06.094a3.431,3.431,0,0,1-3.713-3.717l.091-1.056a3.344,3.344,0,0,0-1.21-2.929l-.816-.683a3.432,3.432,0,0,1,0-5.254l.816-.68a3.344,3.344,0,0,0,1.21-2.929l-.091-1.056a3.427,3.427,0,0,1,3.717-3.717l1.056.094a3.328,3.328,0,0,0,2.925-1.213l.683-.812a3.425,3.425,0,0,1,5.254,0l.683.812a3.331,3.331,0,0,0,2.925,1.213l1.06-.094a3.426,3.426,0,0,1,3.713,3.717l-.091,1.056a3.338,3.338,0,0,0,1.213,2.929l.812.68a3.432,3.432,0,0,1,0,5.254l-.812.683a3.338,3.338,0,0,0-1.213,2.929l.091,1.056a3.431,3.431,0,0,1-3.713,3.717l-1.06-.094A3.331,3.331,0,0,0,292.1,56.952Z" transform="translate(-241.707 -30.653)" fill="#61aff6" fill-rule="evenodd"/>
          <path id="Path_1160655" data-name="Path 1160655" d="M377.746,33.247a3.335,3.335,0,0,0,2.929,1.21l1.056-.091a3.427,3.427,0,0,1,3.717,3.717l-.094,1.056a3.328,3.328,0,0,0,1.213,2.925l.812.683a3.425,3.425,0,0,1,0,5.254l-.812.683a3.335,3.335,0,0,0-1.213,2.925l.094,1.06a3.322,3.322,0,0,1-.99,2.723,3.745,3.745,0,0,1-.464.394,3.451,3.451,0,0,0,2.744-3.671l-.091-1.056a3.338,3.338,0,0,1,1.213-2.929l.812-.683a3.432,3.432,0,0,0,0-5.254l-.812-.68a3.338,3.338,0,0,1-1.213-2.929l.091-1.056a3.426,3.426,0,0,0-3.713-3.717l-1.06.094a3.331,3.331,0,0,1-2.925-1.213l-.683-.812a3.443,3.443,0,0,0-4.6-.61,3.664,3.664,0,0,1,.683-.063,3.335,3.335,0,0,1,2.629,1.224Z" transform="translate(-328.645 -30.653)" fill="#4896dd" fill-rule="evenodd"/>
          <path id="Path_1160656" data-name="Path 1160656" d="M40.506,275.061h4.121v20.222H40.506Z" transform="translate(-36.385 -245)" fill="#4896dd" fill-rule="evenodd"/>
          <path id="Path_1160657" data-name="Path 1160657" d="M110.314,383.64c-18.963,9.19-16.568,10.034-33.265,1.217q-1.517-.8-3.037-1.593v2.256c20.25,10.564,16.366,10.195,36.455.457a3.944,3.944,0,0,0,1.946-4.954,3.932,3.932,0,0,1-2.1,2.619Z" transform="translate(-65.77 -337.928)" fill="#f5d3bf" fill-rule="evenodd"/>
        </g>
        <path id="Path_1160658" data-name="Path 1160658" d="M61.439,35.37l-.812-.679a2.475,2.475,0,0,1-.91-2.194l.094-1.057a4.277,4.277,0,0,0-4.649-4.648l-1.056.094a2.475,2.475,0,0,1-2.194-.909l-.68-.813a4.278,4.278,0,0,0-3.284-1.534h0a4.286,4.286,0,0,0-3.289,1.534l-.679.812a2.474,2.474,0,0,1-2.194.91l-1.057-.094a4.276,4.276,0,0,0-4.648,4.649l.094,1.055a2.465,2.465,0,0,1-.5,1.768H11.728a3.493,3.493,0,0,0-3.488,3.488v15.94H.859A.859.859,0,0,0,0,54.55V74.774a.859.859,0,0,0,.859.859H9.1a.859.859,0,0,0,.859-.859V73.5c1.067.56,2.067,1.089,2.978,1.57,7.287,3.852,10.882,5.719,14.476,5.718,3.372,0,6.742-1.644,13.155-4.835,1.571-.782,3.352-1.668,5.364-2.643a4.781,4.781,0,0,0-1.43-9.04v-12.3l.156.186a4.285,4.285,0,0,0,3.288,1.533h0a4.278,4.278,0,0,0,3.284-1.534l.68-.812a2.474,2.474,0,0,1,2.193-.909l1.059.094a4.278,4.278,0,0,0,4.647-4.65l-.094-1.056a2.476,2.476,0,0,1,.911-2.2l.811-.682a4.287,4.287,0,0,0,0-6.572ZM8.239,73.914H1.719V55.41h6.52ZM23.312,35.982h6.116V52.4H23.312ZM9.958,54.55v-16.8a1.772,1.772,0,0,1,1.77-1.77h9.866V53.264a.859.859,0,0,0,.859.859h7.835a.859.859,0,0,0,.859-.859V35.982h2.707a4.285,4.285,0,0,0,.595,5.959l.813.684a2.475,2.475,0,0,1,.91,2.194l-.094,1.057a4.278,4.278,0,0,0,4.649,4.648l1.055-.094a2.606,2.606,0,0,1,1,.1V64.345a4.789,4.789,0,0,0-1.025.359l-9.549,4.629a4.772,4.772,0,0,0-1.856-4.02q-5.67-4.378-11.339-8.749a.86.86,0,0,0-.525-.179H9.958ZM46.6,67.669a3.078,3.078,0,0,1-1.422,4.1c-2.02.979-3.805,1.867-5.38,2.651-6.351,3.16-9.54,4.749-12.678,4.644-3.158-.1-6.575-1.909-13.383-5.508-1.136-.6-2.41-1.274-3.781-1.991V58.105H18.2q5.553,4.283,11.107,8.569a3.058,3.058,0,0,1,.966,3.575c-.01.025-.022.049-.032.074-.023.054-.048.108-.075.161a3,3,0,0,1-.306.487,3.067,3.067,0,0,1-4.3.552l-7.4-5.711a.86.86,0,1,0-1.05,1.361l7.4,5.711a4.787,4.787,0,0,0,6.706-.861,4.7,4.7,0,0,0,.3-.444l10.991-5.328A3.068,3.068,0,0,1,46.6,67.669ZM60.334,40.625l-.811.682a4.184,4.184,0,0,0-1.517,3.664l.094,1.056a2.559,2.559,0,0,1-2.784,2.785l-1.058-.094a4.185,4.185,0,0,0-3.663,1.517h0l-.68.812a2.563,2.563,0,0,1-1.967.919h0a2.57,2.57,0,0,1-1.971-.919l-.681-.813A4.168,4.168,0,0,0,42.039,48.7q-.2,0-.408.018l-1.054.094a2.559,2.559,0,0,1-2.787-2.784l.094-1.058a4.183,4.183,0,0,0-1.516-3.662l-.814-.684a2.568,2.568,0,0,1,0-3.937l.813-.681a4.184,4.184,0,0,0,1.517-3.664l-.094-1.056A2.557,2.557,0,0,1,40.574,28.5l1.058.094a4.186,4.186,0,0,0,3.663-1.518l.679-.811a2.57,2.57,0,0,1,1.972-.92h0a2.563,2.563,0,0,1,1.967.919l.68.813A4.187,4.187,0,0,0,54.259,28.6l1.056-.094A2.558,2.558,0,0,1,58.1,31.287l-.094,1.057a4.183,4.183,0,0,0,1.518,3.663l.812.68a2.568,2.568,0,0,1,0,3.938Zm-16.091-4.5v5.056a.859.859,0,0,1-1.6.443l-1.441-2.4v1.956a.859.859,0,0,1-1.719,0V36.13a.859.859,0,0,1,1.6-.443l1.441,2.4V36.13a.859.859,0,1,1,1.719,0Zm2.953.859v.53h1.968a.859.859,0,1,1,0,1.719H47.2v1.088h2.177a.859.859,0,1,1,0,1.719H46.337a.859.859,0,0,1-.859-.859V36.13a.859.859,0,0,1,.859-.859h3.037a.859.859,0,1,1,0,1.719ZM56.4,36.13v5.044c0,.023,0,.045,0,.068a.859.859,0,0,1-1.528.481q-.021-.026-.04-.054l-1.06-1.512-1.057,1.512c-.013.019-.026.037-.04.055a.857.857,0,0,1-.615.32l-.057,0a.859.859,0,0,1-.857-.8c0-.023,0-.045,0-.068V36.13a.859.859,0,1,1,1.719,0v2.327l.2-.292a.86.86,0,0,1,.7-.367h0a.859.859,0,0,1,.7.366l.208.3V36.13a.86.86,0,0,1,1.719,0Z" transform="translate(0 0)"/>
      </g>
    </g>
  </g>
</svg>
