<svg xmlns="http://www.w3.org/2000/svg" xmlns:xlink="http://www.w3.org/1999/xlink" width="108" height="108" viewBox="0 0 108 108">
  <defs>
    <filter id="Path_904820" x="0" y="0" width="108" height="108" filterUnits="userSpaceOnUse">
      <feOffset dy="3" input="SourceAlpha"/>
      <feGaussianBlur stdDeviation="3" result="blur"/>
      <feFlood flood-opacity="0.161"/>
      <feComposite operator="in" in2="blur"/>
      <feComposite in="SourceGraphic"/>
    </filter>
  </defs>
  <g id="Group_1220117" data-name="Group 1220117" transform="translate(-200 -3655.519)">
    <g id="Group_1220049" data-name="Group 1220049" transform="translate(0 6)">
      <g id="Group_1219701" data-name="Group 1219701" transform="translate(209 3655.519)">
        <g id="Group_1173585" data-name="Group 1173585" transform="translate(0 0)">
          <g id="Group_1173428" data-name="Group 1173428">
            <g id="Group_1171958" data-name="Group 1171958">
              <g id="Group_1167341" data-name="Group 1167341">
                <g id="Group_1166792" data-name="Group 1166792">
                  <g transform="matrix(1, 0, 0, 1, -9, -6)" filter="url(#Path_904820)">
                    <g id="Path_904820-2" data-name="Path 904820" transform="translate(9 6)" fill="#f4ebee">
                      <path d="M 44.99999618530273 88.50001525878906 C 39.12687301635742 88.50001525878906 33.43022155761719 87.35009002685547 28.06829643249512 85.08217620849609 C 22.88852119445801 82.89132690429688 18.23629570007324 79.75460052490234 14.24084663391113 75.75914764404297 C 10.24540901184082 71.76370239257812 7.108683586120605 67.11147308349609 4.917821407318115 61.93171310424805 C 2.649921178817749 56.56977462768555 1.499996185302734 50.87313461303711 1.499996185302734 45.0000114440918 C 1.499996185302734 39.12688827514648 2.649921178817749 33.43023681640625 4.917821407318115 28.06831169128418 C 7.108683586120605 22.88853645324707 10.24540901184082 18.2363109588623 14.24084663391113 14.2408618927002 C 18.23629570007324 10.24542427062988 22.88852119445801 7.108698844909668 28.06829643249512 4.917836666107178 C 33.43022155761719 2.649936437606812 39.12687301635742 1.500011444091797 44.99999618530273 1.500011444091797 C 50.87311935424805 1.500011444091797 56.56977081298828 2.649936437606812 61.93169784545898 4.917836666107178 C 67.11147308349609 7.108698844909668 71.76369476318359 10.24542427062988 75.75914764404297 14.2408618927002 C 79.75458526611328 18.2363109588623 82.89131164550781 22.88853645324707 85.08216857910156 28.06831169128418 C 87.35007476806641 33.43023681640625 88.5 39.12688827514648 88.5 45.0000114440918 C 88.5 50.87313461303711 87.35007476806641 56.56977462768555 85.08216857910156 61.93171310424805 C 82.89131164550781 67.11147308349609 79.75458526611328 71.76370239257812 75.75914764404297 75.75914764404297 C 71.76369476318359 79.75460052490234 67.11147308349609 82.89132690429688 61.93169784545898 85.08217620849609 C 56.56977081298828 87.35009002685547 50.87311935424805 88.50001525878906 44.99999618530273 88.50001525878906 Z" stroke="none"/>
                      <path d="M 44.99999618530273 3.000007629394531 C 39.32870864868164 3.000007629394531 33.82865142822266 4.110069274902344 28.65262603759766 6.299354553222656 C 23.65165710449219 8.414581298828125 19.15968322753906 11.44335174560547 15.301513671875 15.30152893066406 C 11.44333648681641 19.15969848632812 8.414566040039062 23.65167236328125 6.299339294433594 28.65264129638672 C 4.110054016113281 33.82866668701172 2.999992370605469 39.3287239074707 2.999992370605469 45.0000114440918 C 2.999992370605469 50.67129898071289 4.110054016113281 56.17134094238281 6.299339294433594 61.34738159179688 C 8.414566040039062 66.34835815429688 11.44333648681641 70.84030914306641 15.301513671875 74.69849395751953 C 19.15968322753906 78.55667114257812 23.65165710449219 81.58544158935547 28.65262603759766 83.70066833496094 C 33.82865142822266 85.88995361328125 39.32870864868164 87.00001525878906 44.99999618530273 87.00001525878906 C 50.67128372192383 87.00001525878906 56.17134094238281 85.88995361328125 61.34736633300781 83.70066833496094 C 66.34834289550781 81.58544158935547 70.84030914306641 78.55667114257812 74.69847869873047 74.69849395751953 C 78.55665588378906 70.84030914306641 81.58542633056641 66.34835815429688 83.70065307617188 61.34738159179688 C 85.88993835449219 56.17134094238281 87 50.67129898071289 87 45.0000114440918 C 87 39.3287239074707 85.88993835449219 33.82866668701172 83.70065307617188 28.65264129638672 C 81.58542633056641 23.65167236328125 78.55665588378906 19.15969848632812 74.69847869873047 15.30152893066406 C 70.84030914306641 11.44335174560547 66.34834289550781 8.414581298828125 61.34736633300781 6.299354553222656 C 56.17134094238281 4.110069274902344 50.67128372192383 3.000007629394531 44.99999618530273 3.000007629394531 M 44.99999618530273 7.62939453125e-06 C 69.85281372070312 7.62939453125e-06 90 20.14719390869141 90 45.0000114440918 C 90 69.85281372070312 69.85281372070312 90.00001525878906 44.99999618530273 90.00001525878906 C 20.14717864990234 90.00001525878906 -7.62939453125e-06 69.85281372070312 -7.62939453125e-06 45.0000114440918 C -7.62939453125e-06 20.14719390869141 20.14717864990234 7.62939453125e-06 44.99999618530273 7.62939453125e-06 Z" stroke="none" fill="#9b4467"/>
                    </g>
                  </g>
                </g>
              </g>
            </g>
          </g>
        </g>
      </g>
      <g id="XMLID_1368_" transform="translate(226.477 3672.944)">
        <g id="XMLID_2418_" transform="translate(1.075 6.925)">
          <path id="XMLID_2035_" d="M10,353.115H57.092V356.3a3.229,3.229,0,0,1-3.229,3.229H13.229A3.229,3.229,0,0,1,10,356.3Z" transform="translate(-10 -322.023)" fill="#72d8ff"/>
          <path id="XMLID_2034_" d="M10,66.987a3.063,3.063,0,0,1,3.063-3.063H54.029a3.063,3.063,0,0,1,3.063,3.063v28.03H10Z" transform="translate(-10 -63.924)" fill="#fff"/>
          <path id="XMLID_2033_" d="M141.778,468.062h18.765v-1.28a2.8,2.8,0,0,0-2.8-2.8H144.577a2.8,2.8,0,0,0-2.8,2.8Z" transform="translate(-127.61 -420.971)" fill="#72d8ff"/>
          <rect id="XMLID_2032_" width="6.881" height="5.507" transform="translate(20.11 37.505)" fill="#c9f3ff"/>
          <rect id="XMLID_1015_" width="6.126" height="6.86" transform="translate(10.433 18.951)" fill="#4dbaf6"/>
          <rect id="XMLID_1009_" width="6.126" height="10.265" transform="translate(20.387 15.546)" fill="#a0e557"/>
          <rect id="XMLID_1008_" width="6.126" height="14.868" transform="translate(30.341 10.943)" fill="#ff5d5d"/>
        </g>
        <g id="XMLID_2646_" transform="translate(0 0.059)">
          <path id="XMLID_2651_" d="M381.734,140.929l8.8,8.8a2.659,2.659,0,0,1,0,3.76h0a2.659,2.659,0,0,1-3.76,0l-8.8-8.8Z" transform="translate(-337.336 -125.783)" fill="#2e9de3"/>
          <g id="XMLID_1946_" transform="translate(0 0)">
            <circle id="XMLID_1957_" cx="9.766" cy="9.766" r="9.766" transform="translate(26.562 1.075)" fill="#ffb954"/>
            <g id="XMLID_1201_">
              <path id="XMLID_1205_" d="M219.355,371.766a1.075,1.075,0,1,0,.76-.315A1.081,1.081,0,0,0,219.355,371.766Z" transform="translate(-195.49 -331.521)"/>
              <path id="XMLID_1339_" d="M340.255,402.761a1.076,1.076,0,1,0,.76.315A1.083,1.083,0,0,0,340.255,402.761Z" transform="translate(-302.713 -359.464)"/>
              <path id="XMLID_1340_" d="M49.144,104.151a1.074,1.074,0,1,0-.76-.314A1.08,1.08,0,0,0,49.144,104.151Z" transform="translate(-42.901 -91.042)"/>
              <path id="XMLID_1353_" d="M89.144,104.146h.964a1.075,1.075,0,1,0,0-2.15h-.964a1.075,1.075,0,1,0,0,2.15Z" transform="translate(-78.6 -91.036)"/>
              <path id="XMLID_1359_" d="M89.144,146.879h.964a1.075,1.075,0,1,0,0-2.15h-.964a1.075,1.075,0,1,0,0,2.15Z" transform="translate(-78.6 -129.175)"/>
              <path id="XMLID_1360_" d="M89.144,189.61h.964a1.075,1.075,0,1,0,0-2.15h-.964a1.075,1.075,0,1,0,0,2.15Z" transform="translate(-78.6 -167.312)"/>
              <path id="XMLID_1364_" d="M53.954,23.24l-7.788-7.788a10.84,10.84,0,0,0-19.429-9.6H4.138A4.143,4.143,0,0,0,0,9.988v31.38a4.143,4.143,0,0,0,4.138,4.138H20.11v3.357H18.043a3.879,3.879,0,0,0-3.874,3.874v1.28a1.075,1.075,0,0,0,1.075,1.075H34.008a1.075,1.075,0,0,0,1.075-1.075v-1.28a3.879,3.879,0,0,0-3.874-3.874H29.141V45.506h4.1a1.075,1.075,0,0,0,0-2.15H4.138A1.99,1.99,0,0,1,2.15,41.368V39.093H47.092v2.275A1.99,1.99,0,0,1,45.1,43.355H41.843a1.075,1.075,0,1,0,0,2.15H45.1a4.143,4.143,0,0,0,4.138-4.138V28.988a3.735,3.735,0,0,0,4.712-5.748Zm-21.021,29.5v.2H16.319v-.2a1.726,1.726,0,0,1,1.724-1.724H31.209A1.726,1.726,0,0,1,32.933,52.737Zm-5.942-7.231v3.357H22.26V45.506Zm9.337-43.3A8.691,8.691,0,1,1,27.637,10.9,8.7,8.7,0,0,1,36.328,2.209ZM32.492,21.04a10.787,10.787,0,0,0,3.836.7l.139,0v9.921H32.492ZM2.15,36.943V9.988A1.99,1.99,0,0,1,4.138,8H25.881a10.843,10.843,0,0,0,.679,7.6l-1.966,1.966L21.322,14.3a1.076,1.076,0,0,0-1.521,0L15.7,18.4a1.075,1.075,0,1,0,1.52,1.521l3.346-3.346,3.272,3.272a1.075,1.075,0,0,0,1.521,0l2.366-2.366a10.932,10.932,0,0,0,2.622,2.452V31.661H28.663v-9.19A1.075,1.075,0,0,0,27.588,21.4H21.462a1.075,1.075,0,0,0-1.075,1.075v9.19H18.709V25.877A1.075,1.075,0,0,0,17.634,24.8H11.508a1.075,1.075,0,0,0-1.075,1.075v5.784H7.319V16.394a1.075,1.075,0,1,0-2.15,0V32.736a1.075,1.075,0,0,0,1.075,1.075H43a1.075,1.075,0,0,0,0-2.15H38.618V21.5a10.751,10.751,0,0,0,2.27-.763l6.2,6.2v10Zm24.363-5.281H22.538V23.547h3.975Zm-9.954,0H12.583V26.952h3.975ZM52.434,27a1.583,1.583,0,0,1-2.24,0l-7.4-7.4a10.936,10.936,0,0,0,2.239-2.24l7.4,7.4A1.585,1.585,0,0,1,52.434,27Z" transform="translate(0 -0.059)"/>
              <path id="XMLID_1388_" d="M309.712,52.6a1.153,1.153,0,0,1-1.244-1.03,1.075,1.075,0,1,0-2.15,0,3.211,3.211,0,0,0,2.321,3.016,1.074,1.074,0,0,0,2.147,0,3.211,3.211,0,0,0,2.321-3.016,3.3,3.3,0,0,0-3.394-3.18,1.048,1.048,0,1,1,1.244-1.03,1.075,1.075,0,0,0,2.15,0,3.211,3.211,0,0,0-2.319-3.016V44.3a1.075,1.075,0,1,0-2.15,0v.045a3.211,3.211,0,0,0-2.319,3.016,3.3,3.3,0,0,0,3.394,3.18,1.048,1.048,0,1,1,0,2.059Z" transform="translate(-273.384 -38.582)"/>
            </g>
          </g>
        </g>
      </g>
    </g>
  </g>
</svg>
