<svg xmlns="http://www.w3.org/2000/svg" xmlns:xlink="http://www.w3.org/1999/xlink" width="108" height="108" viewBox="0 0 108 108">
  <defs>
    <filter id="Path_904820" x="0" y="0" width="108" height="108" filterUnits="userSpaceOnUse">
      <feOffset dy="3" input="SourceAlpha"/>
      <feGaussianBlur stdDeviation="3" result="blur"/>
      <feFlood flood-opacity="0.161"/>
      <feComposite operator="in" in2="blur"/>
      <feComposite in="SourceGraphic"/>
    </filter>
  </defs>
  <g id="Group_1220131" data-name="Group 1220131" transform="translate(-200 -2191.628)">
    <g id="Group_1220067" data-name="Group 1220067">
      <g id="Group_1219745" data-name="Group 1219745" transform="translate(209 2197.628)">
        <g id="Group_1173585" data-name="Group 1173585" transform="translate(0 0)">
          <g id="Group_1173428" data-name="Group 1173428">
            <g id="Group_1171958" data-name="Group 1171958">
              <g id="Group_1167341" data-name="Group 1167341">
                <g id="Group_1166792" data-name="Group 1166792">
                  <g transform="matrix(1, 0, 0, 1, -9, -6)" filter="url(#Path_904820)">
                    <g id="Path_904820-2" data-name="Path 904820" transform="translate(9 6)" fill="#eff5f8">
                      <path d="M 44.99996566772461 88.50001525878906 C 39.1268424987793 88.50001525878906 33.43020248413086 87.35009002685547 28.06827735900879 85.08217620849609 C 22.88851547241211 82.89132690429688 18.23628997802734 79.75460052490234 14.24084091186523 75.75914764404297 C 10.24540328979492 71.76370239257812 7.108690738677979 67.11147308349609 4.91782808303833 61.93171310424805 C 2.649928092956543 56.56977462768555 1.500003218650818 50.87313461303711 1.500003218650818 45.0000114440918 C 1.500003218650818 39.12688827514648 2.649928092956543 33.43023681640625 4.91782808303833 28.06831169128418 C 7.108690738677979 22.88853645324707 10.24540328979492 18.2363109588623 14.24084091186523 14.2408618927002 C 18.23628997802734 10.24542427062988 22.88850402832031 7.108698844909668 28.06827735900879 4.917836666107178 C 33.43020248413086 2.649936437606812 39.1268424987793 1.500011444091797 44.99996566772461 1.500011444091797 C 50.87308883666992 1.500011444091797 56.56972885131836 2.649936437606812 61.9316520690918 4.917836666107178 C 67.11142730712891 7.108698844909668 71.76364135742188 10.24542427062988 75.75909423828125 14.2408618927002 C 79.75453186035156 18.2363109588623 82.89124298095703 22.88853645324707 85.08209991455078 28.06831169128418 C 87.35000610351562 33.43023681640625 88.49993133544922 39.12688827514648 88.49993133544922 45.0000114440918 C 88.49993133544922 50.87313461303711 87.35000610351562 56.56977462768555 85.08209991455078 61.93171310424805 C 82.89124298095703 67.11147308349609 79.75453186035156 71.76370239257812 75.75909423828125 75.75914764404297 C 71.76364135742188 79.75460052490234 67.11141204833984 82.89132690429688 61.9316520690918 85.08217620849609 C 56.56972885131836 87.35009002685547 50.87308883666992 88.50001525878906 44.99996566772461 88.50001525878906 Z" stroke="none"/>
                      <path d="M 44.99996566772461 3.000007629394531 C 39.32867813110352 3.000007629394531 33.82863616943359 4.110069274902344 28.65260696411133 6.299354553222656 C 23.65163421630859 8.414581298828125 19.15968322753906 11.44335174560547 15.30149078369141 15.30152893066406 C 11.44332122802734 19.15969848632812 8.414566040039062 23.65167236328125 6.299324035644531 28.65264129638672 C 4.110054016113281 33.82866668701172 2.999992370605469 39.3287239074707 2.999992370605469 45.0000114440918 C 2.999992370605469 50.67129898071289 4.110054016113281 56.17134094238281 6.299324035644531 61.34738159179688 C 8.414566040039062 66.34835815429688 11.44332122802734 70.84030914306641 15.30149078369141 74.69849395751953 C 19.15968322753906 78.55667114257812 23.65163421630859 81.58544158935547 28.65260696411133 83.70066833496094 C 33.82863616943359 85.88995361328125 39.32867813110352 87.00001525878906 44.99996566772461 87.00001525878906 C 50.6712532043457 87.00001525878906 56.17129516601562 85.88995361328125 61.34732055664062 83.70066833496094 C 66.34829711914062 81.58544158935547 70.84025573730469 78.55667114257812 74.69842529296875 74.69849395751953 C 78.55659484863281 70.84030914306641 81.58536529541016 66.34835815429688 83.70059204101562 61.34738159179688 C 85.88986206054688 56.17134094238281 86.99992370605469 50.67129898071289 86.99992370605469 45.0000114440918 C 86.99992370605469 39.3287239074707 85.88986206054688 33.82866668701172 83.70059204101562 28.65264129638672 C 81.58536529541016 23.65167236328125 78.55659484863281 19.15969848632812 74.69842529296875 15.30152893066406 C 70.84025573730469 11.44335174560547 66.34829711914062 8.414581298828125 61.34732055664062 6.299354553222656 C 56.17129516601562 4.110069274902344 50.6712532043457 3.000007629394531 44.99996566772461 3.000007629394531 M 44.99996566772461 7.62939453125e-06 C 69.85276794433594 7.62939453125e-06 89.99992370605469 20.14719390869141 89.99992370605469 45.0000114440918 C 89.99992370605469 69.85281372070312 69.85276794433594 90.00001525878906 44.99996566772461 90.00001525878906 C 20.14716339111328 90.00001525878906 -7.62939453125e-06 69.85281372070312 -7.62939453125e-06 45.0000114440918 C -7.62939453125e-06 20.14719390869141 20.14716339111328 7.62939453125e-06 44.99996566772461 7.62939453125e-06 Z" stroke="none" fill="#6da4c3"/>
                    </g>
                  </g>
                </g>
              </g>
            </g>
          </g>
        </g>
      </g>
      <g id="mercadeo-social_1_" data-name="mercadeo-social (1)" transform="translate(220.111 2208.739)">
        <path id="Path_1160909" data-name="Path 1160909" d="M95.984,33.74l4.161.523v6.731l-4.161.523Z" transform="translate(-46.314 -14.783)" fill="#50758d"/>
        <path id="Path_1160910" data-name="Path 1160910" d="M40.359,61.314h5.916v8.113H40.359Z" transform="translate(-18.136 -28.751)" fill="#50758d"/>
        <path id="Path_1160911" data-name="Path 1160911" d="M6.307,80.465h6.855L15.5,78.912a6.908,6.908,0,0,1,3.828-1.158H36.8a2.71,2.71,0,1,1,0,5.421h-.493a2.71,2.71,0,1,1,0,5.42h-.493a2.71,2.71,0,1,1,0,5.42h-.493a2.71,2.71,0,1,1,0,5.419h-16A6.9,6.9,0,0,1,15.5,98.277l-2.333-1.552H6.307Z" transform="translate(-0.886 -37.079)" fill="#ffc682"/>
        <path id="Path_1160912" data-name="Path 1160912" d="M41.751,41.361H29.921a9.718,9.718,0,1,1,0-19.435h11.83Z" transform="translate(-7.924 -8.798)" fill="#fd646f"/>
        <path id="Path_1160913" data-name="Path 1160913" d="M79.719,41.157,63.875,33.449V14.014L79.719,6.307Z" transform="translate(-30.048 -0.886)" fill="#93ddb7"/>
        <g id="Group_1220066" data-name="Group 1220066" transform="translate(4.557 4.558)">
          <path id="Path_1160914" data-name="Path 1160914" d="M26.774,117.161H18.434a6.025,6.025,0,0,1-3.346-1.013L12.756,114.6a.864.864,0,0,0-.479-.145H5.421a.864.864,0,0,0,0,1.727h6.6l2.115,1.406a7.747,7.747,0,0,0,4.306,1.3h8.339a.864.864,0,1,0,0-1.727Z" transform="translate(-4.557 -60.226)"/>
          <path id="Path_1160915" data-name="Path 1160915" d="M38.041,21.916h.042c.142-.007.283-.01.426-.01h1.752a.864.864,0,0,0,0-1.727h-1.75q-.256,0-.509.012a.864.864,0,0,0,.041,1.727Z" transform="translate(-21.072 -12.471)"/>
          <path id="Path_1160916" data-name="Path 1160916" d="M54.695,19.48a.863.863,0,0,0-.756-.857l-3.4-.427V5.421a.864.864,0,0,0-1.241-.777l-15.665,7.62H28.51a.864.864,0,0,0,0,1.727h4.452V31.7H22a8.856,8.856,0,0,1-4.342-16.574.864.864,0,1,0-.848-1.5A10.574,10.574,0,0,0,21.36,33.4v6.417H18.437a7.747,7.747,0,0,0-4.306,1.3l-2.115,1.409h-6.6a.864.864,0,1,0,0,1.727h6.855a.869.869,0,0,0,.479-.145l2.334-1.554a6.025,6.025,0,0,1,3.349-1.013H35.914a1.847,1.847,0,1,1,0,3.694H32.43a.864.864,0,0,0,0,1.727h2.99a1.846,1.846,0,1,1,0,3.693H32.43a.864.864,0,0,0,0,1.727h2.5a1.846,1.846,0,1,1,0,3.693h-2.5a.864.864,0,0,0,0,1.727h2a1.847,1.847,0,1,1,0,3.694h-3.04a.864.864,0,1,0,0,1.727h3.04a3.57,3.57,0,0,0,2.548-6.075,3.563,3.563,0,0,0,.493-5.42,3.563,3.563,0,0,0,.493-5.42,3.571,3.571,0,0,0-2.055-6.493H29V33.427h4.624l15.665,7.62a.864.864,0,0,0,1.241-.776V27.5l3.4-.427a.864.864,0,0,0,.756-.857ZM27.276,39.812h-4.19V33.427h4.19Zm21.53-.922L34.69,32.023V13.668L48.806,6.8Zm4.161-13.439-2.434.305v-5.82l2.434.305Z" transform="translate(-4.557 -4.558)"/>
          <path id="Path_1160917" data-name="Path 1160917" d="M116.286,39.87h-4.4a.864.864,0,0,0,0,1.727h4.4a.864.864,0,0,0,0-1.727Z" transform="translate(-58.487 -22.446)"/>
          <path id="Path_1160918" data-name="Path 1160918" d="M114.643,51.235l-3.84-1.579a.863.863,0,1,0-.656,1.6l3.84,1.579a.864.864,0,0,0,.657-1.6Z" transform="translate(-57.773 -27.37)"/>
          <path id="Path_1160919" data-name="Path 1160919" d="M110.325,61.865l-3.041-2.43a.864.864,0,0,0-1.079,1.349l3.041,2.431a.864.864,0,1,0,1.079-1.35Z" transform="translate(-55.884 -32.261)"/>
          <path id="Path_1160920" data-name="Path 1160920" d="M109.676,29.719a.864.864,0,0,0,1.127.47l3.84-1.579a.864.864,0,1,0-.657-1.6l-3.84,1.579a.863.863,0,0,0-.47,1.127Z" transform="translate(-57.774 -15.9)"/>
          <path id="Path_1160921" data-name="Path 1160921" d="M106.746,19.731a.858.858,0,0,0,.539-.189l3.041-2.431a.863.863,0,1,0-1.079-1.349l-3.041,2.431a.864.864,0,0,0,.54,1.538Z" transform="translate(-55.884 -10.138)"/>
        </g>
      </g>
    </g>
  </g>
</svg>
