<svg xmlns="http://www.w3.org/2000/svg" width="16" height="16" viewBox="0 0 16 16">
  <g id="Group_1220142" data-name="Group 1220142" transform="translate(-921 -2211.67)">
    <path id="arrow-right-circle_7_" data-name="arrow-right-circle (7)" d="M1,8a7,7,0,1,1,7,7A7,7,0,0,1,1,8M16,8a8,8,0,1,0-8,8,8,8,0,0,0,8-8M4.5,8.5a.5.5,0,0,1,0-1h5.793L8.146,5.354a.5.5,0,1,1,.708-.708l3,3a.5.5,0,0,1,0,.708l-3,3a.5.5,0,0,1-.708-.708L10.293,8.5Z" transform="translate(921 2211.67)" fill="#9b4467" fill-rule="evenodd"/>
  </g>
</svg>
