<svg xmlns="http://www.w3.org/2000/svg" xmlns:xlink="http://www.w3.org/1999/xlink" width="113" height="113" viewBox="0 0 113 113">
  <defs>
    <filter id="Path_982547" x="0" y="0" width="113" height="113" filterUnits="userSpaceOnUse">
      <feOffset dy="3" input="SourceAlpha"/>
      <feGaussianBlur stdDeviation="3" result="blur"/>
      <feFlood flood-opacity="0.161"/>
      <feComposite operator="in" in2="blur"/>
      <feComposite in="SourceGraphic"/>
    </filter>
  </defs>
  <g id="Group_1225424" data-name="Group 1225424" transform="translate(-324 -5913.621)">
    <g id="Group_1223775" data-name="Group 1223775" transform="translate(0 9.546)">
      <g id="Group_1206275" data-name="Group 1206275" transform="translate(0 -3448.335)">
        <g id="Group_1203802" data-name="Group 1203802" transform="translate(0.5 6552.41)">
          <g id="Group_1202424" data-name="Group 1202424" transform="translate(0 1464)">
            <g id="Group_1178325" data-name="Group 1178325" transform="translate(0 424)">
              <g id="Group_1177679" data-name="Group 1177679" transform="translate(332.5 918)">
                <g id="Group_1172010" data-name="Group 1172010">
                  <g id="Group_1171046" data-name="Group 1171046">
                    <g id="Group_1148525" data-name="Group 1148525">
                      <g transform="matrix(1, 0, 0, 1, -9, -6)" filter="url(#Path_982547)">
                        <g id="Path_982547-2" data-name="Path 982547" transform="translate(9 6)" fill="#ead9e0">
                          <path d="M 47.5 93.5 C 41.28937149047852 93.5 35.26533508300781 92.28397369384766 29.59518623352051 89.88570404052734 C 24.11771965026855 87.56893157958984 19.19813346862793 84.25196075439453 14.97309303283691 80.02691650390625 C 10.74804019927979 75.80186462402344 7.431066513061523 70.88229370117188 5.114293098449707 65.40481567382812 C 2.716026782989502 59.73468017578125 1.5 53.71062850952148 1.5 47.5 C 1.5 41.28937149047852 2.716026782989502 35.26533508300781 5.114293098449707 29.59518623352051 C 7.431066513061523 24.11771965026855 10.74804019927979 19.19813346862793 14.97309303283691 14.97309303283691 C 19.19813346862793 10.74804019927979 24.11771965026855 7.431066513061523 29.59518623352051 5.114293098449707 C 35.26533508300781 2.716026782989502 41.28937149047852 1.5 47.5 1.5 C 53.71062850952148 1.5 59.73468017578125 2.716026782989502 65.40481567382812 5.114293098449707 C 70.88229370117188 7.431066513061523 75.80186462402344 10.74804019927979 80.02691650390625 14.97309303283691 C 84.25196075439453 19.19813346862793 87.56893157958984 24.11771965026855 89.88570404052734 29.59518623352051 C 92.28397369384766 35.26533508300781 93.5 41.28937149047852 93.5 47.5 C 93.5 53.71062850952148 92.28397369384766 59.73468017578125 89.88570404052734 65.40481567382812 C 87.56893157958984 70.88229370117188 84.25196075439453 75.80186462402344 80.02691650390625 80.02691650390625 C 75.80186462402344 84.25196075439453 70.88229370117188 87.56893157958984 65.40481567382812 89.88570404052734 C 59.73468017578125 92.28397369384766 53.71062850952148 93.5 47.5 93.5 Z" stroke="none"/>
                          <path d="M 47.5 3 C 41.49121475219727 3 35.66376876831055 4.176155090332031 30.17950439453125 6.495796203613281 C 24.88084411621094 8.736953735351562 20.12152099609375 11.94598388671875 16.03375244140625 16.03375244140625 C 11.94598388671875 20.12152099609375 8.736953735351562 24.88084411621094 6.495796203613281 30.17950439453125 C 4.176155090332031 35.66376876831055 3 41.49121475219727 3 47.5 C 3 53.50878524780273 4.176155090332031 59.33623123168945 6.495796203613281 64.82049560546875 C 8.736953735351562 70.11915588378906 11.94598388671875 74.87847900390625 16.03375244140625 78.96624755859375 C 20.12152099609375 83.05401611328125 24.88084411621094 86.26304626464844 30.17950439453125 88.50419616699219 C 35.66376876831055 90.82384490966797 41.49121475219727 92 47.5 92 C 53.50878524780273 92 59.33623123168945 90.82384490966797 64.82049560546875 88.50419616699219 C 70.11915588378906 86.26304626464844 74.87847900390625 83.05401611328125 78.96624755859375 78.96624755859375 C 83.05401611328125 74.87847900390625 86.26304626464844 70.11915588378906 88.50419616699219 64.82049560546875 C 90.82384490966797 59.33623123168945 92 53.50878524780273 92 47.5 C 92 41.49121475219727 90.82384490966797 35.66376876831055 88.50419616699219 30.17950439453125 C 86.26304626464844 24.88084411621094 83.05401611328125 20.12152099609375 78.96624755859375 16.03375244140625 C 74.87847900390625 11.94598388671875 70.11915588378906 8.736953735351562 64.82049560546875 6.495796203613281 C 59.33623123168945 4.176155090332031 53.50878524780273 3 47.5 3 M 47.5 0 C 73.7335205078125 0 95 21.2664794921875 95 47.5 C 95 73.7335205078125 73.7335205078125 95 47.5 95 C 21.2664794921875 95 0 73.7335205078125 0 47.5 C 0 21.2664794921875 21.2664794921875 0 47.5 0 Z" stroke="none" fill="#9b4467"/>
                        </g>
                      </g>
                    </g>
                  </g>
                </g>
              </g>
            </g>
          </g>
        </g>
      </g>
      <g id="ciclo-de-vida-del-producto" transform="translate(319.197 5888.097)">
        <g id="Group_1223774" data-name="Group 1223774" transform="translate(34.36 39.813)">
          <path id="Path_1176377" data-name="Path 1176377" d="M148.874,143.624l-.828-2.224H145.01l-.828,2.224a10.884,10.884,0,0,0-3.42,1.411l-2.162-.981-2.147,2.147.981,2.162a10.343,10.343,0,0,0-1.411,3.42l-2.224.828v3.036l2.224.828a10.884,10.884,0,0,0,1.411,3.42l-.981,2.162L138.6,164.2l2.162-.981a10.708,10.708,0,0,0,3.42,1.426l.828,2.223h3.036l.828-2.223a10.565,10.565,0,0,0,3.42-1.426l2.162.981,2.147-2.147-.981-2.162a10.342,10.342,0,0,0,1.411-3.42l2.224-.828V152.61l-2.224-.828a10.884,10.884,0,0,0-1.411-3.42l.981-2.162-2.147-2.147-2.162.981A10.884,10.884,0,0,0,148.874,143.624Z" transform="translate(-126.623 -129.853)" fill="#00b2ca" fill-rule="evenodd"/>
          <path id="Path_1176378" data-name="Path 1176378" d="M185.558,187.7a5.658,5.658,0,1,1-5.658,5.658A5.654,5.654,0,0,1,185.558,187.7Z" transform="translate(-165.654 -169.053)" fill="#99f" fill-rule="evenodd"/>
          <path id="Path_1176379" data-name="Path 1176379" d="M199,261.5h18.862v20.993H199Z" transform="translate(-181.825 -231.536)" fill="#fbb13c" fill-rule="evenodd"/>
          <path id="Path_1176380" data-name="Path 1176380" d="M121.8,261.5h11.823v20.993H121.8Z" transform="translate(-116.464 -231.536)" fill="#dd6e42" fill-rule="evenodd"/>
          <path id="Path_1176381" data-name="Path 1176381" d="M104.175,261.5H92.336L87,270.149H98.823Z" transform="translate(-87 -231.536)" fill="#fbb13c" fill-rule="evenodd"/>
          <path id="Path_1176382" data-name="Path 1176382" d="M199,261.5h18.862l5.444,8.649H204.444Z" transform="translate(-181.825 -231.536)" fill="#fbb13c" fill-rule="evenodd"/>
          <path id="Path_1176383" data-name="Path 1176383" d="M324.357,92.414a13.157,13.157,0,1,1,13.157-13.157A13.154,13.154,0,0,1,324.357,92.414Z" transform="translate(-276.82 -66.1)" fill="#ff9" fill-rule="evenodd"/>
        </g>
        <path id="Path_1176384" data-name="Path 1176384" d="M80.67,46.806a1.227,1.227,0,1,1,2.454,0V52.97a1.2,1.2,0,0,1-.368.874l-3.711,3.711a1.225,1.225,0,0,1-1.733-1.733l3.358-3.358ZM81.9,67.354a14.392,14.392,0,1,1,14.384-14.4A14.388,14.388,0,0,1,81.9,67.354ZM73.463,61.4a11.938,11.938,0,1,0,0-16.883A11.939,11.939,0,0,0,73.463,61.4ZM59.524,68.55h3.2a9.385,9.385,0,0,0,.859-2.346,1.283,1.283,0,0,1,.767-.889l1.426-.537V63.429l-1.426-.537a1.2,1.2,0,0,1-.767-.9,9.416,9.416,0,0,0-1.257-3.006,1.225,1.225,0,0,1-.061-1.211l.613-1.349-.951-.951-1.4.629a1.217,1.217,0,0,1-1.15-.077,10.215,10.215,0,0,0-1.457-.767,9.306,9.306,0,0,0-1.564-.506,1.283,1.283,0,0,1-.889-.767l-.537-1.426H53.589l-.537,1.426a1.2,1.2,0,0,1-.9.767,9.415,9.415,0,0,0-3.006,1.257,1.226,1.226,0,0,1-1.211.061L46.6,55.455l-.951.951.629,1.4a1.177,1.177,0,0,1-.077,1.15,9.605,9.605,0,0,0-.767,1.472,8.046,8.046,0,0,0-.491,1.564,1.283,1.283,0,0,1-.767.889l-1.426.537v1.349l1.426.537a1.2,1.2,0,0,1,.767.9,9.5,9.5,0,0,0,.859,2.331H49a6.887,6.887,0,1,1,10.52.015Zm5.9,0H70.4a1.224,1.224,0,0,1,1.089.659l5.4,8.557a1.216,1.216,0,0,1-1.027,1.871H71.623V90.77A1.23,1.23,0,0,1,70.4,92H39.712a1.23,1.23,0,0,1-1.227-1.227V79.637H34.36a1.227,1.227,0,0,1-1.043-1.871l5.29-8.557a1.22,1.22,0,0,1,1.089-.675h3.4c-.153-.368-.276-.767-.4-1.165L41.184,66.8a1.219,1.219,0,0,1-.9-1.181V62.585a1.238,1.238,0,0,1,.8-1.15l1.625-.613a8.911,8.911,0,0,1,.46-1.319,10.617,10.617,0,0,1,.613-1.257l-.69-1.518a1.237,1.237,0,0,1,.215-1.441l2.147-2.147a1.213,1.213,0,0,1,1.365-.245l1.579.721a11.875,11.875,0,0,1,2.576-1.073l.567-1.518a1.219,1.219,0,0,1,1.181-.9h3.036a1.238,1.238,0,0,1,1.15.8l.613,1.625a12.158,12.158,0,0,1,1.319.46,11.919,11.919,0,0,1,1.257.613l1.518-.69a1.237,1.237,0,0,1,1.441.215L65.2,55.286a1.213,1.213,0,0,1,.245,1.365l-.721,1.579a11.114,11.114,0,0,1,1.058,2.576l1.518.567a1.219,1.219,0,0,1,.9,1.181v3.036a1.238,1.238,0,0,1-.8,1.15l-1.625.613A6.814,6.814,0,0,1,65.428,68.55Zm3.742,11.1H56.978a1.206,1.206,0,0,1-1.089-.659l-3.128-4.968V89.559H69.169ZM69.721,71H53.743l3.91,6.2H73.616ZM49.326,71H40.371l-3.834,6.2h8.955Zm.981,3.082-3.036,4.892a1.22,1.22,0,0,1-1.089.675H40.938v9.906h9.369ZM88.414,70.9a1.227,1.227,0,0,1,2.454,0,33.04,33.04,0,0,1-6.839,20.119l1.579-.675a1.23,1.23,0,1,1,.951,2.27l-6.548,2.76a1.234,1.234,0,0,1-1.61-.659,1.158,1.158,0,0,1-.061-.751l1.641-6.916a1.219,1.219,0,0,1,1.472-.9,1.241,1.241,0,0,1,.92,1.472l-.537,2.254A30.606,30.606,0,0,0,88.414,70.9ZM27.26,85.2a1.221,1.221,0,1,1-2.423-.307l.445-3.527.445-3.527a1.234,1.234,0,0,1,2.055-.736L32.949,82A1.231,1.231,0,0,1,33,83.732a1.217,1.217,0,0,1-1.733.046L29.575,82.2A30.5,30.5,0,0,0,68.2,99.649a31.025,31.025,0,0,0,4.815-2.208,1.217,1.217,0,0,1,1.671.46,1.231,1.231,0,0,1-.46,1.671,34.728,34.728,0,0,1-5.2,2.392A32.936,32.936,0,0,1,27.475,83.517ZM60.889,37.252a1.224,1.224,0,0,1-.23-1.717,1.206,1.206,0,0,1,1.7-.23L68.035,39.6a1.231,1.231,0,0,1-.4,2.147l-6.809,2.039a1.223,1.223,0,0,1-.69-2.346l2.224-.659A30.5,30.5,0,0,0,27.444,70.314a1.219,1.219,0,0,1-2.438-.046A32.966,32.966,0,0,1,62.269,38.28Zm-3.5,23.723a4.427,4.427,0,1,0,0,6.257A4.436,4.436,0,0,0,57.392,60.975Z" transform="translate(0 0)"/>
      </g>
    </g>
  </g>
</svg>
