<svg xmlns="http://www.w3.org/2000/svg" xmlns:xlink="http://www.w3.org/1999/xlink" width="113" height="113" viewBox="0 0 113 113">
  <defs>
    <filter id="Path_982547" x="0" y="0" width="113" height="113" filterUnits="userSpaceOnUse">
      <feOffset dy="3" input="SourceAlpha"/>
      <feGaussianBlur stdDeviation="3" result="blur"/>
      <feFlood flood-opacity="0.161"/>
      <feComposite operator="in" in2="blur"/>
      <feComposite in="SourceGraphic"/>
    </filter>
  </defs>
  <g id="Group_1225425" data-name="Group 1225425" transform="translate(-743 -5913.621)">
    <g id="Group_1223773" data-name="Group 1223773" transform="translate(0 9.546)">
      <g id="Group_1206282" data-name="Group 1206282" transform="translate(0 -3448.335)">
        <g id="Group_1203803" data-name="Group 1203803" transform="translate(0 6552.41)">
          <g id="Group_1202425" data-name="Group 1202425" transform="translate(-0.25 1464)">
            <g id="Group_1178324" data-name="Group 1178324" transform="translate(0 424)">
              <g id="Group_1177680" data-name="Group 1177680" transform="translate(752.25 918)">
                <g id="Group_1172010" data-name="Group 1172010">
                  <g id="Group_1171046" data-name="Group 1171046">
                    <g id="Group_1148525" data-name="Group 1148525">
                      <g transform="matrix(1, 0, 0, 1, -9, -6)" filter="url(#Path_982547)">
                        <g id="Path_982547-2" data-name="Path 982547" transform="translate(9 6)" fill="#ead9e0">
                          <path d="M 47.5 93.5 C 41.28937149047852 93.5 35.26533508300781 92.28397369384766 29.59518623352051 89.88570404052734 C 24.11771965026855 87.56893157958984 19.19813346862793 84.25196075439453 14.97309303283691 80.02691650390625 C 10.74804019927979 75.80186462402344 7.431066513061523 70.88229370117188 5.114293098449707 65.40481567382812 C 2.716026782989502 59.73468017578125 1.5 53.71062850952148 1.5 47.5 C 1.5 41.28937149047852 2.716026782989502 35.26533508300781 5.114293098449707 29.59518623352051 C 7.431066513061523 24.11771965026855 10.74804019927979 19.19813346862793 14.97309303283691 14.97309303283691 C 19.19813346862793 10.74804019927979 24.11771965026855 7.431066513061523 29.59518623352051 5.114293098449707 C 35.26533508300781 2.716026782989502 41.28937149047852 1.5 47.5 1.5 C 53.71062850952148 1.5 59.73468017578125 2.716026782989502 65.40481567382812 5.114293098449707 C 70.88229370117188 7.431066513061523 75.80186462402344 10.74804019927979 80.02691650390625 14.97309303283691 C 84.25196075439453 19.19813346862793 87.56893157958984 24.11771965026855 89.88570404052734 29.59518623352051 C 92.28397369384766 35.26533508300781 93.5 41.28937149047852 93.5 47.5 C 93.5 53.71062850952148 92.28397369384766 59.73468017578125 89.88570404052734 65.40481567382812 C 87.56893157958984 70.88229370117188 84.25196075439453 75.80186462402344 80.02691650390625 80.02691650390625 C 75.80186462402344 84.25196075439453 70.88229370117188 87.56893157958984 65.40481567382812 89.88570404052734 C 59.73468017578125 92.28397369384766 53.71062850952148 93.5 47.5 93.5 Z" stroke="none"/>
                          <path d="M 47.5 3 C 41.49121475219727 3 35.66376876831055 4.176155090332031 30.17950439453125 6.495796203613281 C 24.88084411621094 8.736953735351562 20.12152099609375 11.94598388671875 16.03375244140625 16.03375244140625 C 11.94598388671875 20.12152099609375 8.736953735351562 24.88084411621094 6.495796203613281 30.17950439453125 C 4.176155090332031 35.66376876831055 3 41.49121475219727 3 47.5 C 3 53.50878524780273 4.176155090332031 59.33623123168945 6.495796203613281 64.82049560546875 C 8.736953735351562 70.11915588378906 11.94598388671875 74.87847900390625 16.03375244140625 78.96624755859375 C 20.12152099609375 83.05401611328125 24.88084411621094 86.26304626464844 30.17950439453125 88.50419616699219 C 35.66376876831055 90.82384490966797 41.49121475219727 92 47.5 92 C 53.50878524780273 92 59.33623123168945 90.82384490966797 64.82049560546875 88.50419616699219 C 70.11915588378906 86.26304626464844 74.87847900390625 83.05401611328125 78.96624755859375 78.96624755859375 C 83.05401611328125 74.87847900390625 86.26304626464844 70.11915588378906 88.50419616699219 64.82049560546875 C 90.82384490966797 59.33623123168945 92 53.50878524780273 92 47.5 C 92 41.49121475219727 90.82384490966797 35.66376876831055 88.50419616699219 30.17950439453125 C 86.26304626464844 24.88084411621094 83.05401611328125 20.12152099609375 78.96624755859375 16.03375244140625 C 74.87847900390625 11.94598388671875 70.11915588378906 8.736953735351562 64.82049560546875 6.495796203613281 C 59.33623123168945 4.176155090332031 53.50878524780273 3 47.5 3 M 47.5 0 C 73.7335205078125 0 95 21.2664794921875 95 47.5 C 95 73.7335205078125 73.7335205078125 95 47.5 95 C 21.2664794921875 95 0 73.7335205078125 0 47.5 C 0 21.2664794921875 21.2664794921875 0 47.5 0 Z" stroke="none" fill="#9b4467"/>
                        </g>
                      </g>
                    </g>
                  </g>
                </g>
              </g>
            </g>
          </g>
        </g>
      </g>
      <g id="consumidor_1_" data-name="consumidor (1)" transform="translate(753.198 5911.023)">
        <path id="Path_1176352" data-name="Path 1176352" d="M41.008,212.654a27.681,27.681,0,0,1,0-14.8l1.962.547a25.645,25.645,0,0,0,0,13.71Z" transform="translate(-20.945 -158.7)"/>
        <path id="Path_1176353" data-name="Path 1176353" d="M205.253,451.638a27.559,27.559,0,0,1-7.4-1.008l.547-1.962a25.641,25.641,0,0,0,13.71,0l.547,1.962A27.56,27.56,0,0,1,205.253,451.638Z" transform="translate(-158.702 -377.59)"/>
        <path id="Path_1176354" data-name="Path 1176354" d="M450.631,212.654l-1.962-.547a25.645,25.645,0,0,0,0-13.71l1.962-.547A27.682,27.682,0,0,1,450.631,212.654Z" transform="translate(-377.591 -158.7)"/>
        <path id="Path_1176355" data-name="Path 1176355" d="M212.109,42.97a25.641,25.641,0,0,0-13.71,0l-.547-1.962a27.682,27.682,0,0,1,14.8,0Z" transform="translate(-158.702 -20.945)"/>
        <g id="Group_1223765" data-name="Group 1223765" transform="translate(32.294 32.294)">
          <path id="Path_1176356" data-name="Path 1176356" d="M144,332.221V326.59a2.546,2.546,0,0,1,1.31-2.226L153.166,320h10.184l7.856,4.364a2.546,2.546,0,0,1,1.31,2.226v5.631Z" transform="translate(-144 -297.595)" fill="#57cee6"/>
          <path id="Path_1176357" data-name="Path 1176357" d="M208,408h12.221v2.037H208Z" transform="translate(-199.853 -374.393)"/>
          <g id="Group_1223764" data-name="Group 1223764" transform="translate(8.147 6.11)">
            <path id="Path_1176358" data-name="Path 1176358" d="M226.184,292.074l-5.092,4.074L216,292.074,218.037,288h6.11Z" transform="translate(-214.982 -275.779)" fill="#ffd4cf"/>
            <path id="Path_1176359" data-name="Path 1176359" d="M220.221,192H208v8.822a2.546,2.546,0,0,0,1.134,2.118l3.564,2.376a2.546,2.546,0,0,0,2.824,0l3.564-2.376a2.546,2.546,0,0,0,1.134-2.118Z" transform="translate(-208 -192)" fill="#ffd4cf"/>
          </g>
          <path id="Path_1176360" data-name="Path 1176360" d="M192,160.147v-4.328A3.819,3.819,0,0,1,195.819,152h6.365v4.328a3.819,3.819,0,0,1-3.819,3.819Z" transform="translate(-185.89 -150.982)" fill="#fa5d3f"/>
          <path id="Path_1176361" data-name="Path 1176361" d="M277.092,157.092H272V152l3.045.609a2.546,2.546,0,0,1,2.047,2.5Z" transform="translate(-255.706 -150.982)" fill="#d3463d"/>
          <path id="Path_1176362" data-name="Path 1176362" d="M202.037,320l5.092,4.074L200,326.11Z" transform="translate(-192.871 -297.595)" fill="#ecfbf9"/>
          <path id="Path_1176363" data-name="Path 1176363" d="M261.092,320,256,324.074l7.129,2.037Z" transform="translate(-241.743 -297.595)" fill="#ecfbf9"/>
          <path id="Path_1176364" data-name="Path 1176364" d="M199.435,167.778l-3.8-2.11-1.494-2.988,1.173-.782a3.557,3.557,0,0,0,1.587-2.965v-7.8a1.018,1.018,0,0,0,1.018-1.018v-1.986a3.574,3.574,0,0,0-2.865-3.5l-3.03-.606a.981.981,0,0,0-.1-.016l-.025,0h-.073l-.018,0h-6.365a4.843,4.843,0,0,0-4.837,4.837v4.328a1.018,1.018,0,0,0,1.018,1.018h1.018v4.748a3.557,3.557,0,0,0,1.587,2.966l1.173.782-1.494,2.988-3.8,2.11.989,1.78,1.785-.992-1.209,3.627a1.018,1.018,0,0,0,1.246,1.3l6.849-1.958,6.849,1.957a1.018,1.018,0,0,0,1.246-1.3l-1.209-3.627,1.785.992Zm-3.55-19.653v.967H192.83v-2.831l1.827.365A1.532,1.532,0,0,1,195.885,148.124Zm-13.239.713a2.8,2.8,0,0,1,2.8-2.8h5.347v3.31a2.8,2.8,0,0,1-2.8,2.8h-5.347Zm2.037,10.095v-4.748h3.31a4.845,4.845,0,0,0,4.5-3.055h2.377v7.8a1.525,1.525,0,0,1-.68,1.271l-3.564,2.376a1.524,1.524,0,0,1-1.695,0l-3.564-2.376A1.525,1.525,0,0,1,184.683,158.932Zm3.115,5.342a3.555,3.555,0,0,0,3.954,0l.683-.455,1.153,2.305-3.813,3.05-3.813-3.05,1.153-2.305Zm-3.575,6.732.964-2.893,2.411,1.928Zm7.729-.964,2.411-1.929.964,2.893Z" transform="translate(-175.518 -144)"/>
        </g>
        <g id="Group_1223766" data-name="Group 1223766" transform="translate(16 16)">
          <circle id="Ellipse_12774" data-name="Ellipse 12774" cx="10.355" cy="10.355" r="10.355" transform="translate(1.09 1.09)" fill="#fac850"/>
          <circle id="Ellipse_12775" data-name="Ellipse 12775" cx="7.085" cy="7.085" r="7.085" transform="translate(4.36 4.36)" fill="#fffdfa"/>
          <path id="Path_1176365" data-name="Path 1176365" d="M27.2,38.4A11.2,11.2,0,1,1,38.4,27.2,11.2,11.2,0,0,1,27.2,38.4Zm0-20.368A9.166,9.166,0,1,0,36.368,27.2,9.166,9.166,0,0,0,27.2,18.037Z" transform="translate(-16 -16)"/>
          <path id="Path_1176366" data-name="Path 1176366" d="M75.055,59.055h5.092V57.018H77.092V56H75.055v1.018a3.055,3.055,0,1,0,0,6.11h2.037a1.018,1.018,0,1,1,0,2.037H72V67.2h3.055v1.018h2.037V67.2a3.055,3.055,0,1,0,0-6.11H75.055a1.018,1.018,0,1,1,0-2.037Z" transform="translate(-64.871 -50.908)"/>
        </g>
        <g id="Group_1223768" data-name="Group 1223768" transform="translate(54.699 16)">
          <circle id="Ellipse_12776" data-name="Ellipse 12776" cx="10.355" cy="10.355" r="10.355" transform="translate(0.541 1.09)" fill="#c85aed"/>
          <path id="Path_1176367" data-name="Path 1176367" d="M331.2,38.4a11.2,11.2,0,1,1,11.2-11.2A11.2,11.2,0,0,1,331.2,38.4Zm0-20.368a9.166,9.166,0,1,0,9.166,9.166A9.166,9.166,0,0,0,331.2,18.037Z" transform="translate(-320 -16)"/>
          <g id="Group_1223767" data-name="Group 1223767" transform="translate(8.147 5.092)">
            <path id="Path_1176368" data-name="Path 1176368" d="M392,70.11V64l8.147,3.055Z" transform="translate(-390.982 -62.982)" fill="#f5f1ff"/>
            <path id="Path_1176369" data-name="Path 1176369" d="M385.018,64.147A1.018,1.018,0,0,1,384,63.128v-6.11a1.018,1.018,0,0,1,1.376-.954l8.147,3.055a1.018,1.018,0,0,1,0,1.907l-8.147,3.055a1.019,1.019,0,0,1-.358.065Zm1.018-5.659v3.171l4.228-1.586Z" transform="translate(-384 -56)"/>
            <path id="Path_1176370" data-name="Path 1176370" d="M393.523,59.12l-8.147-3.055a1.018,1.018,0,0,0-1.376.954v11.2h2.037V63.834l7.486-2.807a1.018,1.018,0,0,0,0-1.907Zm-7.486,2.539V58.488l4.228,1.586Z" transform="translate(-384 -56)"/>
          </g>
        </g>
        <g id="Group_1223770" data-name="Group 1223770" transform="translate(54.699 54.699)">
          <circle id="Ellipse_12777" data-name="Ellipse 12777" cx="10.355" cy="10.355" r="10.355" transform="translate(0.541 0.541)" fill="#fac850"/>
          <path id="Path_1176371" data-name="Path 1176371" d="M331.2,342.4a11.2,11.2,0,1,1,11.2-11.2,11.2,11.2,0,0,1-11.2,11.2Zm0-20.368a9.166,9.166,0,1,0,9.166,9.166A9.166,9.166,0,0,0,331.2,322.037Z" transform="translate(-320 -320)"/>
          <g id="Group_1223769" data-name="Group 1223769" transform="translate(4.073 4.714)">
            <path id="Path_1176372" data-name="Path 1176372" d="M370.184,406.11h-8.147L360,400h12.221Z" transform="translate(-358.982 -394.53)" fill="#fffdfa"/>
            <path id="Path_1176373" data-name="Path 1176373" d="M366.065,361.9a1.018,1.018,0,0,0-.826-.423h-1.347l-1.781-4.452-1.891.756,1.478,3.7h-5.139l1.478-3.7-1.891-.756-1.781,4.452h-1.347a1.018,1.018,0,0,0-.966,1.34l2.037,6.11a1.018,1.018,0,0,0,.966.7H363.2a1.018,1.018,0,0,0,.966-.7l2.037-6.11A1.019,1.019,0,0,0,366.065,361.9Zm-3.6,5.687h-6.679l-1.358-4.074h9.395Z" transform="translate(-351.999 -357.029)"/>
          </g>
        </g>
        <g id="Group_1223771" data-name="Group 1223771" transform="translate(17.09 55.24)">
          <circle id="Ellipse_12778" data-name="Ellipse 12778" cx="10.355" cy="10.355" r="10.355" transform="translate(0 0)" fill="#c85aed"/>
          <path id="Path_1176374" data-name="Path 1176374" d="M62.113,360.579,64,364.242l4.212.588-3.048,2.852.72,4.026-3.768-1.9-3.768,1.9.719-4.026-3.048-2.852,4.212-.588Z" transform="translate(-52.013 -355.954)" fill="#f5f1ff"/>
        </g>
        <g id="Group_1223772" data-name="Group 1223772" transform="translate(16 54.699)">
          <path id="Path_1176375" data-name="Path 1176375" d="M27.2,342.4a11.2,11.2,0,1,1,11.2-11.2,11.2,11.2,0,0,1-11.2,11.2Zm0-20.368a9.166,9.166,0,1,0,9.166,9.166,9.166,9.166,0,0,0-9.166-9.166Z" transform="translate(-16 -320)"/>
          <path id="Path_1176376" data-name="Path 1176376" d="M58.9,365.744a1.019,1.019,0,0,1-.458-.109l-3.309-1.67-3.309,1.67a1.018,1.018,0,0,1-1.461-1.088l.622-3.482-2.644-2.473a1.018,1.018,0,0,1,.555-1.752l3.689-.515,1.642-3.193a1.018,1.018,0,0,1,1.811,0l1.642,3.193,3.689.515a1.018,1.018,0,0,1,.555,1.752l-2.644,2.473.622,3.482a1.018,1.018,0,0,1-1,1.2Zm-3.768-3.938a1.018,1.018,0,0,1,.458.109l1.948.983-.361-2.02a1.018,1.018,0,0,1,.307-.923l1.489-1.394-2.1-.293a1.018,1.018,0,0,1-.765-.543l-.978-1.9-.978,1.9a1.018,1.018,0,0,1-.765.543l-2.1.293,1.489,1.394a1.018,1.018,0,0,1,.307.923l-.359,2.02,1.948-.983a1.019,1.019,0,0,1,.459-.109Z" transform="translate(-43.942 -348.432)"/>
        </g>
      </g>
    </g>
  </g>
</svg>
