<svg xmlns="http://www.w3.org/2000/svg" xmlns:xlink="http://www.w3.org/1999/xlink" width="113" height="113" viewBox="0 0 113 113">
  <defs>
    <filter id="Path_982547" x="0" y="0" width="113" height="113" filterUnits="userSpaceOnUse">
      <feOffset dy="3" input="SourceAlpha"/>
      <feGaussianBlur stdDeviation="3" result="blur"/>
      <feFlood flood-opacity="0.161"/>
      <feComposite operator="in" in2="blur"/>
      <feComposite in="SourceGraphic"/>
    </filter>
  </defs>
  <g id="Group_1225426" data-name="Group 1225426" transform="translate(-1163 -5913.21)">
    <g id="Group_1223779" data-name="Group 1223779" transform="translate(0 9.546)">
      <g id="Group_1206283" data-name="Group 1206283" transform="translate(0 -3448.335)">
        <g id="Group_1203804" data-name="Group 1203804" transform="translate(-1 6552)">
          <g id="Group_1202426" data-name="Group 1202426" transform="translate(0.5 1464)">
            <g id="Group_1178323" data-name="Group 1178323" transform="translate(0 424)">
              <g id="Group_1177681" data-name="Group 1177681" transform="translate(1172.5 918)">
                <g id="Group_1172010" data-name="Group 1172010">
                  <g id="Group_1171046" data-name="Group 1171046">
                    <g id="Group_1148525" data-name="Group 1148525">
                      <g transform="matrix(1, 0, 0, 1, -9, -6)" filter="url(#Path_982547)">
                        <g id="Path_982547-2" data-name="Path 982547" transform="translate(9 6)" fill="#ead9e0">
                          <path d="M 47.5 93.5 C 41.28937149047852 93.5 35.26533508300781 92.28397369384766 29.59518623352051 89.88570404052734 C 24.11771965026855 87.56893157958984 19.19813346862793 84.25196075439453 14.97309303283691 80.02691650390625 C 10.74804019927979 75.80186462402344 7.431066513061523 70.88229370117188 5.114293098449707 65.40481567382812 C 2.716026782989502 59.73468017578125 1.5 53.71062850952148 1.5 47.5 C 1.5 41.28937149047852 2.716026782989502 35.26533508300781 5.114293098449707 29.59518623352051 C 7.431066513061523 24.11771965026855 10.74804019927979 19.19813346862793 14.97309303283691 14.97309303283691 C 19.19813346862793 10.74804019927979 24.11771965026855 7.431066513061523 29.59518623352051 5.114293098449707 C 35.26533508300781 2.716026782989502 41.28937149047852 1.5 47.5 1.5 C 53.71062850952148 1.5 59.73468017578125 2.716026782989502 65.40481567382812 5.114293098449707 C 70.88229370117188 7.431066513061523 75.80186462402344 10.74804019927979 80.02691650390625 14.97309303283691 C 84.25196075439453 19.19813346862793 87.56893157958984 24.11771965026855 89.88570404052734 29.59518623352051 C 92.28397369384766 35.26533508300781 93.5 41.28937149047852 93.5 47.5 C 93.5 53.71062850952148 92.28397369384766 59.73468017578125 89.88570404052734 65.40481567382812 C 87.56893157958984 70.88229370117188 84.25196075439453 75.80186462402344 80.02691650390625 80.02691650390625 C 75.80186462402344 84.25196075439453 70.88229370117188 87.56893157958984 65.40481567382812 89.88570404052734 C 59.73468017578125 92.28397369384766 53.71062850952148 93.5 47.5 93.5 Z" stroke="none"/>
                          <path d="M 47.5 3 C 41.49121475219727 3 35.66376876831055 4.176155090332031 30.17950439453125 6.495796203613281 C 24.88084411621094 8.736953735351562 20.12152099609375 11.94598388671875 16.03375244140625 16.03375244140625 C 11.94598388671875 20.12152099609375 8.736953735351562 24.88084411621094 6.495796203613281 30.17950439453125 C 4.176155090332031 35.66376876831055 3 41.49121475219727 3 47.5 C 3 53.50878524780273 4.176155090332031 59.33623123168945 6.495796203613281 64.82049560546875 C 8.736953735351562 70.11915588378906 11.94598388671875 74.87847900390625 16.03375244140625 78.96624755859375 C 20.12152099609375 83.05401611328125 24.88084411621094 86.26304626464844 30.17950439453125 88.50419616699219 C 35.66376876831055 90.82384490966797 41.49121475219727 92 47.5 92 C 53.50878524780273 92 59.33623123168945 90.82384490966797 64.82049560546875 88.50419616699219 C 70.11915588378906 86.26304626464844 74.87847900390625 83.05401611328125 78.96624755859375 78.96624755859375 C 83.05401611328125 74.87847900390625 86.26304626464844 70.11915588378906 88.50419616699219 64.82049560546875 C 90.82384490966797 59.33623123168945 92 53.50878524780273 92 47.5 C 92 41.49121475219727 90.82384490966797 35.66376876831055 88.50419616699219 30.17950439453125 C 86.26304626464844 24.88084411621094 83.05401611328125 20.12152099609375 78.96624755859375 16.03375244140625 C 74.87847900390625 11.94598388671875 70.11915588378906 8.736953735351562 64.82049560546875 6.495796203613281 C 59.33623123168945 4.176155090332031 53.50878524780273 3 47.5 3 M 47.5 0 C 73.7335205078125 0 95 21.2664794921875 95 47.5 C 95 73.7335205078125 73.7335205078125 95 47.5 95 C 21.2664794921875 95 0 73.7335205078125 0 47.5 C 0 21.2664794921875 21.2664794921875 0 47.5 0 Z" stroke="none" fill="#9b4467"/>
                        </g>
                      </g>
                    </g>
                  </g>
                </g>
              </g>
            </g>
          </g>
        </g>
      </g>
      <g id="planta" transform="translate(1169.935 5923.379)">
        <g id="Group_1223776" data-name="Group 1223776" transform="translate(25.809 16.794)">
          <path id="Path_1176385" data-name="Path 1176385" d="M75.327,136.335a3.959,3.959,0,0,0-3.959-3.959H68.728V147.9h6.6S75.327,136.335,75.327,136.335Z" transform="translate(-68.728 -132.376)" fill="#fea084"/>
          <path id="Path_1176386" data-name="Path 1176386" d="M391.253,136.335a3.959,3.959,0,0,1,3.959-3.959h2.639V147.9h-6.6V136.335Z" transform="translate(-350.339 -132.376)" fill="#fea084"/>
        </g>
        <path id="Path_1176387" data-name="Path 1176387" d="M331.622,92.26V107h0a3.96,3.96,0,0,0-3.886.718l-7.871,6.559a3.951,3.951,0,0,0-1.441,3.055v14.52h10.558v-3.961a3.954,3.954,0,0,1,1.631-3.2l7.3-5.476a3.954,3.954,0,0,0,1.626-3.2V92.26a3.959,3.959,0,1,0-7.919,0Z" transform="translate(-260.941 -77.098)" fill="#ffd2ba"/>
        <g id="Group_1223777" data-name="Group 1223777" transform="translate(64.165 11.203)">
          <path id="Path_1176388" data-name="Path 1176388" d="M379.631,88.808a3.957,3.957,0,0,1,2.021,3.452v14.93a6.45,6.45,0,0,0-4.042-2.748v2.564a3.96,3.96,0,0,1,2.639,3.733h0a3.949,3.949,0,0,1-1.441,3.055l-6.287,5.192-.009.026a3.95,3.95,0,0,0-1.419,3.036v9.807h3.877V127.9a3.954,3.954,0,0,1,1.631-3.2l7.3-5.476a3.954,3.954,0,0,0,1.626-3.2V92.26a3.959,3.959,0,0,0-5.9-3.452Z" transform="translate(-371.094 -88.301)" fill="#ffbc99"/>
          <path id="Path_1176389" data-name="Path 1176389" d="M392.5,253.379a.841.841,0,0,0,1.192.122l1.108-.915a2.062,2.062,0,0,0-.6-3.528l-.051-.018a2.064,2.064,0,0,0-2,.383l-.016.013-1.043.87a.841.841,0,0,0-.118,1.172Z" transform="translate(-388.293 -228.555)" fill="#ffbc99"/>
        </g>
        <rect id="Rectangle_421599" data-name="Rectangle 421599" width="15.837" height="5.282" transform="translate(54.844 53.436)" fill="#dcf3f4"/>
        <rect id="Rectangle_421600" data-name="Rectangle 421600" width="3.972" height="5.271" transform="translate(66.721 53.447)" fill="#b0cdcf"/>
        <rect id="Rectangle_421601" data-name="Rectangle 421601" width="21.116" height="6.599" transform="translate(52.204 57.395)" fill="#25739e"/>
        <rect id="Rectangle_421602" data-name="Rectangle 421602" width="3.959" height="6.599" transform="translate(69.361 57.395)" fill="#216486"/>
        <path id="Path_1176390" data-name="Path 1176390" d="M35.032,92.26V107h0a3.96,3.96,0,0,1,3.886.718l7.871,6.559a3.951,3.951,0,0,1,1.441,3.055v14.52H37.671v-3.962a3.954,3.954,0,0,0-1.631-3.2l-7.3-5.476a3.954,3.954,0,0,1-1.626-3.2V92.26a3.959,3.959,0,1,1,7.919,0Z" transform="translate(-6.584 -77.098)" fill="#ffd2ba"/>
        <g id="Group_1223778" data-name="Group 1223778" transform="translate(20.529 11.203)">
          <path id="Path_1176391" data-name="Path 1176391" d="M33.011,88.808A3.957,3.957,0,0,0,30.99,92.26v14.93a6.45,6.45,0,0,1,4.042-2.748v2.564a3.961,3.961,0,0,0-2.639,3.733h0a3.948,3.948,0,0,0,1.441,3.055l6.287,5.192.009.026a3.95,3.95,0,0,1,1.419,3.036v9.807H37.671v-3.961a3.954,3.954,0,0,0-1.631-3.2l-7.3-5.476a3.954,3.954,0,0,1-1.626-3.2V92.26a3.959,3.959,0,0,1,5.9-3.452Z" transform="translate(-27.113 -88.301)" fill="#ffbc99"/>
          <path id="Path_1176392" data-name="Path 1176392" d="M86.734,253.379a.841.841,0,0,1-1.192.122l-1.108-.915a2.062,2.062,0,0,1,.6-3.528l.051-.018a2.056,2.056,0,0,1,.661-.109,2.035,2.035,0,0,1,1.336.491l.016.013,1.043.869a.841.841,0,0,1,.118,1.172Z" transform="translate(-76.507 -228.555)" fill="#ffbc99"/>
        </g>
        <rect id="Rectangle_421603" data-name="Rectangle 421603" width="15.837" height="5.282" transform="translate(28.449 53.436)" fill="#dcf3f4"/>
        <rect id="Rectangle_421604" data-name="Rectangle 421604" width="3.972" height="5.271" transform="translate(28.436 53.447)" fill="#b0cdcf"/>
        <rect id="Rectangle_421605" data-name="Rectangle 421605" width="21.116" height="6.599" transform="translate(25.809 57.395)" fill="#25739e"/>
        <rect id="Rectangle_421606" data-name="Rectangle 421606" width="3.959" height="6.599" transform="translate(25.809 57.395)" fill="#216486"/>
        <path id="Path_1176393" data-name="Path 1176393" d="M214.038,5.07a12.191,12.191,0,0,0,0,21.117,12.191,12.191,0,0,0,0-21.117Z" transform="translate(-164.473 -4.426)" fill="#4fd255"/>
        <path id="Path_1176394" data-name="Path 1176394" d="M242.376,5.07A12.241,12.241,0,0,0,240.4,6.5a12.181,12.181,0,0,1,0,18.26,12.244,12.244,0,0,0,1.98,1.428,12.191,12.191,0,0,0,0-21.117Z" transform="translate(-192.811 -4.426)" fill="#2cb855"/>
        <path id="Path_1176395" data-name="Path 1176395" d="M291.176,162.842a6.1,6.1,0,0,0-8.446,6.336,6.1,6.1,0,0,0,8.446-6.336Z" transform="translate(-229.737 -141.756)" fill="#4fd255"/>
        <path id="Path_1176396" data-name="Path 1176396" d="M291.187,163.507a6.121,6.121,0,0,0-1.335-.393,6.083,6.083,0,0,1-7.116,5.337,6.12,6.12,0,0,0,0,1.391,6.1,6.1,0,0,0,8.446-6.335Z" transform="translate(-229.748 -142.421)" fill="#2cb855"/>
        <path id="Path_1176397" data-name="Path 1176397" d="M162.09,162.842a6.1,6.1,0,0,1,8.446,6.336,6.1,6.1,0,0,1-8.446-6.336Z" transform="translate(-124.401 -141.756)" fill="#4fd255"/>
        <path id="Path_1176398" data-name="Path 1176398" d="M162.09,163.507a6.121,6.121,0,0,1,1.335-.393,6.083,6.083,0,0,0,7.116,5.337,6.119,6.119,0,0,1,0,1.391,6.1,6.1,0,0,1-8.446-6.335Z" transform="translate(-124.401 -142.421)" fill="#2cb855"/>
        <path id="Path_1176399" data-name="Path 1176399" d="M292.667,80.765a4.921,4.921,0,0,0-4.915,4.915v.77a4.923,4.923,0,0,0-3.96,4.821v9.484l-7.45,6.208a4.9,4.9,0,0,0-1.788,3.793V123h-1.684a.956.956,0,0,0-.956.956v3h-1.684a.956.956,0,0,0-.956.956v6.6a.956.956,0,0,0,1.912,0V128.87h19.2v5.643a.956.956,0,0,0,1.912,0v-6.6a.956.956,0,0,0-.956-.956h-1.683v-3a.956.956,0,0,0-.956-.956h-1.684v-1.683a3.016,3.016,0,0,1,1.238-2.43l.011-.008,7.291-5.469a4.935,4.935,0,0,0,2.018-3.971V85.68A4.921,4.921,0,0,0,292.667,80.765Zm-4.915,7.661V99.257c-.12-.009-.241-.015-.364-.015a4.93,4.93,0,0,0-1.683.3V91.272A3.008,3.008,0,0,1,287.752,88.426Zm0,38.532H273.827v-2.047h13.925v2.047Zm7.919-17.521a3.023,3.023,0,0,1-1.244,2.435l-7.3,5.472a4.934,4.934,0,0,0-2.018,3.971V123h-8.646V110.756a3,3,0,0,1,1.1-2.321l7.791-6.493.006,0,.082-.068a3,3,0,1,1,3.856,4.606l-7.486,6.183a.956.956,0,0,0,1.218,1.474l7.486-6.183a4.913,4.913,0,0,0-.851-8.147V85.68a3,3,0,1,1,6.007,0v23.756Z" transform="translate(-218.026 -70.518)"/>
        <path id="Path_1176400" data-name="Path 1176400" d="M314.486,476.118h-2.639a.956.956,0,0,0,0,1.912h2.639a.956.956,0,0,0,0-1.912Z" transform="translate(-254.363 -415.719)"/>
        <path id="Path_1176401" data-name="Path 1176401" d="M46.925,126.959H45.241v-3a.956.956,0,0,0-.956-.956H42.6V110.757a4.9,4.9,0,0,0-1.785-3.79l-7.454-6.211V91.273a4.923,4.923,0,0,0-3.96-4.821v-.77a4.915,4.915,0,0,0-9.831,0v23.756a4.929,4.929,0,0,0,2.009,3.964l7.3,5.476.011.008a3.016,3.016,0,0,1,1.238,2.43V123H28.448a.956.956,0,0,0-.956.956v3H25.809a.956.956,0,0,0-.956.956v6.6a.956.956,0,0,0,1.912,0v-5.643h3.508a.956.956,0,0,0,0-1.912H29.4v-2.047H43.329v2.047H34.542a.956.956,0,0,0,0,1.912H45.969v5.643a.956.956,0,1,0,1.912,0v-6.6A.956.956,0,0,0,46.925,126.959ZM31.452,91.273v8.268a4.919,4.919,0,0,0-1.684-.3c-.123,0-.244.006-.364.015V88.426A3.008,3.008,0,0,1,31.452,91.273Zm-1.426,26.072-7.306-5.479a3.017,3.017,0,0,1-1.234-2.427V85.681a3,3,0,1,1,6.007,0V99.8a4.914,4.914,0,0,0-.851,8.147l7.486,6.183a.956.956,0,0,0,1.218-1.474l-7.487-6.183a3,3,0,1,1,3.864-4.6l.076.064h0l7.8,6.5a3,3,0,0,1,1.093,2.318V123H32.043v-1.683A4.933,4.933,0,0,0,30.025,117.344Z" transform="translate(0 -70.519)"/>
        <path id="Path_1176402" data-name="Path 1176402" d="M168.827,476.118h-2.639a.956.956,0,0,0,0,1.912h2.639a.956.956,0,1,0,0-1.912Z" transform="translate(-127.182 -415.719)"/>
        <path id="Path_1176403" data-name="Path 1176403" d="M172.3,37.911a.956.956,0,0,0-.956-.956h-3V30.47l2.628-1.971a7.048,7.048,0,0,0,9.24-7.526.956.956,0,0,0-.575-.766,7.049,7.049,0,0,0-9.814,6.764l-1.48,1.11V22.61A13.145,13.145,0,0,0,167.866.13a.956.956,0,0,0-.958,0,13.144,13.144,0,0,0-.477,22.48v5.471l-1.48-1.11a7.049,7.049,0,0,0-9.814-6.764.956.956,0,0,0-.575.766A7.053,7.053,0,0,0,163.8,28.5l2.628,1.971v6.484h-3a.956.956,0,1,0,0,1.912h7.919A.956.956,0,0,0,172.3,37.911Zm1.481-15.331a5.162,5.162,0,0,1,4.566-.809,5.137,5.137,0,0,1-6.621,4.965A5.161,5.161,0,0,1,173.783,22.58Zm-15.3,3.348a5.162,5.162,0,0,1-2.055-4.156,5.137,5.137,0,0,1,6.621,4.965A5.161,5.161,0,0,1,158.48,25.928Zm3.767-14.412a11.281,11.281,0,0,1,5.141-9.438,11.229,11.229,0,0,1,.956,18.18V14.746l2.111-1.055a.956.956,0,0,0-.855-1.71l-1.256.628V8.876a.956.956,0,0,0-1.912,0V9.969l-1.256-.628a.956.956,0,1,0-.855,1.71l2.111,1.056v8.151A11.278,11.278,0,0,1,162.246,11.515Z" transform="translate(-117.822)"/>
      </g>
    </g>
  </g>
</svg>
