<svg xmlns="http://www.w3.org/2000/svg" xmlns:xlink="http://www.w3.org/1999/xlink" width="108" height="108" viewBox="0 0 108 108">
  <defs>
    <filter id="Path_904820" x="0" y="0" width="108" height="108" filterUnits="userSpaceOnUse">
      <feOffset dy="3" input="SourceAlpha"/>
      <feGaussianBlur stdDeviation="3" result="blur"/>
      <feFlood flood-opacity="0.161"/>
      <feComposite operator="in" in2="blur"/>
      <feComposite in="SourceGraphic"/>
    </filter>
  </defs>
  <g id="Group_1225404" data-name="Group 1225404" transform="translate(-198.5 -917.858)">
    <g id="Group_1223330" data-name="Group 1223330">
      <g id="Group_1221169" data-name="Group 1221169" transform="translate(207.5 923.858)">
        <g id="Group_1219744" data-name="Group 1219744">
          <g id="Group_1202418" data-name="Group 1202418">
            <g id="Group_1177315" data-name="Group 1177315">
              <g id="Group_1173585" data-name="Group 1173585">
                <g id="Group_1173428" data-name="Group 1173428" transform="translate(0 0)">
                  <g id="Group_1171958" data-name="Group 1171958">
                    <g id="Group_1167341" data-name="Group 1167341">
                      <g id="Group_1166792" data-name="Group 1166792">
                        <g transform="matrix(1, 0, 0, 1, -9, -6)" filter="url(#Path_904820)">
                          <g id="Path_904820-2" data-name="Path 904820" transform="translate(9 6)" fill="#fff9ee">
                            <path d="M 44.99999618530273 88.49999237060547 C 39.12687301635742 88.49999237060547 33.43022155761719 87.35006713867188 28.06829643249512 85.08216857910156 C 22.88852119445801 82.89130401611328 18.23629570007324 79.75457763671875 14.24084663391113 75.75914001464844 C 10.24540901184082 71.76369476318359 7.108683586120605 67.11146545410156 4.917821407318115 61.93169403076172 C 2.649921178817749 56.56976699829102 1.499996185302734 50.87311553955078 1.499996185302734 44.99999237060547 C 1.499996185302734 39.12686920166016 2.649921178817749 33.43021774291992 4.917821407318115 28.06829261779785 C 7.108683586120605 22.88851737976074 10.24540901184082 18.23630523681641 14.24084663391113 14.24085521697998 C 18.23629570007324 10.24540519714355 22.88852119445801 7.108692169189453 28.06829643249512 4.917829990386963 C 33.43022155761719 2.649929761886597 39.12687301635742 1.500004887580872 44.99999618530273 1.500004887580872 C 50.87311935424805 1.500004887580872 56.56977081298828 2.649929761886597 61.93169784545898 4.917829990386963 C 67.11147308349609 7.108692169189453 71.76369476318359 10.24540519714355 75.75914764404297 14.24085521697998 C 79.75458526611328 18.23630523681641 82.89131164550781 22.88851737976074 85.08216857910156 28.06829261779785 C 87.35007476806641 33.43021774291992 88.5 39.12686920166016 88.5 44.99999237060547 C 88.5 50.87311553955078 87.35007476806641 56.56976699829102 85.08216857910156 61.93169403076172 C 82.89131164550781 67.11146545410156 79.75458526611328 71.76369476318359 75.75914764404297 75.75914001464844 C 71.76369476318359 79.75457763671875 67.11147308349609 82.89130401611328 61.93169784545898 85.08216857910156 C 56.56977081298828 87.35006713867188 50.87311935424805 88.49999237060547 44.99999618530273 88.49999237060547 Z" stroke="none"/>
                            <path d="M 44.99999618530273 2.999992370605469 C 39.32870864868164 2.999992370605469 33.82865142822266 4.11004638671875 28.65262603759766 6.299331665039062 C 23.65165710449219 8.414566040039062 19.15968322753906 11.44333648681641 15.301513671875 15.30150604248047 C 11.44333648681641 19.15967559814453 8.414566040039062 23.65164947509766 6.299339294433594 28.65262222290039 C 4.110054016113281 33.82864761352539 2.999992370605469 39.32870483398438 2.999992370605469 44.99999237060547 C 2.999992370605469 50.67127990722656 4.110054016113281 56.17132186889648 6.299339294433594 61.34736633300781 C 8.414566040039062 66.34833526611328 11.44333648681641 70.84029388427734 15.301513671875 74.69846343994141 C 19.15968322753906 78.55663299560547 23.65165710449219 81.58540344238281 28.65262603759766 83.70063781738281 C 33.82865142822266 85.88992309570312 39.32870864868164 86.99997711181641 44.99999618530273 86.99997711181641 C 50.67128372192383 86.99997711181641 56.17134094238281 85.88992309570312 61.34736633300781 83.70063781738281 C 66.34834289550781 81.58540344238281 70.84030914306641 78.55663299560547 74.69847869873047 74.69846343994141 C 78.55665588378906 70.84029388427734 81.58542633056641 66.34833526611328 83.70065307617188 61.34736633300781 C 85.88993835449219 56.17132186889648 87 50.67127990722656 87 44.99999237060547 C 87 39.32870483398438 85.88993835449219 33.82864761352539 83.70065307617188 28.65262222290039 C 81.58542633056641 23.65164947509766 78.55665588378906 19.15967559814453 74.69847869873047 15.30150604248047 C 70.84030914306641 11.44333648681641 66.34834289550781 8.414566040039062 61.34736633300781 6.299331665039062 C 56.17134094238281 4.11004638671875 50.67128372192383 2.999992370605469 44.99999618530273 2.999992370605469 M 44.99999618530273 -7.62939453125e-06 C 69.85281372070312 -7.62939453125e-06 90 20.14717864990234 90 44.99999237060547 C 90 69.85279083251953 69.85281372070312 89.99997711181641 44.99999618530273 89.99997711181641 C 20.14717864990234 89.99997711181641 -7.62939453125e-06 69.85279083251953 -7.62939453125e-06 44.99999237060547 C -7.62939453125e-06 20.14717864990234 20.14717864990234 -7.62939453125e-06 44.99999618530273 -7.62939453125e-06 Z" stroke="none" fill="#ffc965"/>
                          </g>
                        </g>
                      </g>
                    </g>
                  </g>
                </g>
              </g>
            </g>
          </g>
        </g>
      </g>
      <g id="satisfaccion-del-consumidor" transform="translate(218.544 934.897)">
        <g id="Group_1223328" data-name="Group 1223328" transform="translate(0.994 1)">
          <path id="Path_1175325" data-name="Path 1175325" d="M164.235,132.308l-2.62-1.227-2.786-4.743,1.791-4.243.483-.663h-2.843l-5.642,2.83-.094.543.172.54-.383.676-1.147,6.6.967.288,2.813,3.88,1.343,1.464h.985l3.482-3.421,3.681-1.094.6-.586Z" transform="translate(-132.108 -106.319)" fill="#ce7bbc"/>
          <g id="Group_1223326" data-name="Group 1223326" transform="translate(15.354 11.871)">
            <path id="Path_1175326" data-name="Path 1175326" d="M127.83,110.428a9.563,9.563,0,0,1,8.575-9.512l.006-.015,1.332-1.83a8.742,8.742,0,0,0-11.047-.212l.629,1.644,1.161,3.648-1.79,3.155-2.654,1.521-.764,1.062h0l.531.595,4.108,1.226A9.628,9.628,0,0,1,127.83,110.428Z" transform="translate(-123.253 -96.997)" fill="#c464b0"/>
          </g>
          <path id="Path_1175327" data-name="Path 1175327" d="M299.207,127.22c-.033-.1-.564-4.377-.564-4.377l.858-2.193-3.407.1-5.239,4.906-.932,6.1.7,4.185,3.529,2.183,8.268-6.566.506-1.159h.107V130.4l-.107,0S299.241,127.32,299.207,127.22Z" transform="translate(-252.461 -105.642)" fill="#ffe02f"/>
          <g id="Group_1223327" data-name="Group 1223327" transform="translate(32.927 11.871)">
            <path id="Path_1175328" data-name="Path 1175328" d="M261.2,110.429a9.562,9.562,0,0,1,8.326-9.48l.355-.908.027-1.217a8.741,8.741,0,0,0-11.037.281l-3.141,12.851.886.785,7.74,4.787A9.538,9.538,0,0,1,261.2,110.429Z" transform="translate(-255.735 -96.998)" fill="#fbc700"/>
          </g>
          <path id="Path_1175329" data-name="Path 1175329" d="M377.521,199.613l-1.365.324-1.459.73-1.907,2.52-.962,3.056v8.252l.9.995.6.19h7.835A1.842,1.842,0,0,0,383,213.837V207.88A9.018,9.018,0,0,0,377.521,199.613Z" transform="translate(-323.502 -174.131)" fill="#ff5ca8"/>
          <path id="Path_1175330" data-name="Path 1175330" d="M328.928,209.125v-5.957A9.018,9.018,0,0,1,334.4,194.9a8.906,8.906,0,0,0-3.634-.72,9.034,9.034,0,0,0-8.653,7.146v.58l.752,2.874v5.527l.6.637a1.833,1.833,0,0,0,.273.022h7.024A1.842,1.842,0,0,1,328.928,209.125Z" transform="translate(-280.386 -169.419)" fill="#ff3c98"/>
          <path id="Path_1175331" data-name="Path 1175331" d="M115.81,205.779a9.05,9.05,0,0,0-5.388-6.488h-1.26l-2.984,2.7-1.36,3.283-.365,1.728v7.323l.97.88.8.19h7.929a1.854,1.854,0,0,0,.273-.022l.636-1.168v-4.377l1.15-2.826Z" transform="translate(-91.593 -173.852)" fill="#73d578"/>
          <path id="Path_1175332" data-name="Path 1175332" d="M62.778,209.125v-5.839a9.134,9.134,0,0,1,5.59-8.428,8.906,8.906,0,0,0-3.534-.677,9.065,9.065,0,0,0-8.866,9.1v5.839a1.842,1.842,0,0,0,1.842,1.842h6.81a1.842,1.842,0,0,1-1.842-1.842Z" transform="translate(-49.539 -169.418)" fill="#00c63a"/>
          <path id="Path_1175333" data-name="Path 1175333" d="M230.027,214.249H228l-4.421,3.473-1.459,3.272v9.595l1.321,1.542,1.254.436h9.97a2.076,2.076,0,0,0,2.076-2.076v-6.712A10.165,10.165,0,0,0,230.027,214.249Z" transform="translate(-193.652 -186.826)" fill="#00c2fb"/>
          <path id="Path_1175334" data-name="Path 1175334" d="M186.467,226.591v-6.579a10.283,10.283,0,0,1,6.729-9.663,10.038,10.038,0,0,0-3.55-.6,10.213,10.213,0,0,0-9.989,10.258v6.579a2.076,2.076,0,0,0,2.075,2.076h6.81A2.075,2.075,0,0,1,186.467,226.591Z" transform="translate(-156.821 -182.926)" fill="#00abf2"/>
          <path id="Path_1175335" data-name="Path 1175335" d="M386.9,109.157h-.776l-2.246,1.694-.672,2.786.672,3.117,1.417,2.255,1.605.616a6.043,6.043,0,0,0,0-10.468Z" transform="translate(-333.368 -95.673)" fill="#ffcebe"/>
          <path id="Path_1175336" data-name="Path 1175336" d="M348.745,109.091a6.041,6.041,0,0,1,3.022-5.234,6.045,6.045,0,1,0,0,10.468A6.041,6.041,0,0,1,348.745,109.091Z" transform="translate(-298.238 -90.373)" fill="#ffb1a0"/>
          <path id="Path_1175337" data-name="Path 1175337" d="M321.15,13.743h-.8l-1.658,1.948-1.238,2.94.464,2.631,2.089,2.365,1.143.332a5.935,5.935,0,0,0,0-10.217Z" transform="translate(-276.34 -12.916)" fill="#ffcebe"/>
          <path id="Path_1175338" data-name="Path 1175338" d="M283.833,13.441a5.932,5.932,0,0,1,2.913-5.108,5.936,5.936,0,1,0,0,10.217,5.932,5.932,0,0,1-2.913-5.108Z" transform="translate(-241.936 -7.505)" fill="#ffb1a0"/>
          <path id="Path_1175339" data-name="Path 1175339" d="M251.481,112.409h-.906l-1.946,1.772s-1.26,2.768-1.3,3.031,0,3.183,0,3.183l1.835,3.381,1.127.8,1.193.044a6.81,6.81,0,0,0,0-12.206Z" transform="translate(-215.496 -98.494)" fill="#ffcebe"/>
          <path id="Path_1175340" data-name="Path 1175340" d="M210.7,113.887a6.809,6.809,0,0,1,3.788-6.1,6.81,6.81,0,1,0,0,12.206A6.81,6.81,0,0,1,210.7,113.887Z" transform="translate(-178.504 -93.869)" fill="#ffb1a0"/>
          <path id="Path_1175341" data-name="Path 1175341" d="M189.811,13.743h-.518l-2.343,2.081-.663,2.763v1.658l1.371,2.52.929.862,1.226.332a5.935,5.935,0,0,0,0-10.217Z" transform="translate(-162.571 -12.916)" fill="#ffcebe"/>
          <path id="Path_1175342" data-name="Path 1175342" d="M151.373,13.441a5.932,5.932,0,0,1,2.913-5.108,5.936,5.936,0,1,0,0,10.217,5.931,5.931,0,0,1-2.913-5.108Z" transform="translate(-127.046 -7.505)" fill="#ffb1a0"/>
          <path id="Path_1175343" data-name="Path 1175343" d="M124.344,109.157h-.966l-1.5,1.628-.929,2.288v2.321l.962,2.57,1.376,1.559,1.052.1a6.043,6.043,0,0,0,0-10.468Z" transform="translate(-105.905 -95.673)" fill="#ffcebe"/>
          <path id="Path_1175344" data-name="Path 1175344" d="M84.2,109.091a6.041,6.041,0,0,1,3.022-5.234,6.045,6.045,0,1,0,0,10.468A6.041,6.041,0,0,1,84.2,109.091Z" transform="translate(-68.785 -90.373)" fill="#ffb1a0"/>
          <path id="Path_1175345" data-name="Path 1175345" d="M229.8,399.918l-.588.741.588,3.417,2.539,2.463s2.542.495,2.632.495,1.968-.36,1.968-.36l.542-.446,0-.028a1.465,1.465,0,0,1,.421-1.3l1.9-1.856a1.465,1.465,0,0,0-.812-2.5l-2.631-.382a1.465,1.465,0,0,1-1.1-.8l-1.177-2.384a1.465,1.465,0,0,0-2.627,0l-1.177,2.384A1.464,1.464,0,0,1,229.8,399.918Z" transform="translate(-199.8 -344.612)" fill="#ffe02f"/>
          <path id="Path_1175346" data-name="Path 1175346" d="M211.807,430.761a5.871,5.871,0,0,1-7.729-5.569,5.939,5.939,0,0,1,.048-.741,1.463,1.463,0,0,1-.627.25l-2.631.382a1.465,1.465,0,0,0-.812,2.5l1.9,1.856a1.465,1.465,0,0,1,.421,1.3l-.449,2.62a1.465,1.465,0,0,0,2.125,1.544l2.353-1.237a1.465,1.465,0,0,1,1.363,0l2.353,1.237a1.465,1.465,0,0,0,2.125-1.544Z" transform="translate(-174.13 -369.145)" fill="#fbc700"/>
          <path id="Path_1175347" data-name="Path 1175347" d="M357.534,384.773l-.434.547.434,2.521,1.873,1.817s1.875.365,1.942.365,1.452-.266,1.452-.266l.4-.329,0-.02a1.08,1.08,0,0,1,.311-.956l1.4-1.369a1.081,1.081,0,0,0-.6-1.843l-1.941-.282a1.08,1.08,0,0,1-.814-.591l-.868-1.759a1.081,1.081,0,0,0-1.938,0l-.868,1.759A1.079,1.079,0,0,1,357.534,384.773Z" transform="translate(-310.728 -332.33)" fill="#ffe02f"/>
          <path id="Path_1175348" data-name="Path 1175348" d="M344.262,407.526a4.331,4.331,0,0,1-5.7-4.108,4.372,4.372,0,0,1,.036-.547,1.078,1.078,0,0,1-.463.184l-1.941.282a1.081,1.081,0,0,0-.6,1.843l1.4,1.369a1.081,1.081,0,0,1,.311.956l-.331,1.933a1.081,1.081,0,0,0,1.568,1.139l1.736-.913a1.08,1.08,0,0,1,1.006,0l1.736.913a1.081,1.081,0,0,0,1.568-1.139Z" transform="translate(-291.79 -350.428)" fill="#fbc700"/>
          <path id="Path_1175349" data-name="Path 1175349" d="M453.91,350.124l-.36.454.36,2.093,1.555,1.509s1.557.3,1.612.3,1.206-.22,1.206-.22l.332-.273,0-.017a.9.9,0,0,1,.258-.794l1.166-1.137a.9.9,0,0,0-.5-1.53l-1.611-.234a.9.9,0,0,1-.676-.491l-.721-1.46a.9.9,0,0,0-1.609,0l-.721,1.46A.9.9,0,0,1,453.91,350.124Z" transform="translate(-394.384 -302.684)" fill="#ffe02f"/>
          <path id="Path_1175350" data-name="Path 1175350" d="M442.89,369.018a3.6,3.6,0,0,1-4.734-3.411,3.63,3.63,0,0,1,.029-.454.9.9,0,0,1-.384.153l-1.611.234a.9.9,0,0,0-.5,1.53l1.166,1.137a.9.9,0,0,1,.258.794l-.275,1.6a.9.9,0,0,0,1.3.946l1.441-.758a.9.9,0,0,1,.835,0l1.441.758a.9.9,0,0,0,1.3-.946Z" transform="translate(-378.659 -317.713)" fill="#fbc700"/>
          <path id="Path_1175351" data-name="Path 1175351" d="M115.8,384.773l-.434.547.434,2.521,1.873,1.817s1.875.365,1.942.365,1.452-.266,1.452-.266l.4-.329,0-.02a1.08,1.08,0,0,1,.311-.956l1.4-1.369a1.081,1.081,0,0,0-.6-1.843l-1.941-.282a1.08,1.08,0,0,1-.814-.591l-.868-1.759a1.081,1.081,0,0,0-1.938,0l-.868,1.759A1.077,1.077,0,0,1,115.8,384.773Z" transform="translate(-101.063 -332.33)" fill="#ffe02f"/>
          <path id="Path_1175352" data-name="Path 1175352" d="M102.533,407.526a4.331,4.331,0,0,1-5.7-4.108,4.375,4.375,0,0,1,.036-.547,1.078,1.078,0,0,1-.463.184l-1.941.282a1.08,1.08,0,0,0-.6,1.843l1.4,1.369a1.08,1.08,0,0,1,.311.956l-.331,1.933a1.081,1.081,0,0,0,1.568,1.139l1.736-.913a1.08,1.08,0,0,1,1.006,0l1.736.913a1.081,1.081,0,0,0,1.568-1.139Z" transform="translate(-82.125 -350.428)" fill="#fbc700"/>
          <path id="Path_1175353" data-name="Path 1175353" d="M25.989,350.124l-.36.454.36,2.093,1.555,1.509s1.557.3,1.612.3,1.206-.22,1.206-.22l.332-.273,0-.017a.9.9,0,0,1,.258-.794l1.166-1.137a.9.9,0,0,0-.5-1.53l-1.611-.234a.9.9,0,0,1-.676-.491l-.721-1.46a.9.9,0,0,0-1.609,0l-.721,1.46A.9.9,0,0,1,25.989,350.124Z" transform="translate(-23.224 -302.684)" fill="#ffe02f"/>
          <path id="Path_1175354" data-name="Path 1175354" d="M14.97,369.018a3.6,3.6,0,0,1-4.734-3.411,3.631,3.631,0,0,1,.029-.454.9.9,0,0,1-.384.153l-1.611.234a.9.9,0,0,0-.5,1.53l1.166,1.137A.9.9,0,0,1,9.2,369l-.275,1.6a.9.9,0,0,0,1.3.946l1.441-.758a.9.9,0,0,1,.835,0l1.441.758a.9.9,0,0,0,1.3-.946Z" transform="translate(-7.5 -317.713)" fill="#fbc700"/>
        </g>
        <g id="Group_1223329" data-name="Group 1223329" transform="translate(-0.001 0.005)">
          <path id="Path_1175355" data-name="Path 1175355" d="M48.47,34.867v5.839a2.84,2.84,0,0,0,2.837,2.837h13.57v1.122a3.074,3.074,0,0,0,3.07,3.07h5.729a.995.995,0,1,0,0-1.99H67.947a1.082,1.082,0,0,1-1.081-1.081V38.086a9.132,9.132,0,1,1,18.263-.133v6.712a1.082,1.082,0,0,1-1.081,1.081H78.319a.995.995,0,0,0,0,1.99h5.729a3.074,3.074,0,0,0,3.07-3.07V43.543h13.57a2.84,2.84,0,0,0,2.837-2.837V34.749a10,10,0,0,0-6.073-9.181,7.041,7.041,0,0,0,2.525-3,.995.995,0,0,0-1.818-.808,5.05,5.05,0,1,1,.09-3.878.995.995,0,1,0,1.854-.722,7.035,7.035,0,0,0-9.876-3.654,9.811,9.811,0,0,0-1.526-.833,6.93,6.93,0,1,0-7.746.006,9.778,9.778,0,0,0-1.95,1.133,7.789,7.789,0,0,0-5.95-.026,9.833,9.833,0,0,0-1.931-1.108,6.93,6.93,0,1,0-7.744,0,9.723,9.723,0,0,0-1.558.859,7.037,7.037,0,0,0-7.268,12.037,10.149,10.149,0,0,0-6.085,9.291Zm45.187-8.108a8.009,8.009,0,0,1,7.879,7.99v5.957a.848.848,0,0,1-.847.847H87.119v-3.6a11.117,11.117,0,0,0-1.291-5.193,7.976,7.976,0,0,1,7.829-6ZM79.883,6.936a4.941,4.941,0,1,1,4.941,4.941A4.946,4.946,0,0,1,79.883,6.936Zm4.835,6.931a7.692,7.692,0,0,1,3.793.929,7.037,7.037,0,0,0,1.13,10.779,10.094,10.094,0,0,0-5.2,5.161,11.248,11.248,0,0,0-4.3-3.1,7.806,7.806,0,0,0,.76-12.691,7.733,7.733,0,0,1,3.821-1.075ZM76,15.2a5.815,5.815,0,0,1,0,11.631h-.008A5.815,5.815,0,0,1,76,15.2Zm-4.859-.294a7.8,7.8,0,0,0,.72,12.724,11.011,11.011,0,0,0-4.271,3.1,10.03,10.03,0,0,0-5.226-5.161,7.035,7.035,0,0,0,1.156-10.74,7.646,7.646,0,0,1,3.63-.963,7.779,7.779,0,0,1,3.991,1.042ZM62.313,6.936a4.941,4.941,0,1,1,4.941,4.941,4.947,4.947,0,0,1-4.941-4.941ZM53.4,19.717a5.05,5.05,0,1,1,5.023,5.049A5.055,5.055,0,0,1,53.4,19.717Zm4.941,7.039A8.031,8.031,0,0,1,66.2,32.78a11.376,11.376,0,0,0-1.321,5.306v3.467H51.307a.848.848,0,0,1-.847-.847V34.867a8.084,8.084,0,0,1,7.885-8.11Z" transform="translate(-42.04 -0.005)"/>
          <path id="Path_1175356" data-name="Path 1175356" d="M208.317,397.255a2.46,2.46,0,0,0-1.363-4.2l-2.631-.382a.47.47,0,0,1-.354-.257l-1.177-2.384a2.46,2.46,0,0,0-4.411,0l-1.177,2.384a.47.47,0,0,1-.354.257l-2.631.382a2.459,2.459,0,0,0-1.363,4.2l1.9,1.856a.47.47,0,0,1,.135.416l-.45,2.62a2.46,2.46,0,0,0,3.569,2.593l2.353-1.237a.47.47,0,0,1,.437,0l2.353,1.237a2.459,2.459,0,0,0,3.569-2.593l-.449-2.62a.47.47,0,0,1,.135-.416Zm-3.292.431a2.46,2.46,0,0,0-.707,2.177l.449,2.62a.47.47,0,0,1-.682.5l-2.353-1.237a2.46,2.46,0,0,0-2.289,0l-2.353,1.237a.47.47,0,0,1-.682-.5l.45-2.62a2.46,2.46,0,0,0-.707-2.177l-1.9-1.856a.47.47,0,0,1,.26-.8l2.631-.382a2.459,2.459,0,0,0,1.852-1.345l1.177-2.384a.47.47,0,0,1,.843,0l1.177,2.384a2.459,2.459,0,0,0,1.852,1.345l2.631.382a.47.47,0,0,1,.261.8Z" transform="translate(-166.63 -337.112)"/>
          <path id="Path_1175357" data-name="Path 1175357" d="M340.689,379.162a2.062,2.062,0,0,0-1.675-1.413l-1.941-.282a.086.086,0,0,1-.065-.047l-.868-1.759a2.075,2.075,0,0,0-3.722,0l-.868,1.759a.086.086,0,0,1-.064.047l-1.941.282a2.075,2.075,0,0,0-1.15,3.54l1.4,1.369a.086.086,0,0,1,.025.076l-.332,1.933a2.075,2.075,0,0,0,3.011,2.188l1.736-.913a.085.085,0,0,1,.08,0l1.736.912a2.075,2.075,0,0,0,3.011-2.188l-.332-1.933a.085.085,0,0,1,.025-.076l1.4-1.369h0A2.064,2.064,0,0,0,340.689,379.162Zm-1.914.7-1.4,1.369a2.074,2.074,0,0,0-.6,1.837l.332,1.933a.086.086,0,0,1-.124.09l-1.736-.913a2.075,2.075,0,0,0-1.931,0l-1.736.913a.074.074,0,0,1-.09-.007.075.075,0,0,1-.034-.084l.332-1.933a2.075,2.075,0,0,0-.6-1.837l-1.4-1.369a.086.086,0,0,1,.047-.146l1.941-.282a2.075,2.075,0,0,0,1.563-1.135l.868-1.759a.086.086,0,0,1,.154,0l.868,1.758a2.075,2.075,0,0,0,1.563,1.135l1.941.282a.086.086,0,0,1,.048.146Z" transform="translate(-284.29 -324.83)"/>
          <path id="Path_1175358" data-name="Path 1175358" d="M438.5,346.25a1.892,1.892,0,0,0-1.049-3.227l-1.561-.227-.7-1.414a1.892,1.892,0,0,0-3.393,0l-.7,1.414-1.561.227a1.892,1.892,0,0,0-1.049,3.227l1.129,1.1-.267,1.554A1.892,1.892,0,0,0,432.1,350.9l1.4-.734,1.4.734a1.892,1.892,0,0,0,2.745-1.994l-.267-1.554Zm-2.555-.288a1.891,1.891,0,0,0-.544,1.675l.242,1.41-1.266-.666a1.892,1.892,0,0,0-1.761,0l-1.266.666.242-1.41a1.892,1.892,0,0,0-.544-1.674l-1.024-1,1.416-.206a1.892,1.892,0,0,0,1.424-1.035l.633-1.283.633,1.283a1.892,1.892,0,0,0,1.425,1.035l1.415.206Z" transform="translate(-371.157 -295.185)"/>
          <path id="Path_1175359" data-name="Path 1175359" d="M86.667,381.289l1.4,1.369a.086.086,0,0,1,.025.076l-.331,1.933a2.075,2.075,0,0,0,3.011,2.188l1.736-.913a.085.085,0,0,1,.08,0l1.736.912a2.075,2.075,0,0,0,3.011-2.188l-.332-1.933a.085.085,0,0,1,.025-.076l1.4-1.369a2.075,2.075,0,0,0-1.15-3.54l-1.941-.282a.086.086,0,0,1-.065-.047l-.868-1.759a2.075,2.075,0,0,0-3.722,0l-.868,1.759a.086.086,0,0,1-.064.047l-1.941.282a2.076,2.076,0,0,0-1.151,3.54Zm1.367-1.513a.075.075,0,0,1,.069-.058l1.941-.282a2.075,2.075,0,0,0,1.563-1.135l.868-1.759a.086.086,0,0,1,.154,0L93.5,378.3a2.075,2.075,0,0,0,1.563,1.135l1.941.282a.086.086,0,0,1,.047.146l-1.4,1.369a2.075,2.075,0,0,0-.6,1.837L95.377,385a.086.086,0,0,1-.124.09l-1.736-.913a2.076,2.076,0,0,0-1.932,0l-1.736.913a.074.074,0,0,1-.09-.007.075.075,0,0,1-.034-.084l.331-1.933a2.075,2.075,0,0,0-.6-1.837l-1.4-1.369h0a.075.075,0,0,1-.021-.088Z" transform="translate(-74.626 -324.829)"/>
          <path id="Path_1175360" data-name="Path 1175360" d="M5.575,340.327a1.88,1.88,0,0,0-1.7,1.055l-.7,1.414-1.561.227A1.892,1.892,0,0,0,.571,346.25h0l1.129,1.1L1.434,348.9A1.892,1.892,0,0,0,4.179,350.9l1.4-.734,1.4.734A1.892,1.892,0,0,0,9.716,348.9l-.267-1.554,1.129-1.1a1.892,1.892,0,0,0-1.049-3.227L7.969,342.8l-.7-1.414a1.88,1.88,0,0,0-1.7-1.055Zm2.058,4.43,1.416.206-1.024,1a1.892,1.892,0,0,0-.544,1.675l.242,1.41-1.266-.666a1.893,1.893,0,0,0-1.761,0l-1.266.666.242-1.409a1.891,1.891,0,0,0-.544-1.675l-1.024-1,1.416-.206a1.892,1.892,0,0,0,1.424-1.035l.633-1.283.633,1.283a1.893,1.893,0,0,0,1.425,1.035Z" transform="translate(0.001 -295.185)"/>
        </g>
      </g>
    </g>
  </g>
</svg>
