<svg xmlns="http://www.w3.org/2000/svg" xmlns:xlink="http://www.w3.org/1999/xlink" width="108" height="108" viewBox="0 0 108 108">
  <defs>
    <filter id="Path_904820" x="0" y="0" width="108" height="108" filterUnits="userSpaceOnUse">
      <feOffset dy="3" input="SourceAlpha"/>
      <feGaussianBlur stdDeviation="3" result="blur"/>
      <feFlood flood-opacity="0.161"/>
      <feComposite operator="in" in2="blur"/>
      <feComposite in="SourceGraphic"/>
    </filter>
  </defs>
  <g id="Group_1225459" data-name="Group 1225459" transform="translate(-618.382 -4131.667)">
    <g id="Group_1223906" data-name="Group 1223906">
      <g id="Group_1223057" data-name="Group 1223057" transform="translate(627.383 4137.667)">
        <g id="Group_1219744" data-name="Group 1219744" transform="translate(0 0)">
          <g id="Group_1202418" data-name="Group 1202418">
            <g id="Group_1177315" data-name="Group 1177315">
              <g id="Group_1173585" data-name="Group 1173585">
                <g id="Group_1173428" data-name="Group 1173428">
                  <g id="Group_1171958" data-name="Group 1171958">
                    <g id="Group_1167341" data-name="Group 1167341">
                      <g id="Group_1166792" data-name="Group 1166792">
                        <g transform="matrix(1, 0, 0, 1, -9, -6)" filter="url(#Path_904820)">
                          <g id="Path_904820-2" data-name="Path 904820" transform="translate(9 6)" fill="#fff9ee">
                            <path d="M 44.99996948242188 88.49990081787109 C 39.12684631347656 88.49990081787109 33.43020629882812 87.3499755859375 28.06828117370605 85.08207702636719 C 22.88850784301758 82.89122772216797 18.23629379272461 79.75450134277344 14.2408447265625 75.75906372070312 C 10.24540710449219 71.76361846923828 7.108694553375244 67.11140441894531 4.917831897735596 61.931640625 C 2.649931907653809 56.56971740722656 1.500007033348083 50.87306594848633 1.500007033348083 44.99995422363281 C 1.500007033348083 39.1268424987793 2.649931907653809 33.43019104003906 4.917831897735596 28.06826591491699 C 7.108694553375244 22.88850402832031 10.24540710449219 18.23629188537598 14.2408447265625 14.24084186553955 C 18.23629379272461 10.24540424346924 22.88850784301758 7.108679294586182 28.06828117370605 4.917829036712646 C 33.43020629882812 2.649929285049438 39.12684631347656 1.500004172325134 44.99996948242188 1.500004172325134 C 50.87309265136719 1.500004172325134 56.56973266601562 2.649929285049438 61.93165588378906 4.917829036712646 C 67.11143493652344 7.108691692352295 71.76365661621094 10.24540424346924 75.75909423828125 14.24084186553955 C 79.75454711914062 18.23629188537598 82.89125823974609 22.88850402832031 85.08212280273438 28.06826591491699 C 87.35002136230469 33.43019104003906 88.49994659423828 39.1268424987793 88.49994659423828 44.99995422363281 C 88.49994659423828 50.87306594848633 87.35002136230469 56.56971740722656 85.08212280273438 61.931640625 C 82.89125823974609 67.11140441894531 79.75454711914062 71.76361846923828 75.75909423828125 75.75906372070312 C 71.76365661621094 79.75450134277344 67.11143493652344 82.89122009277344 61.93165588378906 85.08207702636719 C 56.56973266601562 87.3499755859375 50.87309265136719 88.49990081787109 44.99996948242188 88.49990081787109 Z" stroke="none"/>
                            <path d="M 44.99996948242188 3 C 39.32868194580078 3 33.82863998413086 4.110054016113281 28.6525993347168 6.299324035644531 C 23.65164184570312 8.414566040039062 19.15966796875 11.44332885742188 15.30149841308594 15.30149841308594 C 11.44332885742188 19.15966796875 8.414566040039062 23.65162658691406 6.299324035644531 28.65259552001953 C 4.110054016113281 33.8286247253418 3 39.32866668701172 3 44.99995422363281 C 3 50.67124176025391 4.110054016113281 56.17128372192383 6.299324035644531 61.34731292724609 C 8.414566040039062 66.34828186035156 11.44332885742188 70.84024047851562 15.30149841308594 74.69841003417969 C 19.15966796875 78.55657958984375 23.65164184570312 81.58534240722656 28.6525993347168 83.70058441162109 C 33.82863998413086 85.88985443115234 39.32868194580078 86.99990844726562 44.99996948242188 86.99990844726562 C 50.67125701904297 86.99990844726562 56.17129898071289 85.88985443115234 61.34734344482422 83.70058441162109 C 66.34829711914062 81.58534240722656 70.84027099609375 78.55657958984375 74.69844055175781 74.69841003417969 C 78.55661010742188 70.84024047851562 81.58537292480469 66.34828186035156 83.70061492919922 61.34731292724609 C 85.88988494873047 56.17128372192383 86.99993896484375 50.67124176025391 86.99993896484375 44.99995422363281 C 86.99993896484375 39.32866668701172 85.88988494873047 33.8286247253418 83.70061492919922 28.65259552001953 C 81.58537292480469 23.65162658691406 78.55661010742188 19.15966796875 74.69844055175781 15.30149841308594 C 70.84027099609375 11.44332885742188 66.34829711914062 8.414566040039062 61.34734344482422 6.299324035644531 C 56.17129898071289 4.110054016113281 50.67125701904297 3 44.99996948242188 3 M 44.99996948242188 0 C 69.85276794433594 0 89.99993896484375 20.14717102050781 89.99993896484375 44.99995422363281 C 89.99993896484375 69.85273742675781 69.85276794433594 89.99990844726562 44.99996948242188 89.99990844726562 C 20.14717102050781 89.99990844726562 0 69.85273742675781 0 44.99995422363281 C 0 20.14717102050781 20.14717102050781 0 44.99996948242188 0 Z" stroke="none" fill="#ffc965"/>
                          </g>
                        </g>
                      </g>
                    </g>
                  </g>
                </g>
              </g>
            </g>
          </g>
        </g>
      </g>
      <g id="planificacion" transform="translate(641.723 4152.007)">
        <g id="Group_1223904" data-name="Group 1223904" transform="translate(0.958 0.958)">
          <path id="Path_1176737" data-name="Path 1176737" d="M81.391,38.4l-2.476-.372a11.553,11.553,0,0,0-1.821-4.394l1.488-2.015a.886.886,0,0,0-.086-1.153l-1.282-1.282a.886.886,0,0,0-1.153-.086l-2.015,1.488a11.553,11.553,0,0,0-4.394-1.821l-.372-2.476a.886.886,0,0,0-.876-.754H66.592a.886.886,0,0,0-.876.754l-.372,2.476a11.55,11.55,0,0,0-4.394,1.821L58.935,29.1a.886.886,0,0,0-1.153.086L56.5,30.466a.886.886,0,0,0-.086,1.153L57.9,33.633a11.553,11.553,0,0,0-1.821,4.394l-2.476.372a.886.886,0,0,0-.754.876v1.812a.886.886,0,0,0,.754.876l2.476.372A11.55,11.55,0,0,0,57.9,46.73l-1.488,2.015A.886.886,0,0,0,56.5,49.9l1.282,1.282a.886.886,0,0,0,1.153.086l2.015-1.488A11.553,11.553,0,0,0,65.344,51.6l.372,2.476a.886.886,0,0,0,.876.754H68.4a.886.886,0,0,0,.876-.754l.372-2.476a11.553,11.553,0,0,0,4.394-1.821l2.015,1.488a.886.886,0,0,0,1.153-.086L78.5,49.9a.886.886,0,0,0,.086-1.153L77.094,46.73a11.553,11.553,0,0,0,1.821-4.394l2.476-.372a.886.886,0,0,0,.754-.876V39.275a.886.886,0,0,0-.754-.876ZM67.5,46.044a5.862,5.862,0,1,1,5.863-5.862A5.862,5.862,0,0,1,67.5,46.044Z" transform="translate(-47.48 -23.435)" fill="#ffe27a"/>
          <circle id="Ellipse_12786" data-name="Ellipse 12786" cx="3.204" cy="3.204" r="3.204" transform="translate(47.623)" fill="#ff4755"/>
          <path id="Path_1176738" data-name="Path 1176738" d="M408.854,27.875a3.2,3.2,0,0,1-3.017-2.126,3.2,3.2,0,1,0,6.034,0A3.2,3.2,0,0,1,408.854,27.875Z" transform="translate(-358.026 -23.623)" fill="#fc2b3a"/>
          <circle id="Ellipse_12787" data-name="Ellipse 12787" cx="3.204" cy="3.204" r="3.204" transform="translate(47.623 27.086)" fill="#ff4755"/>
          <path id="Path_1176739" data-name="Path 1176739" d="M408.854,254.041a3.2,3.2,0,0,1-3.017-2.126,3.2,3.2,0,1,0,6.034,0A3.2,3.2,0,0,1,408.854,254.041Z" transform="translate(-358.026 -222.703)" fill="#fc2b3a"/>
          <g id="Group_1223903" data-name="Group 1223903" transform="translate(0 35.402)">
            <path id="Path_1176740" data-name="Path 1176740" d="M315.369,323.289a2.446,2.446,0,0,1,2.444,2.449l5.76-3.036a2.184,2.184,0,1,0-2.054-3.855l-8.194,4.443h2.044Z" transform="translate(-276.759 -316.789)" fill="#f4b184"/>
            <path id="Path_1176741" data-name="Path 1176741" d="M230.206,310.1l11.9-6.24a2.28,2.28,0,0,1,2.14,4.027l-4.082,2.213Z" transform="translate(-203.594 -303.603)" fill="#f4b184"/>
            <path id="Path_1176742" data-name="Path 1176742" d="M282.177,320.28l4.082-2.213a2.284,2.284,0,0,0,1.01-2.9l-9.33,5.115Z" transform="translate(-245.61 -313.78)" fill="#eaa678"/>
            <path id="Path_1176743" data-name="Path 1176743" d="M345.9,336.785l5.76-3.036a2.186,2.186,0,0,0,1.056-2.616l-7.482,3.976A2.44,2.44,0,0,1,345.9,336.785Z" transform="translate(-304.85 -327.836)" fill="#eaa678"/>
            <path id="Path_1176744" data-name="Path 1176744" d="M223.317,336.272a2.447,2.447,0,0,1-2.138,2.429l-15.207,1.926,6.458.779a28.8,28.8,0,0,0,17.441-3.422l5.916-3.289a2.21,2.21,0,0,0-2.1-3.889Z" transform="translate(-182.262 -327.324)" fill="#f4b184"/>
            <path id="Path_1176745" data-name="Path 1176745" d="M235.788,344.189a2.212,2.212,0,0,0,.934-2.852l-14.13,7.573-5.233-.23-11.387,1.442,6.458.778a28.8,28.8,0,0,0,17.441-3.422Z" transform="translate(-182.262 -336.818)" fill="#eaa678"/>
            <path id="Path_1176746" data-name="Path 1176746" d="M14.507,351.8a24.437,24.437,0,0,1,9.965-4.791,18.781,18.781,0,0,1,10.14,1.051h12a2.449,2.449,0,0,1,.307,4.878L31.71,354.862l6.458.778a28.8,28.8,0,0,0,17.441-3.422l8.08-4.492a2.536,2.536,0,0,1,2.39,4.474l-11.816,6.439c-5.922,3.227-12.665,7.458-19.38,6.859l-20.376-1.819H8V351.8Z" transform="translate(-8 -341.558)" fill="#ffc89f"/>
            <g id="Group_1223902" data-name="Group 1223902" transform="translate(0 6.691)">
              <path id="Path_1176747" data-name="Path 1176747" d="M66.89,359.667c-.051-.067-.105-.131-.161-.192A2.521,2.521,0,0,1,65.507,361l-11.816,6.439c-5.922,3.227-12.665,7.458-19.38,6.859l-20.376-1.819H8V374.9h6.507l20.376,1.819c6.715.6,13.458-3.631,19.38-6.859l11.816-6.439A2.54,2.54,0,0,0,66.89,359.667Z" transform="translate(-8 -359.475)" fill="#f7bc94"/>
            </g>
          </g>
          <path id="Path_1176748" data-name="Path 1176748" d="M137.922,157.911a5.886,5.886,0,0,0-.1-1.078,5.862,5.862,0,0,1-11.524,0,5.862,5.862,0,1,0,11.625,1.078Z" transform="translate(-112.041 -139.008)" fill="#f9cf58"/>
          <circle id="Ellipse_12788" data-name="Ellipse 12788" cx="3.204" cy="3.204" r="3.204" transform="translate(47.623 13.543)" fill="#ff4755"/>
          <path id="Path_1176749" data-name="Path 1176749" d="M408.854,140.959a3.2,3.2,0,0,1-3.017-2.126,3.2,3.2,0,1,0,6.034,0A3.2,3.2,0,0,1,408.854,140.959Z" transform="translate(-358.026 -123.164)" fill="#fc2b3a"/>
        </g>
        <g id="Group_1223905" data-name="Group 1223905" transform="translate(0 0)">
          <path id="Path_1176750" data-name="Path 1176750" d="M46.824,368.647c-.609.332-1.227.674-1.852,1.021-5.292,2.934-11.29,6.26-17.055,5.745L7.5,373.59q-.04,0-.08,0H1.8v-10.1H7.42A.9.9,0,0,0,8,363.27a24.376,24.376,0,0,1,4.073-2.637.9.9,0,1,0-.83-1.6A27.071,27.071,0,0,0,7.1,361.683H.9a.9.9,0,0,0-.9.9v11.9a.9.9,0,0,0,.9.9H7.38l20.376,1.819q.69.062,1.379.061c5.843,0,11.593-3.188,16.71-6.024.622-.345,1.235-.685,1.841-1.015a.9.9,0,0,0-.861-1.581Z" transform="translate(0 -315.948)"/>
          <path id="Path_1176751" data-name="Path 1176751" d="M164.027,303.431a3.421,3.421,0,0,0-4.063-1.1,3.109,3.109,0,0,0-4.552-2.558l-2.14,1.128a3.083,3.083,0,0,0-4.548-2.55l-1.6.867a3.182,3.182,0,0,0-4.654-2.674L130.92,302.6a19.77,19.77,0,0,0-10.277-.947,19.165,19.165,0,0,0-2.556.668.9.9,0,1,0,.571,1.707,17.368,17.368,0,0,1,2.314-.606,18.082,18.082,0,0,1,9.626.989.9.9,0,0,0,.369.079h12.022a1.554,1.554,0,0,1,.194,3.095l-15.237,1.93a.9.9,0,0,0,.005,1.786l6.471.78a29.578,29.578,0,0,0,18.02-3.536l8.086-4.5a1.629,1.629,0,0,1,2.061.467,1.655,1.655,0,0,1-.524,2.433l-8.676,4.728a.9.9,0,0,0,.861,1.581l8.676-4.728a3.445,3.445,0,0,0,1.1-5.1Zm-20.722-5.3a1.372,1.372,0,0,1,1.752.406,1.394,1.394,0,0,1-.454,2.04l-3.89,2.109h-6.092Zm.819,4.753,5.457-2.959a1.282,1.282,0,0,1,1.71.466,1.3,1.3,0,0,1-.5,1.81l-4.733,2.495a3.368,3.368,0,0,0-1.933-1.812Zm7.444,4.083a27.772,27.772,0,0,1-16.125,3.408l7.966-1.009a3.358,3.358,0,0,0,2.879-2.758l9.962-5.25a1.314,1.314,0,0,1,1.245,2.314Z" transform="translate(-103.404 -260.702)"/>
          <path id="Path_1176752" data-name="Path 1176752" d="M125.2,104.606a6.714,6.714,0,0,0,2.906-.654.9.9,0,1,0-.773-1.626,4.928,4.928,0,0,1-2.133.479,4.971,4.971,0,1,1,4.358-2.575.9.9,0,0,0,1.576.87,6.775,6.775,0,1,0-5.934,3.505Z" transform="translate(-104.246 -80.153)"/>
          <path id="Path_1176753" data-name="Path 1176753" d="M46.461,20.355l1.865.28a12.377,12.377,0,0,0,1.48,3.571l-1.121,1.518a1.777,1.777,0,0,0,.174,2.326l1.284,1.284a1.777,1.777,0,0,0,2.326.174l1.518-1.121a12.376,12.376,0,0,0,3.571,1.48l.28,1.865a1.777,1.777,0,0,0,1.768,1.522h1.816a1.777,1.777,0,0,0,1.768-1.522l.28-1.865a12.375,12.375,0,0,0,3.571-1.48l1.518,1.121a1.777,1.777,0,0,0,2.326-.174l1.284-1.284a1.777,1.777,0,0,0,.174-2.326l-1.121-1.518a12.372,12.372,0,0,0,1.48-3.571l1.865-.28a1.777,1.777,0,0,0,1.522-1.768V18.58h5.341V30.051a2.1,2.1,0,0,0,2.1,2.1h3.845a4.11,4.11,0,1,0,0-1.8H83.529a.3.3,0,0,1-.3-.3V18.58h4.144a4.11,4.11,0,1,0,0-1.8H83.231V5.309a.3.3,0,0,1,.3-.3h3.845a4.11,4.11,0,1,0,0-1.8H83.529a2.1,2.1,0,0,0-2.1,2.1V16.779H76.09v-.008A1.777,1.777,0,0,0,74.568,15l-1.865-.28a12.375,12.375,0,0,0-1.48-3.571l1.121-1.518a1.777,1.777,0,0,0-.174-2.326L70.886,6.024A1.777,1.777,0,0,0,68.56,5.85L67.042,6.971a12.375,12.375,0,0,0-3.571-1.48l-.28-1.865A1.777,1.777,0,0,0,61.422,2.1H59.606a1.777,1.777,0,0,0-1.768,1.522l-.28,1.865a12.378,12.378,0,0,0-3.571,1.48L52.469,5.85a1.777,1.777,0,0,0-2.326.174L48.859,7.308a1.777,1.777,0,0,0-.174,2.326l1.121,1.518a12.374,12.374,0,0,0-1.48,3.571L46.461,15a1.777,1.777,0,0,0-1.522,1.768v1.816a1.777,1.777,0,0,0,1.522,1.768Zm44.923,8.584a2.31,2.31,0,1,1-2.31,2.31,2.312,2.312,0,0,1,2.31-2.31Zm0-13.57a2.31,2.31,0,1,1-2.31,2.31A2.312,2.312,0,0,1,91.384,15.37Zm0-13.57a2.31,2.31,0,1,1-2.31,2.31,2.312,2.312,0,0,1,2.31-2.31ZM46.739,16.782l2.47-.371a.9.9,0,0,0,.751-.724,10.619,10.619,0,0,1,1.683-4.061.9.9,0,0,0-.019-1.043l-1.485-2.01L51.408,7.3l2.01,1.485a.9.9,0,0,0,1.043.019,10.621,10.621,0,0,1,4.061-1.683.9.9,0,0,0,.724-.751l.371-2.47h1.795l.371,2.47a.9.9,0,0,0,.724.751,10.619,10.619,0,0,1,4.061,1.683.9.9,0,0,0,1.043-.019L69.62,7.3l1.269,1.269L69.4,10.583a.9.9,0,0,0-.019,1.043,10.62,10.62,0,0,1,1.683,4.061.9.9,0,0,0,.751.724l2.47.371v1.795l-2.47.371a.9.9,0,0,0-.751.724,10.62,10.62,0,0,1-1.683,4.061.9.9,0,0,0,.019,1.043l1.485,2.01L69.62,28.055,67.61,26.57a.9.9,0,0,0-1.043-.019,10.619,10.619,0,0,1-4.061,1.683.9.9,0,0,0-.724.751l-.371,2.47H59.617l-.371-2.47a.9.9,0,0,0-.724-.751,10.62,10.62,0,0,1-4.061-1.683.9.9,0,0,0-1.043.019l-2.01,1.485-1.269-1.269,1.485-2.01a.9.9,0,0,0,.019-1.043,10.618,10.618,0,0,1-1.683-4.061.9.9,0,0,0-.751-.724l-2.47-.371Z" transform="translate(-39.557 0)"/>
        </g>
      </g>
    </g>
  </g>
</svg>
