<svg xmlns="http://www.w3.org/2000/svg" xmlns:xlink="http://www.w3.org/1999/xlink" width="103" height="103" viewBox="0 0 103 103">
  <defs>
    <filter id="Path_978624" x="0" y="0" width="103" height="103" filterUnits="userSpaceOnUse">
      <feOffset dy="3" input="SourceAlpha"/>
      <feGaussianBlur stdDeviation="3" result="blur"/>
      <feFlood flood-opacity="0.161"/>
      <feComposite operator="in" in2="blur"/>
      <feComposite in="SourceGraphic"/>
    </filter>
  </defs>
  <g id="Group_1225437" data-name="Group 1225437" transform="translate(-171 -1558)">
    <g id="Group_1223812" data-name="Group 1223812">
      <g id="Group_1221640" data-name="Group 1221640" transform="translate(0 -1587)">
        <g id="Group_1219602" data-name="Group 1219602" transform="translate(0 1482)">
          <g id="Group_1202656" data-name="Group 1202656" transform="translate(0 -1210)">
            <g id="Group_1176881" data-name="Group 1176881" transform="translate(0 7)">
              <g id="Group_1175148" data-name="Group 1175148" transform="translate(0 1580)">
                <g id="Group_1173798" data-name="Group 1173798" transform="translate(-3 -3520)">
                  <g id="Group_1171925" data-name="Group 1171925" transform="translate(-22 -2246)">
                    <g id="Group_1164524" data-name="Group 1164524" transform="translate(205 7058)">
                      <g id="Group_1144123" data-name="Group 1144123">
                        <g transform="matrix(1, 0, 0, 1, -9, -6)" filter="url(#Path_978624)">
                          <g id="Path_978624-2" data-name="Path 978624" transform="translate(9 6)" fill="#f4ebee">
                            <path d="M 42.5 83.5 C 36.96437835693359 83.5 31.59512901306152 82.41617584228516 26.54141235351562 80.27863311767578 C 21.65934181213379 78.21369171142578 17.27447128295898 75.25723266601562 13.50862312316895 71.49137878417969 C 9.742764472961426 67.72553253173828 6.786305904388428 63.34066009521484 4.721364498138428 58.45858764648438 C 2.583823442459106 53.40486907958984 1.5 48.03562164306641 1.5 42.5 C 1.5 36.96437835693359 2.583823442459106 31.59512901306152 4.721364498138428 26.54141235351562 C 6.786305904388428 21.65934181213379 9.742764472961426 17.27447128295898 13.50862312316895 13.50862312316895 C 17.27447128295898 9.742764472961426 21.65934181213379 6.786305904388428 26.54141235351562 4.721364498138428 C 31.59512901306152 2.583823442459106 36.96437835693359 1.5 42.5 1.5 C 48.03562164306641 1.5 53.40486907958984 2.583823442459106 58.45858764648438 4.721364498138428 C 63.34066009521484 6.786305904388428 67.72553253173828 9.742764472961426 71.49137878417969 13.50862312316895 C 75.25723266601562 17.27447128295898 78.21369171142578 21.65934181213379 80.27863311767578 26.54141235351562 C 82.41617584228516 31.59512901306152 83.5 36.96437835693359 83.5 42.5 C 83.5 48.03562164306641 82.41617584228516 53.40486907958984 80.27863311767578 58.45858764648438 C 78.21369171142578 63.34066009521484 75.25723266601562 67.72553253173828 71.49137878417969 71.49137878417969 C 67.72553253173828 75.25723266601562 63.34066009521484 78.21369171142578 58.45858764648438 80.27863311767578 C 53.40486907958984 82.41617584228516 48.03562164306641 83.5 42.5 83.5 Z" stroke="none"/>
                            <path d="M 42.5 3 C 37.16621398925781 3 31.99356079101562 4.043960571289062 27.125732421875 6.102882385253906 C 22.42246627807617 8.092185974121094 18.19785308837891 10.94070434570312 14.56928253173828 14.56928253173828 C 10.94070434570312 18.19785308837891 8.092185974121094 22.42246627807617 6.102882385253906 27.125732421875 C 4.043960571289062 31.99356079101562 3 37.16621398925781 3 42.5 C 3 47.83378601074219 4.043960571289062 53.00643920898438 6.102882385253906 57.87425231933594 C 8.092185974121094 62.57753372192383 10.94070434570312 66.80213165283203 14.56928253173828 70.43071746826172 C 18.19786834716797 74.05929565429688 22.42246627807617 76.90781402587891 27.125732421875 78.89711761474609 C 31.99356079101562 80.95603942871094 37.16621398925781 82 42.5 82 C 47.83378601074219 82 53.00642395019531 80.95603942871094 57.87425231933594 78.89711761474609 C 62.57753372192383 76.90781402587891 66.80213165283203 74.05929565429688 70.43071746826172 70.43071746826172 C 74.05929565429688 66.80213165283203 76.90781402587891 62.57753372192383 78.89711761474609 57.87425231933594 C 80.95603942871094 53.00642395019531 82 47.83378601074219 82 42.5 C 82 37.16621398925781 80.95603942871094 31.99356079101562 78.89711761474609 27.125732421875 C 76.90781402587891 22.42246627807617 74.05929565429688 18.19786834716797 70.43071746826172 14.56928253173828 C 66.80213165283203 10.94070434570312 62.57753372192383 8.092185974121094 57.87425231933594 6.102882385253906 C 53.00643920898438 4.043960571289062 47.83378601074219 3 42.5 3 M 42.5 0 C 65.97209167480469 0 85 19.02789306640625 85 42.5 C 85 65.97209167480469 65.97209167480469 85 42.5 85 C 19.02789306640625 85 0 65.97209167480469 0 42.5 C 0 19.02789306640625 19.02789306640625 0 42.5 0 Z" stroke="none" fill="#e0c6d0"/>
                          </g>
                        </g>
                      </g>
                    </g>
                  </g>
                </g>
              </g>
            </g>
          </g>
        </g>
      </g>
      <g id="objetivo" transform="translate(179.687 1579.726)">
        <g id="Group_1223806" data-name="Group 1223806" transform="translate(14.619 0.784)">
          <g id="Group_1223795" data-name="Group 1223795" transform="translate(20.679)">
            <path id="Path_1176408" data-name="Path 1176408" d="M247.361,54.926h-28.2l-.1.1V77.338a12.768,12.768,0,0,1,6.67,17.549h21.23a.506.506,0,0,0,.506-.506V55.03Z" transform="translate(-219.06 -49.966)" fill="#c8effe"/>
            <path id="Path_1176409" data-name="Path 1176409" d="M222.191,79.147V55.03l.1-.1h-3.131l-.1.1V77.338A12.75,12.75,0,0,1,222.191,79.147Z" transform="translate(-219.06 -49.966)" fill="#99e6fc"/>
            <g id="Group_1223781" data-name="Group 1223781">
              <path id="Path_1176410" data-name="Path 1176410" d="M247.466,12.565H219.06V8.546A1.046,1.046,0,0,1,220.106,7.5H246.42a1.046,1.046,0,0,1,1.046,1.046Z" transform="translate(-219.06 -7.5)" fill="#7ca1b1"/>
            </g>
            <g id="Group_1223782" data-name="Group 1223782">
              <path id="Path_1176411" data-name="Path 1176411" d="M220.106,7.5a1.046,1.046,0,0,0-1.046,1.046v4.019h6.276V7.5Z" transform="translate(-219.06 -7.5)" fill="#678d98"/>
            </g>
            <g id="Group_1223783" data-name="Group 1223783">
              <path id="Path_1176412" data-name="Path 1176412" d="M223.237,7.5h-3.131a1.046,1.046,0,0,0-1.046,1.046v4.019h3.131V8.546A1.046,1.046,0,0,1,223.237,7.5Z" transform="translate(-219.06 -7.5)" fill="#537983"/>
            </g>
            <g id="Group_1223786" data-name="Group 1223786" transform="translate(4.734 8.505)">
              <g id="Group_1223784" data-name="Group 1223784">
                <path id="Path_1176413" data-name="Path 1176413" d="M267.978,92.788h-3.336a.314.314,0,0,1-.314-.314V89.138a.314.314,0,0,1,.314-.314h3.336a.314.314,0,0,1,.314.314v3.336A.314.314,0,0,1,267.978,92.788Z" transform="translate(-264.328 -88.824)" fill="#01d0fb"/>
              </g>
              <g id="Group_1223785" data-name="Group 1223785">
                <path id="Path_1176414" data-name="Path 1176414" d="M266.082,92.474V89.138a.314.314,0,0,1,.314-.314h-1.754a.314.314,0,0,0-.314.314v3.336a.314.314,0,0,0,.314.314H266.4A.314.314,0,0,1,266.082,92.474Z" transform="translate(-264.328 -88.824)" fill="#01c0fa"/>
              </g>
            </g>
            <g id="Group_1223789" data-name="Group 1223789" transform="translate(4.734 15.524)">
              <g id="Group_1223787" data-name="Group 1223787">
                <path id="Path_1176415" data-name="Path 1176415" d="M267.978,159.9h-3.336a.314.314,0,0,1-.314-.314V156.25a.314.314,0,0,1,.314-.314h3.336a.314.314,0,0,1,.314.314v3.336A.314.314,0,0,1,267.978,159.9Z" transform="translate(-264.328 -155.936)" fill="#01d0fb"/>
              </g>
              <g id="Group_1223788" data-name="Group 1223788">
                <path id="Path_1176416" data-name="Path 1176416" d="M266.082,159.586V156.25a.314.314,0,0,1,.314-.314h-1.754a.314.314,0,0,0-.314.314v3.336a.314.314,0,0,0,.314.314H266.4A.314.314,0,0,1,266.082,159.586Z" transform="translate(-264.328 -155.936)" fill="#01c0fa"/>
              </g>
            </g>
            <g id="Group_1223792" data-name="Group 1223792" transform="translate(4.734 22.543)">
              <g id="Group_1223790" data-name="Group 1223790">
                <path id="Path_1176417" data-name="Path 1176417" d="M267.978,227.012h-3.336a.314.314,0,0,1-.314-.314v-3.336a.314.314,0,0,1,.314-.314h3.336a.314.314,0,0,1,.314.314V226.7A.314.314,0,0,1,267.978,227.012Z" transform="translate(-264.328 -223.048)" fill="#01d0fb"/>
              </g>
              <g id="Group_1223791" data-name="Group 1223791">
                <path id="Path_1176418" data-name="Path 1176418" d="M266.082,226.7v-3.336a.314.314,0,0,1,.314-.314h-1.754a.314.314,0,0,0-.314.314V226.7a.314.314,0,0,0,.314.314H266.4A.314.314,0,0,1,266.082,226.7Z" transform="translate(-264.328 -223.048)" fill="#01c0fa"/>
              </g>
            </g>
            <g id="Group_1223794" data-name="Group 1223794" transform="translate(4.734 29.562)">
              <path id="Path_1176419" data-name="Path 1176419" d="M267.978,290.159h-3.336a.314.314,0,0,0-.314.314v.8a12.782,12.782,0,0,1,1.94,2.845h1.71a.314.314,0,0,0,.314-.314v-3.336A.314.314,0,0,0,267.978,290.159Z" transform="translate(-264.328 -290.159)" fill="#01d0fb"/>
              <g id="Group_1223793" data-name="Group 1223793">
                <path id="Path_1176420" data-name="Path 1176420" d="M266.082,293.764v-3.292a.314.314,0,0,1,.314-.314h-1.754a.314.314,0,0,0-.314.314v.8A12.8,12.8,0,0,1,266.082,293.764Z" transform="translate(-264.328 -290.159)" fill="#01c0fa"/>
              </g>
            </g>
          </g>
          <g id="Group_1223802" data-name="Group 1223802" transform="translate(3.172 26.459)">
            <path id="Path_1176421" data-name="Path 1176421" d="M64.422,260.489a12.807,12.807,0,0,0-2.688.285,6.753,6.753,0,0,1-9.272,8.022,12.762,12.762,0,1,0,11.961-8.307Z" transform="translate(-51.662 -260.489)" fill="#fd5426"/>
            <g id="Group_1223796" data-name="Group 1223796" transform="translate(0 8.307)">
              <path id="Path_1176422" data-name="Path 1176422" d="M54.31,344.368a12.752,12.752,0,0,1,.595-3.861,6.715,6.715,0,0,1-2.445-.592,12.767,12.767,0,0,0,11.961,17.213,12.885,12.885,0,0,0,1.324-.068A12.761,12.761,0,0,1,54.31,344.368Z" transform="translate(-51.661 -339.915)" fill="#ef4424"/>
            </g>
            <path id="Path_1176423" data-name="Path 1176423" d="M99.891,300.1a8.575,8.575,0,0,0-2.9.5,6.765,6.765,0,0,1-4.708,4.075,8.615,8.615,0,1,0,7.609-4.579Z" transform="translate(-87.131 -295.958)" fill="#fff"/>
            <path id="Path_1176424" data-name="Path 1176424" d="M93.965,308.718a8.63,8.63,0,0,1,7.272-8.511,8.606,8.606,0,0,0-4.247.4,6.765,6.765,0,0,1-4.708,4.075,8.615,8.615,0,0,0,8.955,12.549,8.63,8.63,0,0,1-7.272-8.511Z" transform="translate(-87.131 -295.958)" fill="#eef5f6"/>
            <g id="Group_1223797" data-name="Group 1223797" transform="translate(28.741 9.775)">
              <path id="Path_1176425" data-name="Path 1176425" d="M334.858,353.952h-6.181a.314.314,0,0,0-.259.137l-1.944,2.848,1.944,2.848a.314.314,0,0,0,.259.137h6.181a.314.314,0,0,0,.255-.5l-1.776-2.489,1.776-2.489a.314.314,0,0,0-.255-.5Z" transform="translate(-326.474 -353.952)" fill="#fff"/>
            </g>
            <g id="Group_1223798" data-name="Group 1223798" transform="translate(28.741 9.775)">
              <path id="Path_1176426" data-name="Path 1176426" d="M334.858,353.952h-6.181a.314.314,0,0,0-.259.137l-1.944,2.848,1.944,2.848a.314.314,0,0,0,.259.137h6.181a.314.314,0,0,0,.255-.5l-1.776-2.489,1.776-2.489a.314.314,0,0,0-.255-.5Z" transform="translate(-326.474 -353.952)" fill="#fff"/>
            </g>
            <g id="Group_1223799" data-name="Group 1223799" transform="translate(28.741 9.775)">
              <path id="Path_1176427" data-name="Path 1176427" d="M331.07,359.784l-1.943-2.848,1.943-2.848a.314.314,0,0,1,.259-.137h-2.652a.314.314,0,0,0-.259.137l-1.944,2.848,1.944,2.848a.314.314,0,0,0,.259.137h2.652A.314.314,0,0,1,331.07,359.784Z" transform="translate(-326.475 -353.951)" fill="#eef5f6"/>
            </g>
            <g id="Group_1223800" data-name="Group 1223800" transform="translate(8.286 8.286)">
              <circle id="Ellipse_12779" data-name="Ellipse 12779" cx="4.474" cy="4.474" r="4.474" fill="#fd5426"/>
            </g>
            <g id="Group_1223801" data-name="Group 1223801" transform="translate(8.286 8.286)">
              <path id="Path_1176428" data-name="Path 1176428" d="M133.513,344.188a4.482,4.482,0,0,1,3.161-4.277,4.474,4.474,0,1,0,0,8.554A4.482,4.482,0,0,1,133.513,344.188Z" transform="translate(-130.886 -339.714)" fill="#ef4424"/>
            </g>
          </g>
          <g id="Group_1223805" data-name="Group 1223805" transform="translate(0 21.858)">
            <g id="Group_1223803" data-name="Group 1223803">
              <circle id="Ellipse_12780" data-name="Ellipse 12780" cx="6.754" cy="6.754" r="6.754" fill="#fed402"/>
            </g>
            <g id="Group_1223804" data-name="Group 1223804" transform="translate(0)">
              <path id="Path_1176429" data-name="Path 1176429" d="M24.856,223.256a6.756,6.756,0,0,1,4.993-6.52,6.754,6.754,0,1,0,0,13.041A6.756,6.756,0,0,1,24.856,223.256Z" transform="translate(-21.335 -216.502)" fill="#fac600"/>
            </g>
          </g>
        </g>
        <g id="Group_1223810" data-name="Group 1223810" transform="translate(20.441 5.125)">
          <g id="Group_1223808" data-name="Group 1223808" transform="translate(0 0)">
            <g id="Group_1223807" data-name="Group 1223807">
              <path id="Path_1176430" data-name="Path 1176430" d="M79.291,49.107l-2.183,2.183A.366.366,0,0,0,77,51.55V63.432a.367.367,0,0,0,.367.367H88.449a.367.367,0,0,0,.367-.367V49.367A.367.367,0,0,0,88.449,49h-8.9A.366.366,0,0,0,79.291,49.107Z" transform="translate(-77 -49)" fill="#fdf6ec"/>
            </g>
          </g>
          <g id="Group_1223809" data-name="Group 1223809">
            <path id="Path_1176431" data-name="Path 1176431" d="M80.556,63.432V51.55a.367.367,0,0,1,.107-.259l2.183-2.183A.367.367,0,0,1,83.106,49H79.55a.367.367,0,0,0-.259.107l-2.183,2.183A.367.367,0,0,0,77,51.55V63.432a.367.367,0,0,0,.367.367h3.556A.367.367,0,0,1,80.556,63.432Z" transform="translate(-77 -49)" fill="#fef1da"/>
          </g>
        </g>
        <g id="Group_1223811" data-name="Group 1223811" transform="translate(13.835)">
          <path id="Path_1176432" data-name="Path 1176432" d="M63.7,24.107a.784.784,0,0,0,.784-.784V1.83A1.832,1.832,0,0,0,62.658,0H36.344a1.832,1.832,0,0,0-1.83,1.83V27.051a13.55,13.55,0,0,0-6.13-.417,7.536,7.536,0,1,0-10.752,9.3A13.543,13.543,0,0,0,42.438,46.49H63.2A1.292,1.292,0,0,0,64.489,45.2V26.983a.784.784,0,0,0-1.569,0V44.921H43.171a13.449,13.449,0,0,0,.9-4.133h2.046l1.71,2.506a1.1,1.1,0,0,0,.907.479h6.181a1.1,1.1,0,0,0,.894-1.736l-.891-1.249h.038a.784.784,0,0,0,0-1.569h-.038l.891-1.249a1.1,1.1,0,0,0-.894-1.736H48.735a1.1,1.1,0,0,0-.907.479l-1.71,2.506H44.072a13.451,13.451,0,0,0-.9-4.125h.508a1.1,1.1,0,0,0,1.1-1.1V30.66a1.1,1.1,0,0,0-1.1-1.1H40.347a1.094,1.094,0,0,0-.788.335,13.585,13.585,0,0,0-3.475-2.256V6.633H62.92V23.322a.784.784,0,0,0,.784.784ZM48.984,42.2l-.966-1.416h4.974L54,42.2Zm0-4.4H54l-1.011,1.416H48.017ZM15.4,29.4a5.969,5.969,0,1,1,5.969,5.969A5.976,5.976,0,0,1,15.4,29.4ZM30.551,51.979a11.978,11.978,0,0,1-11.475-15.4,7.508,7.508,0,0,0,2.3.359c.1,0,.2,0,.294-.007A9.4,9.4,0,0,0,35.69,47.87a.784.784,0,1,0-.86-1.312,7.827,7.827,0,0,1-11.347-9.926,7.571,7.571,0,0,0,4.746-4.108,7.83,7.83,0,0,1,10.115,6.7H35.751a5.259,5.259,0,1,0,0,1.569h2.593a7.8,7.8,0,0,1-1.176,3.4.784.784,0,1,0,1.325.841,9.359,9.359,0,0,0,1.426-4.24H42.5A11.99,11.99,0,0,1,30.551,51.979Zm0-11.191h3.605a3.69,3.69,0,1,1,0-1.569H30.551a.784.784,0,0,0,0,1.569Zm10.266-9.657h2.395v2.395h-.769a13.607,13.607,0,0,0-1.626-2.347v-.047ZM42.5,39.219H39.919A9.4,9.4,0,0,0,28.784,30.77a7.455,7.455,0,0,0,.024-2.614A11.97,11.97,0,0,1,42.5,39.219ZM40.79,5.065H36.083V1.83a.262.262,0,0,1,.261-.261H40.79v3.5Zm1.569,0v-3.5h20.3a.262.262,0,0,1,.261.261V5.065Z" transform="translate(-13.835)"/>
          <path id="Path_1176433" data-name="Path 1176433" d="M334.049,87.114H321.828a.784.784,0,1,0,0,1.569H334.05a.784.784,0,1,0,0-1.569Z" transform="translate(-288.915 -78.003)"/>
          <path id="Path_1176434" data-name="Path 1176434" d="M321.828,115h7.238a.784.784,0,1,0,0-1.569h-7.238a.784.784,0,1,0,0,1.569Z" transform="translate(-288.915 -101.569)"/>
          <path id="Path_1176435" data-name="Path 1176435" d="M334.049,154.226H321.828a.784.784,0,1,0,0,1.569H334.05a.784.784,0,1,0,0-1.569Z" transform="translate(-288.915 -138.096)"/>
          <path id="Path_1176436" data-name="Path 1176436" d="M321.828,182.113h7.238a.784.784,0,1,0,0-1.569h-7.238a.784.784,0,1,0,0,1.569Z" transform="translate(-288.915 -161.662)"/>
          <path id="Path_1176437" data-name="Path 1176437" d="M334.049,221.337H321.828a.784.784,0,1,0,0,1.569H334.05a.784.784,0,1,0,0-1.569Z" transform="translate(-288.915 -198.188)"/>
          <path id="Path_1176438" data-name="Path 1176438" d="M321.828,249.225h7.238a.784.784,0,1,0,0-1.569h-7.238a.784.784,0,1,0,0,1.569Z" transform="translate(-288.915 -221.755)"/>
          <path id="Path_1176439" data-name="Path 1176439" d="M262.36,82.422a1.1,1.1,0,0,0-1.1-1.1h-3.336a1.1,1.1,0,0,0-1.1,1.1v3.336a1.1,1.1,0,0,0,1.1,1.1h3.336a1.1,1.1,0,0,0,1.1-1.1Zm-1.569,2.865H258.4V82.893h2.395Z" transform="translate(-231.415 -72.819)"/>
          <path id="Path_1176440" data-name="Path 1176440" d="M262.36,149.534a1.1,1.1,0,0,0-1.1-1.1h-3.336a1.1,1.1,0,0,0-1.1,1.1v3.336a1.1,1.1,0,0,0,1.1,1.1h3.336a1.1,1.1,0,0,0,1.1-1.1Zm-1.569,2.865H258.4V150h2.395Z" transform="translate(-231.415 -132.912)"/>
          <path id="Path_1176441" data-name="Path 1176441" d="M261.262,215.547h-3.336a1.1,1.1,0,0,0-1.1,1.1v3.336a1.1,1.1,0,0,0,1.1,1.1h3.336a1.1,1.1,0,0,0,1.1-1.1v-3.336A1.1,1.1,0,0,0,261.262,215.547Zm-.471,3.964H258.4v-2.395h2.395Z" transform="translate(-231.415 -193.004)"/>
          <path id="Path_1176442" data-name="Path 1176442" d="M334.834,289.233a.784.784,0,0,0-.784-.784H321.828a.784.784,0,1,0,0,1.569H334.05A.784.784,0,0,0,334.834,289.233Z" transform="translate(-288.915 -258.282)"/>
          <path id="Path_1176443" data-name="Path 1176443" d="M321.828,314.768a.784.784,0,1,0,0,1.569h7.238a.784.784,0,1,0,0-1.569Z" transform="translate(-288.915 -281.848)"/>
          <path id="Path_1176444" data-name="Path 1176444" d="M62.522,244.307v-.567a2.1,2.1,0,0,0-.059-4.192H61.012a.529.529,0,0,1,0-1.058h2.558a.784.784,0,1,0,0-1.569H62.522v-.564a.784.784,0,1,0-1.569,0v.566a2.1,2.1,0,0,0,.059,4.192h1.452a.529.529,0,1,1,0,1.058H59.906a.784.784,0,0,0,0,1.569h1.047v.563a.784.784,0,0,0,1.569,0Z" transform="translate(-54.199 -210.936)"/>
          <path id="Path_1176445" data-name="Path 1176445" d="M70.651,57.868H81.733a1.153,1.153,0,0,0,1.151-1.151V51.383a.784.784,0,1,0-1.569,0V56.3H71.069V45.008l1.939-1.939h8.308v4.654a.784.784,0,0,0,1.569,0V42.651A1.153,1.153,0,0,0,81.733,41.5h-8.9a1.144,1.144,0,0,0-.814.337L69.837,44.02a1.144,1.144,0,0,0-.337.814V56.716a1.153,1.153,0,0,0,1.151,1.151Z" transform="translate(-63.678 -37.16)"/>
          <path id="Path_1176446" data-name="Path 1176446" d="M108.067,74.185h-4.948a.784.784,0,0,0,0,1.569h4.948a.784.784,0,0,0,0-1.569Z" transform="translate(-93.079 -66.426)"/>
          <path id="Path_1176447" data-name="Path 1176447" d="M108.067,99.448h-4.948a.784.784,0,0,0,0,1.569h4.948a.784.784,0,0,0,0-1.569Z" transform="translate(-93.079 -89.047)"/>
          <path id="Path_1176448" data-name="Path 1176448" d="M108.851,125.722a.784.784,0,0,0-.784-.784h-4.948a.784.784,0,1,0,0,1.569h4.948A.784.784,0,0,0,108.851,125.722Z" transform="translate(-93.079 -111.871)"/>
          <path id="Path_1176449" data-name="Path 1176449" d="M103.119,150.315a.784.784,0,1,0,0,1.569h2.218a.784.784,0,1,0,0-1.569Z" transform="translate(-93.079 -134.594)"/>
        </g>
      </g>
    </g>
  </g>
</svg>
