<svg xmlns="http://www.w3.org/2000/svg" xmlns:xlink="http://www.w3.org/1999/xlink" width="108" height="108" viewBox="0 0 108 108">
  <defs>
    <filter id="Path_904820" x="0" y="0" width="108" height="108" filterUnits="userSpaceOnUse">
      <feOffset dy="3" input="SourceAlpha"/>
      <feGaussianBlur stdDeviation="3" result="blur"/>
      <feFlood flood-opacity="0.161"/>
      <feComposite operator="in" in2="blur"/>
      <feComposite in="SourceGraphic"/>
    </filter>
  </defs>
  <g id="Group_1225413" data-name="Group 1225413" transform="translate(-197 -2808.5)">
    <g id="Group_1223411" data-name="Group 1223411">
      <g id="Group_1221597" data-name="Group 1221597" transform="translate(206 2814.5)">
        <g id="Group_1219744" data-name="Group 1219744" transform="translate(0 0)">
          <g id="Group_1202418" data-name="Group 1202418">
            <g id="Group_1177315" data-name="Group 1177315">
              <g id="Group_1173585" data-name="Group 1173585">
                <g id="Group_1173428" data-name="Group 1173428">
                  <g id="Group_1171958" data-name="Group 1171958">
                    <g id="Group_1167341" data-name="Group 1167341">
                      <g id="Group_1166792" data-name="Group 1166792">
                        <g transform="matrix(1, 0, 0, 1, -9, -6)" filter="url(#Path_904820)">
                          <g id="Path_904820-2" data-name="Path 904820" transform="translate(9 6)" fill="#fef2ec">
                            <path d="M 44.99999618530273 88.49995422363281 C 39.12687301635742 88.49995422363281 33.43022155761719 87.35002899169922 28.06829643249512 85.08213043212891 C 22.88852119445801 82.89126586914062 18.23629570007324 79.75455474853516 14.24084663391113 75.75910186767578 C 10.24540901184082 71.76364898681641 7.108683586120605 67.11144256591797 4.917821407318115 61.93166351318359 C 2.649921178817749 56.56974029541016 1.499996185302734 50.87310028076172 1.499996185302734 44.99997711181641 C 1.499996185302734 39.12685394287109 2.649921178817749 33.43021392822266 4.917821407318115 28.06828880310059 C 7.108683586120605 22.88851547241211 10.24540901184082 18.23630142211914 14.24084663391113 14.24085235595703 C 18.23629570007324 10.24540233612061 22.88852119445801 7.108689785003662 28.06829643249512 4.917827129364014 C 33.43022155761719 2.649927139282227 39.12687301635742 1.500002145767212 44.99999618530273 1.500002145767212 C 50.87311935424805 1.500002145767212 56.56977081298828 2.649927139282227 61.93169784545898 4.917827129364014 C 67.11147308349609 7.108689785003662 71.76369476318359 10.24540233612061 75.75914764404297 14.24085235595703 C 79.75458526611328 18.23630142211914 82.89131164550781 22.88851547241211 85.08216857910156 28.06828880310059 C 87.35007476806641 33.43021392822266 88.5 39.12685394287109 88.5 44.99997711181641 C 88.5 50.87310028076172 87.35007476806641 56.56974029541016 85.08216857910156 61.93166351318359 C 82.89131164550781 67.11144256591797 79.75458526611328 71.76364898681641 75.75914764404297 75.75910186767578 C 71.76369476318359 79.75455474853516 67.11147308349609 82.89126586914062 61.93169784545898 85.08213043212891 C 56.56977081298828 87.35002899169922 50.87311935424805 88.49995422363281 44.99999618530273 88.49995422363281 Z" stroke="none"/>
                            <path d="M 44.99999618530273 2.999992370605469 C 39.32870864868164 2.999992370605469 33.82865142822266 4.11004638671875 28.65262603759766 6.299331665039062 C 23.65165710449219 8.414566040039062 19.15968322753906 11.44333648681641 15.301513671875 15.30150604248047 C 11.44333648681641 19.15967559814453 8.414566040039062 23.65163421630859 6.299339294433594 28.65260696411133 C 4.110054016113281 33.82864761352539 2.999992370605469 39.32868957519531 2.999992370605469 44.99997711181641 C 2.999992370605469 50.6712646484375 4.110054016113281 56.17130661010742 6.299339294433594 61.34733581542969 C 8.414566040039062 66.34830474853516 11.44333648681641 70.84026336669922 15.301513671875 74.69844818115234 C 19.15968322753906 78.55661773681641 23.65165710449219 81.58537292480469 28.65262603759766 83.70062255859375 C 33.82865142822266 85.889892578125 39.32870864868164 86.99994659423828 44.99999618530273 86.99994659423828 C 50.67128372192383 86.99994659423828 56.17134094238281 85.889892578125 61.34736633300781 83.70062255859375 C 66.34834289550781 81.58537292480469 70.84030914306641 78.55661773681641 74.69847869873047 74.69844818115234 C 78.55665588378906 70.84026336669922 81.58542633056641 66.34830474853516 83.70065307617188 61.34733581542969 C 85.88993835449219 56.17130661010742 87 50.6712646484375 87 44.99997711181641 C 87 39.32868957519531 85.88993835449219 33.82864761352539 83.70065307617188 28.65260696411133 C 81.58542633056641 23.65163421630859 78.55665588378906 19.15967559814453 74.69847869873047 15.30150604248047 C 70.84030914306641 11.44333648681641 66.34834289550781 8.414566040039062 61.34736633300781 6.299331665039062 C 56.17134094238281 4.11004638671875 50.67128372192383 2.999992370605469 44.99999618530273 2.999992370605469 M 44.99999618530273 -7.62939453125e-06 C 69.85281372070312 -7.62939453125e-06 90 20.14717864990234 90 44.99997711181641 C 90 69.85277557373047 69.85281372070312 89.99994659423828 44.99999618530273 89.99994659423828 C 20.14717864990234 89.99994659423828 -7.62939453125e-06 69.85277557373047 -7.62939453125e-06 44.99997711181641 C -7.62939453125e-06 20.14717864990234 20.14717864990234 -7.62939453125e-06 44.99999618530273 -7.62939453125e-06 Z" stroke="none" fill="#fe8953"/>
                          </g>
                        </g>
                      </g>
                    </g>
                  </g>
                </g>
              </g>
            </g>
          </g>
        </g>
      </g>
      <g id="_20-Dart" data-name="20-Dart" transform="translate(219.011 2827.506)">
        <circle id="Ellipse_12722" data-name="Ellipse 12722" cx="24" cy="24" r="24" transform="translate(8 1)" fill="#ff9696"/>
        <circle id="Ellipse_12723" data-name="Ellipse 12723" cx="19" cy="19" r="19" transform="translate(13 6)" fill="#f2f6fc"/>
        <circle id="Ellipse_12724" data-name="Ellipse 12724" cx="14" cy="14" r="14" transform="translate(18 11)" fill="#ff475a"/>
        <circle id="Ellipse_12725" data-name="Ellipse 12725" cx="9" cy="9" r="9" transform="translate(23 16)" fill="#f2f6fc"/>
        <circle id="Ellipse_12726" data-name="Ellipse 12726" cx="4" cy="4" r="4" transform="translate(28 21)" fill="#ff9696"/>
        <g id="Group_1223410" data-name="Group 1223410">
          <path id="Path_1175661" data-name="Path 1175661" d="M5,25c0,1.13,2.23,2.11,5.93,2.62C10.56,29.54,8.49,31,6,31a3.689,3.689,0,0,1-4-4s0-2,3-2Z" fill="#ffa426"/>
          <path id="Path_1175662" data-name="Path 1175662" d="M6,19c2.49,0,4.56,1.46,4.93,3.38C7.23,22.89,5,23.87,5,25c-3,0-3-2-3-2a3.689,3.689,0,0,1,4-4Z" fill="#ffa426"/>
          <path id="Path_1175663" data-name="Path 1175663" d="M18,22.02v5.97c-.33.01-.66.01-1,.01-1.05,0-2.06-.03-3-.09V22.09c.94-.06,1.95-.09,3-.09C17.34,22,17.67,22,18,22.02Z" fill="#ffa426"/>
        </g>
        <path id="Path_1175664" data-name="Path 1175664" d="M14,22.09v5.82c-1.11-.06-2.14-.16-3.07-.29C7.23,27.11,5,26.13,5,25s2.23-2.11,5.93-2.62C11.86,22.25,12.89,22.15,14,22.09Z" fill="#ffe45c"/>
        <path id="Path_1175665" data-name="Path 1175665" d="M18,22.02c6.71.11,12,1.4,12,2.98s-5.29,2.87-12,2.99Z" fill="#ffe45c"/>
        <path id="Path_1175666" data-name="Path 1175666" d="M40.8,55l1.6,4H21.6l1.6-4Z" fill="#a66235"/>
        <path id="Path_1175667" data-name="Path 1175667" d="M23.2,55l-1.6,4L20,63H14l6.89-16.72a23.6,23.6,0,0,0,5.02,1.93Z" fill="#d18a56"/>
        <path id="Path_1175668" data-name="Path 1175668" d="M42.4,59l-1.6-4-2.71-6.79a23.1,23.1,0,0,0,5.02-1.94L50,63H44Z" fill="#d18a56"/>
        <path id="Path_1175669" data-name="Path 1175669" d="M13.02,31.319a20,20,0,1,0,0-12.635l1.9.63a18,18,0,1,1,0,11.374Z"/>
        <path id="Path_1175670" data-name="Path 1175670" d="M19.927,29.831l-1.857.744a15,15,0,1,0,.374-12l1.806.858a13,13,0,1,1-.323,10.4Z"/>
        <path id="Path_1175671" data-name="Path 1175671" d="M25.345,29.442l-1.662,1.112a10,10,0,1,0,0-11.111l1.662,1.114a8,8,0,1,1,0,8.885Z"/>
        <path id="Path_1175672" data-name="Path 1175672" d="M32,28a3,3,0,0,1-1.5-.4l-1,1.73a5,5,0,1,0,0-8.66l1,1.732A3,3,0,1,1,32,28Z"/>
        <path id="Path_1175673" data-name="Path 1175673" d="M44.374,46.709A25,25,0,1,0,8.423,16.667l1.886.666a23,23,0,1,1,0,15.336l-1.886.666A24.983,24.983,0,0,0,19.63,46.7L13.075,62.619A1,1,0,0,0,14,64h6a1,1,0,0,0,.929-.629L22.277,60H41.723l1.348,3.371A1,1,0,0,0,44,64h6a1,1,0,0,0,.925-1.381Zm-6.9,2.679L39.323,54H24.677l1.848-4.619a24.672,24.672,0,0,0,10.953.007ZM19.323,62h-3.83l5.92-14.376a24.986,24.986,0,0,0,3.165,1.238Zm3.754-4,.8-2H40.123l.8,2Zm21.6,4-5.25-13.126a24.938,24.938,0,0,0,3.166-1.236L48.507,62Z"/>
        <path id="Path_1175674" data-name="Path 1175674" d="M11.633,28.7A50.639,50.639,0,0,0,17,29c1.3,0,11.734-.092,13.686-3H32V24H30.686C28.734,21.092,18.3,21,17,21a50.64,50.64,0,0,0-5.367.3A6.049,6.049,0,0,0,6,18a4.685,4.685,0,0,0-5,5,2.829,2.829,0,0,0,.948,2A2.829,2.829,0,0,0,1,27a4.685,4.685,0,0,0,5,5,6.049,6.049,0,0,0,5.633-3.3ZM6,25.038c.211-.545,2.522-1.5,7.005-1.877V26.84c-4.488-.374-6.8-1.318-7.005-1.8Zm13,1.923V23.039c5.75.207,9.3,1.271,9.945,1.961-.645.69-4.195,1.754-9.945,1.961ZM17,27c-.7,0-1.364-.016-2-.041V23.041c.636-.025,1.3-.041,2-.041ZM6,20a4.3,4.3,0,0,1,3.519,1.6c-2.309.421-4.421,1.136-5.2,2.345C3.128,23.767,3.009,23.122,3,23a2.719,2.719,0,0,1,3-3ZM6,30a2.711,2.711,0,0,1-3-2.972c.009-.146.128-.794,1.32-.977C5.1,27.26,7.21,27.975,9.52,28.4A4.3,4.3,0,0,1,6,30Z"/>
      </g>
    </g>
  </g>
</svg>
