<svg xmlns="http://www.w3.org/2000/svg" xmlns:xlink="http://www.w3.org/1999/xlink" width="108" height="108" viewBox="0 0 108 108">
  <defs>
    <filter id="Path_904820" x="0" y="0" width="108" height="108" filterUnits="userSpaceOnUse">
      <feOffset dy="3" input="SourceAlpha"/>
      <feGaussianBlur stdDeviation="3" result="blur"/>
      <feFlood flood-opacity="0.161"/>
      <feComposite operator="in" in2="blur"/>
      <feComposite in="SourceGraphic"/>
    </filter>
  </defs>
  <g id="Group_1225455" data-name="Group 1225455" transform="translate(-617 -2911.443)">
    <g id="Group_1223901" data-name="Group 1223901">
      <g id="Group_1223048" data-name="Group 1223048" transform="translate(626 2917.443)">
        <g id="Group_1219744" data-name="Group 1219744">
          <g id="Group_1202418" data-name="Group 1202418">
            <g id="Group_1177315" data-name="Group 1177315">
              <g id="Group_1173585" data-name="Group 1173585">
                <g id="Group_1173428" data-name="Group 1173428" transform="translate(0 0)">
                  <g id="Group_1171958" data-name="Group 1171958">
                    <g id="Group_1167341" data-name="Group 1167341">
                      <g id="Group_1166792" data-name="Group 1166792">
                        <g transform="matrix(1, 0, 0, 1, -9, -6)" filter="url(#Path_904820)">
                          <g id="Path_904820-2" data-name="Path 904820" transform="translate(9 6)" fill="#f4ebee">
                            <path d="M 44.99999618530273 88.49999237060547 C 39.12687301635742 88.49999237060547 33.43022155761719 87.35006713867188 28.06829643249512 85.08216857910156 C 22.88852119445801 82.89130401611328 18.23629570007324 79.75457763671875 14.24084663391113 75.75914001464844 C 10.24540901184082 71.76369476318359 7.108683586120605 67.11146545410156 4.917821407318115 61.93169403076172 C 2.649921178817749 56.56976699829102 1.499996185302734 50.87311553955078 1.499996185302734 44.99999237060547 C 1.499996185302734 39.12686920166016 2.649921178817749 33.43021774291992 4.917821407318115 28.06829261779785 C 7.108683586120605 22.88851737976074 10.24540901184082 18.23630523681641 14.24084663391113 14.24085521697998 C 18.23629570007324 10.24540519714355 22.88852119445801 7.108692169189453 28.06829643249512 4.917829990386963 C 33.43022155761719 2.649929761886597 39.12687301635742 1.500004887580872 44.99999618530273 1.500004887580872 C 50.87311935424805 1.500004887580872 56.56977081298828 2.649929761886597 61.93169784545898 4.917829990386963 C 67.11147308349609 7.108692169189453 71.76369476318359 10.24540519714355 75.75914764404297 14.24085521697998 C 79.75458526611328 18.23630523681641 82.89131164550781 22.88851737976074 85.08216857910156 28.06829261779785 C 87.35007476806641 33.43021774291992 88.5 39.12686920166016 88.5 44.99999237060547 C 88.5 50.87311553955078 87.35007476806641 56.56976699829102 85.08216857910156 61.93169403076172 C 82.89131164550781 67.11146545410156 79.75458526611328 71.76369476318359 75.75914764404297 75.75914001464844 C 71.76369476318359 79.75457763671875 67.11147308349609 82.89130401611328 61.93169784545898 85.08216857910156 C 56.56977081298828 87.35006713867188 50.87311935424805 88.49999237060547 44.99999618530273 88.49999237060547 Z" stroke="none"/>
                            <path d="M 44.99999618530273 2.999992370605469 C 39.32870864868164 2.999992370605469 33.82865142822266 4.11004638671875 28.65262603759766 6.299331665039062 C 23.65165710449219 8.414566040039062 19.15968322753906 11.44333648681641 15.301513671875 15.30150604248047 C 11.44333648681641 19.15967559814453 8.414566040039062 23.65164947509766 6.299339294433594 28.65262222290039 C 4.110054016113281 33.82864761352539 2.999992370605469 39.32870483398438 2.999992370605469 44.99999237060547 C 2.999992370605469 50.67127990722656 4.110054016113281 56.17132186889648 6.299339294433594 61.34736633300781 C 8.414566040039062 66.34833526611328 11.44333648681641 70.84029388427734 15.301513671875 74.69846343994141 C 19.15968322753906 78.55663299560547 23.65165710449219 81.58540344238281 28.65262603759766 83.70063781738281 C 33.82865142822266 85.88992309570312 39.32870864868164 86.99997711181641 44.99999618530273 86.99997711181641 C 50.67128372192383 86.99997711181641 56.17134094238281 85.88992309570312 61.34736633300781 83.70063781738281 C 66.34834289550781 81.58540344238281 70.84030914306641 78.55663299560547 74.69847869873047 74.69846343994141 C 78.55665588378906 70.84029388427734 81.58542633056641 66.34833526611328 83.70065307617188 61.34736633300781 C 85.88993835449219 56.17132186889648 87 50.67127990722656 87 44.99999237060547 C 87 39.32870483398438 85.88993835449219 33.82864761352539 83.70065307617188 28.65262222290039 C 81.58542633056641 23.65164947509766 78.55665588378906 19.15967559814453 74.69847869873047 15.30150604248047 C 70.84030914306641 11.44333648681641 66.34834289550781 8.414566040039062 61.34736633300781 6.299331665039062 C 56.17134094238281 4.11004638671875 50.67128372192383 2.999992370605469 44.99999618530273 2.999992370605469 M 44.99999618530273 -7.62939453125e-06 C 69.85281372070312 -7.62939453125e-06 90 20.14717864990234 90 44.99999237060547 C 90 69.85279083251953 69.85281372070312 89.99997711181641 44.99999618530273 89.99997711181641 C 20.14717864990234 89.99997711181641 -7.62939453125e-06 69.85279083251953 -7.62939453125e-06 44.99999237060547 C -7.62939453125e-06 20.14717864990234 20.14717864990234 -7.62939453125e-06 44.99999618530273 -7.62939453125e-06 Z" stroke="none" fill="#9b4467"/>
                          </g>
                        </g>
                      </g>
                    </g>
                  </g>
                </g>
              </g>
            </g>
          </g>
        </g>
      </g>
      <g id="target_748652" transform="translate(639.573 2932.088)">
        <circle id="Ellipse_12783" data-name="Ellipse 12783" cx="21.802" cy="21.802" r="21.802" transform="translate(0 0)" fill="#fdbf5e"/>
        <path id="Path_1176722" data-name="Path 1176722" d="M214.337,239.389a18.07,18.07,0,1,1,17.972-18.07A18.085,18.085,0,0,1,214.337,239.389Z" transform="translate(-171.421 -177.519)" fill="#f16051"/>
        <path id="Path_1176723" data-name="Path 1176723" d="M207.561,234.273a19,19,0,1,1,18.954-19.052A19.07,19.07,0,0,1,207.561,234.273Zm0-36.042a17.039,17.039,0,1,0,16.99,16.99A17.1,17.1,0,0,0,207.561,198.231Z" transform="translate(-164.645 -171.421)" fill="#193651"/>
        <path id="Path_1176724" data-name="Path 1176724" d="M240.761,262.759A14.24,14.24,0,1,1,255,248.519,14.25,14.25,0,0,1,240.761,262.759Z" transform="translate(-197.845 -204.62)" fill="#fff"/>
        <path id="Path_1176725" data-name="Path 1176725" d="M264.476,282.26a10.8,10.8,0,1,1,10.8-10.8A10.834,10.834,0,0,1,264.476,282.26Z" transform="translate(-221.559 -227.657)" fill="#f16051"/>
        <circle id="Ellipse_12784" data-name="Ellipse 12784" cx="6.973" cy="6.973" r="6.973" transform="translate(35.944 36.828)" fill="#fff"/>
        <g id="Group_1223896" data-name="Group 1223896" transform="translate(39.381 40.265)">
          <circle id="Ellipse_12785" data-name="Ellipse 12785" cx="3.535" cy="3.535" r="3.535" fill="#f16051"/>
        </g>
        <rect id="Rectangle_421611" data-name="Rectangle 421611" width="1.964" height="2.357" transform="translate(7.211 31.484) rotate(150.007)" fill="#193651"/>
        <rect id="Rectangle_421612" data-name="Rectangle 421612" width="1.964" height="2.357" transform="translate(39.155 13.103) rotate(150.007)" fill="#193651"/>
        <rect id="Rectangle_421613" data-name="Rectangle 421613" width="1.964" height="2.357" transform="translate(32.443 5.584) rotate(119.993)" fill="#193651"/>
        <rect id="Rectangle_421614" data-name="Rectangle 421614" width="2.357" height="1.964" transform="translate(20.623 2.357)" fill="#193651"/>
        <rect id="Rectangle_421615" data-name="Rectangle 421615" width="2.357" height="1.964" transform="translate(14.067 6.054) rotate(150.007)" fill="#193651"/>
        <rect id="Rectangle_421616" data-name="Rectangle 421616" width="2.357" height="1.964" transform="matrix(-0.5, 0.866, -0.866, -0.5, 7.251, 12.057)" fill="#193651"/>
        <g id="Group_1223897" data-name="Group 1223897" transform="translate(2.357 20.623)">
          <rect id="Rectangle_421617" data-name="Rectangle 421617" width="1.964" height="2.357" transform="translate(36.828)" fill="#193651"/>
          <rect id="Rectangle_421618" data-name="Rectangle 421618" width="1.964" height="2.357" fill="#193651"/>
        </g>
        <path id="Path_1176726" data-name="Path 1176726" d="M77.775,84.2a14.861,14.861,0,0,0-9.428-26.909A14.814,14.814,0,0,0,60.589,84.2a3.441,3.441,0,0,1,1.375,2.75H76.3A3.681,3.681,0,0,1,77.775,84.2Z" transform="translate(-47.429 -50.027)" fill="#2ea2db"/>
        <path id="Path_1176727" data-name="Path 1176727" d="M70.281,81.785H55.943a.928.928,0,0,1-.982-.982,2.417,2.417,0,0,0-.982-1.964,15.732,15.732,0,0,1,8.249-28.578A15.842,15.842,0,0,1,72.245,78.937a2.563,2.563,0,0,0-.982,1.964A.968.968,0,0,1,70.281,81.785ZM56.728,79.821H69.4a4.756,4.756,0,0,1,1.67-2.652,13.877,13.877,0,0,0-8.74-25.141A14.077,14.077,0,0,0,49.265,65.778a13.756,13.756,0,0,0,5.794,11.49A4.073,4.073,0,0,1,56.728,79.821Z" transform="translate(-41.31 -43.878)" fill="#193651"/>
        <path id="Path_1176728" data-name="Path 1176728" d="M115.588,291.685v5.2a1.51,1.51,0,0,0,1.473,1.473h11.392a1.51,1.51,0,0,0,1.473-1.473v-5.2Z" transform="translate(-100.955 -254.759)" fill="#fff"/>
        <g id="Group_1223898" data-name="Group 1223898" transform="translate(13.651 21.11)">
          <path id="Path_1176729" data-name="Path 1176729" d="M121.677,292.569H110.285a2.431,2.431,0,0,1-2.455-2.455v-5.2a.928.928,0,0,1,.982-.982H123.15a.928.928,0,0,1,.982.982v5.2A2.431,2.431,0,0,1,121.677,292.569Zm-11.883-6.678v4.223a.464.464,0,0,0,.491.491h11.392a.464.464,0,0,0,.491-.491v-4.223Z" transform="translate(-107.83 -269.093)" fill="#193651"/>
          <path id="Path_1176730" data-name="Path 1176730" d="M165.442,216.78a.928.928,0,0,1-.982-.982V205.781a.982.982,0,1,1,1.964,0V215.8A.984.984,0,0,1,165.442,216.78Z" transform="translate(-157.291 -199.982)" fill="#193651"/>
          <path id="Path_1176731" data-name="Path 1176731" d="M139.664,173.532a.893.893,0,0,1-.786-.393l-3.732-4.812a.982.982,0,1,1,1.571-1.178l2.946,3.83,2.946-3.83a.982.982,0,1,1,1.571,1.178l-3.732,4.812A.894.894,0,0,1,139.664,173.532Z" transform="translate(-131.512 -166.751)" fill="#193651"/>
        </g>
        <g id="Group_1223899" data-name="Group 1223899" transform="translate(17.579 11.921)">
          <path id="Path_1176732" data-name="Path 1176732" d="M192.727,101.982a8.612,8.612,0,0,0-5.5-5.7,1.087,1.087,0,0,1,.688-2.062,10.682,10.682,0,0,1,6.973,7.071.992.992,0,0,1-.687,1.277A1.023,1.023,0,0,1,192.727,101.982Z" transform="translate(-180.451 -94.163)" fill="#fff"/>
          <path id="Path_1176733" data-name="Path 1176733" d="M143.083,348.669h0a4.192,4.192,0,0,1-4.223-4.223v-.786h8.348v.786A4.171,4.171,0,0,1,143.083,348.669Z" transform="translate(-138.86 -312.075)" fill="#fff"/>
        </g>
        <g id="Group_1223900" data-name="Group 1223900" transform="translate(16.597 23.864)">
          <path id="Path_1176734" data-name="Path 1176734" d="M140.433,336.679h-8.348a.928.928,0,0,0-.982.982v.786a5.2,5.2,0,1,0,10.41,0v-.786A1.07,1.07,0,0,0,140.433,336.679Zm-4.125,4.91a3.29,3.29,0,0,1-3.241-2.946h6.383A3.128,3.128,0,0,1,136.308,341.589Z" transform="translate(-131.103 -317.922)" fill="#193651"/>
          <path id="Path_1176735" data-name="Path 1176735" d="M458.237,193.91H454.8a1.007,1.007,0,0,1-.982-.982v-3.437a.928.928,0,0,1,.982-.982h0a.928.928,0,0,1,.982.982v2.455h2.455a.982.982,0,1,1,0,1.964Z" transform="translate(-412.964 -188.509)" fill="#193651"/>
          <path id="Path_1176736" data-name="Path 1176736" d="M331.543,233.622a.949.949,0,0,1,0-1.375L347.06,216.73a.972.972,0,0,1,1.375,1.375l-15.517,15.517A1.18,1.18,0,0,1,331.543,233.622Z" transform="translate(-305.911 -212.9)" fill="#193651"/>
        </g>
      </g>
    </g>
  </g>
</svg>
