<svg xmlns="http://www.w3.org/2000/svg" xmlns:xlink="http://www.w3.org/1999/xlink" width="108" height="108" viewBox="0 0 108 108">
  <defs>
    <filter id="Path_904820" x="0" y="0" width="108" height="108" filterUnits="userSpaceOnUse">
      <feOffset dy="3" input="SourceAlpha"/>
      <feGaussianBlur stdDeviation="3" result="blur"/>
      <feFlood flood-opacity="0.161"/>
      <feComposite operator="in" in2="blur"/>
      <feComposite in="SourceGraphic"/>
    </filter>
  </defs>
  <g id="Group_1225399" data-name="Group 1225399" transform="translate(-200 -512)">
    <g id="Group_1225397" data-name="Group 1225397">
      <g id="Group_1223161" data-name="Group 1223161">
        <g id="Group_1221167" data-name="Group 1221167" transform="translate(-419.828 195)">
          <g id="Group_1220471" data-name="Group 1220471" transform="translate(628.827 323)">
            <g id="Group_1219977" data-name="Group 1219977" transform="translate(0 0)">
              <g id="Group_1219603" data-name="Group 1219603">
                <g id="Group_1202655" data-name="Group 1202655" transform="translate(0)">
                  <g id="Group_1173585" data-name="Group 1173585">
                    <g id="Group_1173428" data-name="Group 1173428">
                      <g id="Group_1171958" data-name="Group 1171958">
                        <g id="Group_1167341" data-name="Group 1167341">
                          <g id="Group_1166792" data-name="Group 1166792">
                            <g transform="matrix(1, 0, 0, 1, -9, -6)" filter="url(#Path_904820)">
                              <g id="Path_904820-2" data-name="Path 904820" transform="translate(9 6)" fill="#fef2ec">
                                <path d="M 44.99999618530273 88.49999237060547 C 39.12687301635742 88.49999237060547 33.43022155761719 87.35006713867188 28.06829643249512 85.08216857910156 C 22.88852119445801 82.89130401611328 18.23629570007324 79.75457763671875 14.24084663391113 75.75914001464844 C 10.24540901184082 71.76369476318359 7.108683586120605 67.11146545410156 4.917821407318115 61.93169403076172 C 2.649921178817749 56.56976699829102 1.499996185302734 50.87311553955078 1.499996185302734 44.99999237060547 C 1.499996185302734 39.12686920166016 2.649921178817749 33.43021774291992 4.917821407318115 28.06829261779785 C 7.108683586120605 22.88851737976074 10.24540901184082 18.23630523681641 14.24084663391113 14.24085521697998 C 18.23629570007324 10.24540519714355 22.88852119445801 7.108692169189453 28.06829643249512 4.917829990386963 C 33.43022155761719 2.649929761886597 39.12687301635742 1.500004887580872 44.99999618530273 1.500004887580872 C 50.87311935424805 1.500004887580872 56.56977081298828 2.649929761886597 61.93169784545898 4.917829990386963 C 67.11147308349609 7.108692169189453 71.76369476318359 10.24540519714355 75.75914764404297 14.24085521697998 C 79.75458526611328 18.23630523681641 82.89131164550781 22.88851737976074 85.08216857910156 28.06829261779785 C 87.35007476806641 33.43021774291992 88.5 39.12686920166016 88.5 44.99999237060547 C 88.5 50.87311553955078 87.35007476806641 56.56976699829102 85.08216857910156 61.93169403076172 C 82.89131164550781 67.11146545410156 79.75458526611328 71.76369476318359 75.75914764404297 75.75914001464844 C 71.76369476318359 79.75457763671875 67.11147308349609 82.89130401611328 61.93169784545898 85.08216857910156 C 56.56977081298828 87.35006713867188 50.87311935424805 88.49999237060547 44.99999618530273 88.49999237060547 Z" stroke="none"/>
                                <path d="M 44.99999618530273 2.999992370605469 C 39.32870864868164 2.999992370605469 33.82865142822266 4.11004638671875 28.65262603759766 6.299331665039062 C 23.65165710449219 8.414566040039062 19.15968322753906 11.44333648681641 15.301513671875 15.30150604248047 C 11.44333648681641 19.15967559814453 8.414566040039062 23.65164947509766 6.299339294433594 28.65262222290039 C 4.110054016113281 33.82864761352539 2.999992370605469 39.32870483398438 2.999992370605469 44.99999237060547 C 2.999992370605469 50.67127990722656 4.110054016113281 56.17132186889648 6.299339294433594 61.34736633300781 C 8.414566040039062 66.34833526611328 11.44333648681641 70.84029388427734 15.301513671875 74.69846343994141 C 19.15968322753906 78.55663299560547 23.65165710449219 81.58540344238281 28.65262603759766 83.70063781738281 C 33.82865142822266 85.88992309570312 39.32870864868164 86.99997711181641 44.99999618530273 86.99997711181641 C 50.67128372192383 86.99997711181641 56.17134094238281 85.88992309570312 61.34736633300781 83.70063781738281 C 66.34834289550781 81.58540344238281 70.84030914306641 78.55663299560547 74.69847869873047 74.69846343994141 C 78.55665588378906 70.84029388427734 81.58542633056641 66.34833526611328 83.70065307617188 61.34736633300781 C 85.88993835449219 56.17132186889648 87 50.67127990722656 87 44.99999237060547 C 87 39.32870483398438 85.88993835449219 33.82864761352539 83.70065307617188 28.65262222290039 C 81.58542633056641 23.65164947509766 78.55665588378906 19.15967559814453 74.69847869873047 15.30150604248047 C 70.84030914306641 11.44333648681641 66.34834289550781 8.414566040039062 61.34736633300781 6.299331665039062 C 56.17134094238281 4.11004638671875 50.67128372192383 2.999992370605469 44.99999618530273 2.999992370605469 M 44.99999618530273 -7.62939453125e-06 C 69.85281372070312 -7.62939453125e-06 90 20.14717864990234 90 44.99999237060547 C 90 69.85279083251953 69.85281372070312 89.99997711181641 44.99999618530273 89.99997711181641 C 20.14717864990234 89.99997711181641 -7.62939453125e-06 69.85279083251953 -7.62939453125e-06 44.99999237060547 C -7.62939453125e-06 20.14717864990234 20.14717864990234 -7.62939453125e-06 44.99999618530273 -7.62939453125e-06 Z" stroke="none" fill="#fe8953"/>
                              </g>
                            </g>
                          </g>
                        </g>
                      </g>
                    </g>
                  </g>
                </g>
              </g>
            </g>
          </g>
        </g>
        <g id="marca" transform="translate(218.25 532.231)">
          <g id="Group_1223159" data-name="Group 1223159" transform="translate(7.515 0.876)">
            <g id="Group_1223158" data-name="Group 1223158" transform="translate(0)">
              <path id="Path_1174977" data-name="Path 1174977" d="M51.718,290.064h-20.6A4.942,4.942,0,0,0,27.2,291.99l-6.057,7.86v-7.621h-7v12.827a5.035,5.035,0,0,0,1.674,3.792,4.926,4.926,0,0,0,6.864-.35l6.2-6.384v12.4a.584.584,0,0,0,.584.584h21.2a.584.584,0,0,0,.584-.584v-7.677h7V296.594A6.53,6.53,0,0,0,51.718,290.064Z" transform="translate(-14.139 -257.079)" fill="#6bd9e7"/>
              <path id="Path_1174978" data-name="Path 1174978" d="M208.028,289.037l-1.907,16.494a.584.584,0,0,0,.183.495l2.926,2.714a.583.583,0,0,0,.794,0l2.926-2.714a.584.584,0,0,0,.183-.495l-1.907-16.494Z" transform="translate(-183.706 -256.171)" fill="#7a8c98"/>
              <path id="Path_1174979" data-name="Path 1174979" d="M153.7,290.063a4.953,4.953,0,0,0-.775.063l4.855,4.489a1.131,1.131,0,0,0,1.652-.125l3.212-4.033,3.213,4.033a1.131,1.131,0,0,0,1.652.125l4.923-4.551H153.7Z" transform="translate(-136.719 -257.078)" fill="#03bed7"/>
              <path id="Path_1174980" data-name="Path 1174980" d="M202.162,208.993v9.463a7.117,7.117,0,0,0,7.942,0v-9.463Z" transform="translate(-180.213 -185.471)" fill="#e8ad8c"/>
              <path id="Path_1174981" data-name="Path 1174981" d="M138.5,12.2h-1.57l-.647-1.249A6.4,6.4,0,0,0,130.605,7.5H118.7a6.408,6.408,0,0,0-6.344,7.308l1.6,11.273h25.6L141.1,15.194a2.621,2.621,0,0,0-2.6-2.99Z" transform="translate(-100.836 -7.5)" fill="#7a8c98"/>
              <path id="Path_1174982" data-name="Path 1174982" d="M259.384,12.2h-1.57l-.647-1.249A6.4,6.4,0,0,0,251.485,7.5H249.15c3.6,0,4.582,2.733,5.682,4.856l.43.83a.776.776,0,0,0,.689.419h1.1a2.622,2.622,0,0,1,2.6,2.99L258.1,26.081h2.335l1.544-10.886A2.621,2.621,0,0,0,259.384,12.2Z" transform="translate(-221.716 -7.5)" fill="#596c76"/>
              <g id="Group_1223157" data-name="Group 1223157" transform="translate(0 9.331)">
                <path id="Path_1174983" data-name="Path 1174983" d="M111.75,150.67h25.8a1.839,1.839,0,0,1,1.839,1.839v1.845a1.839,1.839,0,0,1-1.839,1.839h-25.8a1.839,1.839,0,0,1-1.839-1.839v-1.845A1.839,1.839,0,0,1,111.75,150.67Z" transform="translate(-98.731 -143.288)" fill="#e8ad8c"/>
                <path id="Path_1174984" data-name="Path 1174984" d="M173.2,90.051V101.24a4.694,4.694,0,0,1-4.694,4.695h-9.8a4.694,4.694,0,0,1-4.694-4.695V91.226h11.773a3.164,3.164,0,0,0,3.165-3.164v-.29a.337.337,0,0,1,.336-.336h1.294A2.614,2.614,0,0,1,173.2,90.051Z" transform="translate(-137.686 -87.436)" fill="#e8ad8c"/>
                <path id="Path_1174985" data-name="Path 1174985" d="M21.356,189.51H18.6a.425.425,0,0,1-.425-.425V185.68a2.018,2.018,0,0,0-4.035,0v13.254h7.216a3.235,3.235,0,0,0,3.235-3.235v-2.952a3.235,3.235,0,0,0-3.235-3.235Z" transform="translate(-14.14 -172.429)" fill="#e8ad8c"/>
              </g>
              <path id="Path_1174986" data-name="Path 1174986" d="M307.061,270.36v23.008a.648.648,0,0,0,.647.647h20.979a.647.647,0,0,0,.647-.647V270.36a.647.647,0,0,0-.647-.647H307.709A.648.648,0,0,0,307.061,270.36Z" transform="translate(-272.866 -239.103)" fill="#eaf6ff"/>
              <path id="Path_1174987" data-name="Path 1174987" d="M474.653,269.713h-2.335a.647.647,0,0,1,.647.647v23.008a.647.647,0,0,1-.647.647h2.335a.647.647,0,0,0,.647-.647V270.36A.647.647,0,0,0,474.653,269.713Z" transform="translate(-418.832 -239.103)" fill="#c4e2ff"/>
              <path id="Path_1174988" data-name="Path 1174988" d="M371.788,464.316h-4.722a2.005,2.005,0,0,0-2.005,2.005v1.9a.786.786,0,0,0,.786.786h7.16a.786.786,0,0,0,.786-.786v-1.9A2.005,2.005,0,0,0,371.788,464.316Z" transform="translate(-324.096 -410.989)" fill="#e8ad8c"/>
              <path id="Path_1174989" data-name="Path 1174989" d="M352.311,329.673c.309-.95,1.677-1.385,3.237-1.112a.434.434,0,0,0,.5-.366c.223-1.569,1.06-2.735,2.058-2.735s1.836,1.166,2.058,2.735a.434.434,0,0,0,.5.366c1.561-.273,2.929.162,3.237,1.112s-.542,2.106-1.965,2.8a.434.434,0,0,0-.192.592c.742,1.4.751,2.836-.057,3.423s-2.171.135-3.273-1a.434.434,0,0,0-.622,0c-1.1,1.138-2.465,1.59-3.273,1s-.8-2.023-.057-3.423a.434.434,0,0,0-.192-.592C352.853,331.779,352,330.623,352.311,329.673Z" transform="translate(-312.778 -288.343)" fill="#fed402"/>
            </g>
          </g>
          <g id="Group_1223160" data-name="Group 1223160" transform="translate(6.64 0)">
            <path id="Path_1174990" data-name="Path 1174990" d="M196.414,145.894v-.928a.876.876,0,0,0-1.751,0v.928a.876.876,0,1,0,1.751,0Z" transform="translate(-172.714 -127.269)"/>
            <path id="Path_1174991" data-name="Path 1174991" d="M263.572,146.769a.875.875,0,0,0,.876-.876v-.928a.876.876,0,0,0-1.751,0v.928A.875.875,0,0,0,263.572,146.769Z" transform="translate(-232.805 -127.269)"/>
            <path id="Path_1174992" data-name="Path 1174992" d="M202.237,192.043a5.84,5.84,0,0,0,7.345,0,.875.875,0,1,0-1.095-1.367,4.1,4.1,0,0,1-5.155,0,.876.876,0,1,0-1.095,1.367Z" transform="translate(-179.114 -168.248)"/>
            <path id="Path_1174993" data-name="Path 1174993" d="M63.983,47.765a.875.875,0,0,0,.876-.876V32.133a1.525,1.525,0,0,0-1.522-1.523H42.358a1.525,1.525,0,0,0-1.523,1.523v.852H38.283v-3.4h.051a5.576,5.576,0,0,0,5.569-5.57v-.024h2.433a2.717,2.717,0,0,0,2.714-2.714V19.427a2.717,2.717,0,0,0-1.578-2.464l1.173-8.271A3.5,3.5,0,0,0,45.184,4.7H44.147l-.4-.777A7.253,7.253,0,0,0,37.284,0h-11.9a7.314,7.314,0,0,0-5.851,2.946,7.238,7.238,0,0,0-1.36,5.36L18.4,9.94a.876.876,0,0,0,1.734-.245L19.9,8.06a5.5,5.5,0,0,1,1.033-4.072,5.555,5.555,0,0,1,4.445-2.237h11.9A5.508,5.508,0,0,1,42.19,4.733l.647,1.249a.876.876,0,0,0,.777.473h1.57a1.746,1.746,0,0,1,1.728,1.991l-1.173,8.266H43.9V12.822a3.494,3.494,0,0,0-3.489-3.491H39.119a1.213,1.213,0,0,0-1.212,1.212v.29a2.292,2.292,0,0,1-2.29,2.288H23.844a.875.875,0,0,0-.876.876v2.716H21.132L20.7,13.692a.876.876,0,0,0-1.734.246l.43,3.025a2.717,2.717,0,0,0-1.579,2.464v1.846a2.718,2.718,0,0,0,2.715,2.714h2.433v.024a5.576,5.576,0,0,0,5.569,5.57h.051v3.4h-4.1a5.863,5.863,0,0,0-4.608,2.267L15.4,41.076V37.533a4.117,4.117,0,0,0,3.447-4.056V30.524a4.115,4.115,0,0,0-4.111-4.111H12.426V23.458a2.893,2.893,0,0,0-5.786,0v25.4A5.9,5.9,0,0,0,8.612,53.3a5.8,5.8,0,0,0,8.077-.4l4.687-4.828c0,1.861,0,9.73,0,10.241a1.461,1.461,0,0,0,1.459,1.459h21.2A1.461,1.461,0,0,0,45.5,58.31V56.664h2.11v1.444a1.663,1.663,0,0,0,1.661,1.661h7.16a1.663,1.663,0,0,0,1.661-1.661V56.664h5.248a1.525,1.525,0,0,0,1.522-1.524V50.975a.876.876,0,1,0-1.751,0v3.938H57.78a2.883,2.883,0,0,0-2.572-1.586H50.486a2.883,2.883,0,0,0-2.572,1.586H42.585V32.36H63.108V46.889a.876.876,0,0,0,.876.876ZM40.834,34.876,37.7,37.77a.254.254,0,0,1-.372-.028l-1.691-2.123a9.443,9.443,0,0,0,2-.883h3.188Zm-11.609-.14a9.441,9.441,0,0,0,2,.883c-1.708,2.067-1.647,2.2-1.871,2.218a.251.251,0,0,1-.192-.068l-3.281-3.033Zm3.112,2.3.869-1.091c.076,0,.153,0,.229,0s.153,0,.229,0l.869,1.091,1.521,13.151-2.619,2.43-2.619-2.43Zm14-18.574a.964.964,0,0,1,.963.963v1.846a.964.964,0,0,1-.963.963H43.9V18.464Zm-25.8,3.772a.965.965,0,0,1-.964-.963V19.427a.965.965,0,0,1,.964-.963h2.433v3.772H20.535Zm4.184,1.775V14.873h10.9a4.046,4.046,0,0,0,4.033-3.79h.763a1.741,1.741,0,0,1,1.738,1.74V24.011a3.823,3.823,0,0,1-3.818,3.819h-9.8A3.823,3.823,0,0,1,24.719,24.011Zm11.812,5.57v3.773a6.12,6.12,0,0,1-6.192,0V29.581ZM8.391,23.458a1.142,1.142,0,0,1,2.284,0v3.406a1.3,1.3,0,0,0,1.3,1.3h2.756a2.363,2.363,0,0,1,2.177,1.451H12.741a.876.876,0,1,0,0,1.751h4.351v1.383H12.741a.876.876,0,1,0,0,1.751h4.114a2.36,2.36,0,0,1-2.123,1.336H8.391Zm42.095,31.62h4.722a1.131,1.131,0,0,1,1.13,1.13v1.81H49.356v-1.81A1.131,1.131,0,0,1,50.486,55.078Zm-6.741,1.586v1.354H23.127V43.927a.876.876,0,0,0-1.751,0v1.628L15.412,51.7a4.031,4.031,0,0,1-5.645.288,4.149,4.149,0,0,1-1.376-3.133V37.587h5.253v6.06s0,0,0,.007v2.716a.876.876,0,0,0,1.751,0V43.944l5.875-7.623a4.09,4.09,0,0,1,2.184-1.447l4.521,4.18a2,2,0,0,0,2.333.282l-1.249,10.8a1.468,1.468,0,0,0,.458,1.236l2.926,2.715a1.466,1.466,0,0,0,1.984,0l2.927-2.715a1.468,1.468,0,0,0,.456-1.236l-1.249-10.8a2,2,0,0,0,2.332-.281l1.94-1.794V55.14a1.525,1.525,0,0,0,1.523,1.524h1.387Z" transform="translate(-6.64 0)"/>
            <path id="Path_1174994" data-name="Path 1174994" d="M358.128,322.778c-.41-1.263-1.934-1.957-3.783-1.765-.389-1.818-1.52-3.053-2.848-3.053s-2.459,1.235-2.848,3.053c-1.849-.192-3.373.5-3.784,1.765s.414,2.72,2.023,3.652c-.754,1.7-.564,3.363.51,4.144a2.261,2.261,0,0,0,1.351.419,4.271,4.271,0,0,0,2.747-1.215c1.383,1.242,3.024,1.576,4.1.8s1.264-2.444.51-4.144C357.714,325.5,358.538,324.041,358.128,322.778Zm-3.183,2.287a1.31,1.31,0,0,0-.581,1.788c.561,1.058.557,2.046.2,2.3s-1.3-.043-2.129-.9a1.311,1.311,0,0,0-1.88,0c-.833.861-1.773,1.162-2.129.9s-.359-1.246.2-2.3a1.31,1.31,0,0,0-.581-1.788c-1.076-.526-1.653-1.328-1.517-1.746s1.074-.727,2.254-.52a1.311,1.311,0,0,0,1.521-1.105c.168-1.186.752-1.983,1.191-1.983s1.023.8,1.191,1.983a1.311,1.311,0,0,0,1.521,1.105c1.18-.207,2.118.1,2.254.52S356.021,324.538,354.945,325.065Z" transform="translate(-305.29 -280.843)"/>
          </g>
        </g>
      </g>
    </g>
  </g>
</svg>
